<svg width="40" height="40" viewBox="0 0 40 40" fill="none" xmlns="http://www.w3.org/2000/svg">
<rect x="0.5" y="0.5" width="39" height="39" rx="1.5" stroke="#AEBDCD"/>
<rect x="2" y="2" width="36" height="36" rx="2" fill="white"/>
<g clip-path="url(#clip0_4051_380)">
<path fill-rule="evenodd" clip-rule="evenodd" d="M20 8C13.3724 8 8 13.3808 8 20.0204C8 25.3304 11.438 29.8364 16.2068 31.4252C16.8068 31.5356 17.0252 31.1648 17.0252 30.8456C17.0252 30.5612 17.0156 29.804 17.0096 28.802C13.6712 29.528 12.9668 27.1904 12.9668 27.1904C12.422 25.8008 11.6348 25.4312 11.6348 25.4312C10.5452 24.6872 11.7176 24.7016 11.7176 24.7016C12.9212 24.7856 13.5548 25.94 13.5548 25.94C14.6252 27.776 16.364 27.2456 17.0468 26.9384C17.1572 26.162 17.4668 25.6328 17.81 25.3328C15.146 25.0292 12.344 23.9972 12.344 19.3916C12.344 18.08 12.812 17.006 13.5788 16.166C13.4552 15.8624 13.0436 14.6396 13.6964 12.986C13.6964 12.986 14.7044 12.662 16.9964 14.2172C17.9753 13.9502 18.9853 13.8142 20 13.8128C21.02 13.8176 22.046 13.9508 23.0048 14.2172C25.2956 12.662 26.3012 12.9848 26.3012 12.9848C26.9564 14.6396 26.5436 15.8624 26.4212 16.166C27.1892 17.006 27.6548 18.08 27.6548 19.3916C27.6548 24.0092 24.848 25.0256 22.1756 25.3232C22.6064 25.694 22.9892 26.4272 22.9892 27.5492C22.9892 29.1548 22.9748 30.452 22.9748 30.8456C22.9748 31.1672 23.1908 31.5416 23.8004 31.424C26.19 30.6225 28.2672 29.0904 29.7386 27.0441C31.2099 24.9977 32.001 22.5408 32 20.0204C32 13.3808 26.6264 8 20 8Z" fill="black"/>
</g>
<defs>
<clipPath id="clip0_4051_380">
<rect width="24" height="24" fill="white" transform="translate(8 8)"/>
</clipPath>
</defs>
</svg>
