<svg width="40" height="40" viewBox="0 0 40 40" fill="none" xmlns="http://www.w3.org/2000/svg">
<rect x="0.5" y="0.5" width="39" height="39" rx="1.5" stroke="#AEBDCD"/>
<rect x="2" y="2" width="36" height="36" rx="2" fill="white"/>
<g clip-path="url(#clip0_4051_367)">
<path d="M31.766 20.2765C31.766 19.4608 31.6999 18.6406 31.5588 17.8381H20.24V22.4591H26.7217C26.4528 23.9495 25.5885 25.2679 24.323 26.1056V29.104H28.19C30.4608 27.014 31.766 23.9274 31.766 20.2765Z" fill="#4285F4"/>
<path d="M20.24 32.0008C23.4764 32.0008 26.2058 30.9382 28.1944 29.1039L24.3274 26.1055C23.2516 26.8375 21.8626 27.252 20.2444 27.252C17.1138 27.252 14.4593 25.1399 13.5069 22.3003H9.51648V25.3912C11.5536 29.4434 15.7028 32.0008 20.24 32.0008Z" fill="#34A853"/>
<path d="M13.5025 22.3002C12.9999 20.8099 12.9999 19.196 13.5025 17.7057V14.6147H9.51649C7.81449 18.0055 7.81449 22.0004 9.51649 25.3912L13.5025 22.3002Z" fill="#FBBC04"/>
<path d="M20.24 12.7497C21.9508 12.7232 23.6043 13.367 24.8433 14.5487L28.2694 11.1226C26.1 9.0855 23.2207 7.96553 20.24 8.00081C15.7028 8.00081 11.5536 10.5582 9.51648 14.6148L13.5025 17.7058C14.4505 14.8617 17.1094 12.7497 20.24 12.7497Z" fill="#EA4335"/>
</g>
<defs>
<clipPath id="clip0_4051_367">
<rect width="24" height="24" fill="white" transform="translate(8 8)"/>
</clipPath>
</defs>
</svg>
