<svg width="40" height="40" viewBox="0 0 40 40" fill="none" xmlns="http://www.w3.org/2000/svg">
<rect x="0.5" y="0.5" width="39" height="39" rx="1.5" stroke="#AEBDCD"/>
<rect x="2" y="2" width="36" height="36" rx="2" fill="white"/>
<path d="M10.5923 22.5516C10.5923 23.4714 10.7934 24.1776 11.0563 24.6048C11.401 25.1644 11.9151 25.4015 12.4393 25.4015C13.1153 25.4015 13.7338 25.2331 14.9256 23.5786C15.8804 22.2526 17.0054 20.3912 17.7624 19.2243L19.0444 17.2473C19.9349 15.8743 20.9656 14.3481 22.1474 13.3135C23.1123 12.4691 24.153 12 25.2004 12C26.959 12 28.634 13.0228 29.916 14.9412C31.319 17.0421 32 19.6884 32 22.4193C32 24.0427 31.6812 25.2356 31.1387 26.178C30.6145 27.0894 29.593 28 27.8745 28V25.4015C29.3459 25.4015 29.7132 24.0444 29.7132 22.4913C29.7132 20.2781 29.1991 17.822 28.0665 16.067C27.2628 14.8222 26.2212 14.0616 25.0753 14.0616C23.8359 14.0616 22.8385 14.9998 21.7176 16.6727C21.1217 17.5615 20.5099 18.6446 19.8231 19.8668L19.0669 21.2113C17.5479 23.9146 17.1632 24.5303 16.4037 25.5464C15.0725 27.3257 13.9357 28 12.4393 28C10.6641 28 9.54152 27.2285 8.84629 26.0658C8.27876 25.1183 8 23.8752 8 22.4586L10.5923 22.5516Z" fill="#0081FB"/>
<path d="M10.0439 15.1246C11.2324 13.2859 12.9475 12 14.9147 12C16.054 12 17.1865 12.3384 18.3692 13.3076C19.6628 14.3673 21.0416 16.1123 22.7617 18.9881L23.3785 20.0201C24.8674 22.5097 25.7146 23.7906 26.2103 24.3946C26.848 25.1703 27.2945 25.4015 27.8745 25.4015C29.3459 25.4015 29.7132 24.0444 29.7132 22.4913L32 22.4193C32 24.0427 31.6812 25.2356 31.1387 26.178C30.6145 27.0894 29.593 28 27.8745 28C26.8062 28 25.8598 27.7671 24.8132 26.7761C24.0086 26.0155 23.068 24.6643 22.3444 23.4496L20.1919 19.8408C19.112 18.0297 18.1213 16.6794 17.5479 16.0679C16.9311 15.4103 16.1383 14.6161 14.873 14.6161C13.8489 14.6161 12.9793 15.3374 12.2515 16.4406L10.0439 15.1246Z" fill="url(#paint0_linear_4051_383)"/>
<path d="M14.873 14.6161C13.8489 14.6161 12.9793 15.3374 12.2515 16.4406C11.2224 17.9996 10.5923 20.3217 10.5923 22.5516C10.5923 23.4714 10.7934 24.1776 11.0563 24.6048L8.84629 26.0658C8.27876 25.1183 8 23.8752 8 22.4586C8 19.8827 8.70441 17.1979 10.044 15.1246C11.2324 13.2859 12.9476 12 14.9147 12L14.873 14.6161Z" fill="url(#paint1_linear_4051_383)"/>
<defs>
<linearGradient id="paint0_linear_4051_383" x1="13.0911" y1="21.801" x2="29.6167" y2="22.6326" gradientUnits="userSpaceOnUse">
<stop stop-color="#0064E1"/>
<stop offset="0.4" stop-color="#0064E1"/>
<stop offset="0.83" stop-color="#0073EE"/>
<stop offset="1" stop-color="#0082FB"/>
</linearGradient>
<linearGradient id="paint1_linear_4051_383" x1="11.7557" y1="23.644" x2="11.7557" y2="17.5288" gradientUnits="userSpaceOnUse">
<stop stop-color="#0082FB"/>
<stop offset="1" stop-color="#0064E0"/>
</linearGradient>
</defs>
</svg>
