<svg width="65" height="65" viewBox="0 0 65 65" fill="none" xmlns="http://www.w3.org/2000/svg">
<rect x="11.0127" y="26.415" width="44.9057" height="8.21459" fill="#E6EAF3"/>
<rect x="10.8201" y="26.3547" width="45.4162" height="28.6222" stroke="#3D4865" stroke-width="1.12463"/>
<rect x="27.1727" y="14.5303" width="12.8376" height="40.4462" fill="#008BF2" stroke="#3D4865" stroke-width="1.12463"/>
<rect x="8.73077" y="14.4866" width="49.8478" height="11.4028" rx="1.79941" stroke="#3D4865" stroke-width="1.12463"/>
<rect x="27.4241" y="6.19165" width="12.5861" height="8.70799" rx="1.79941" fill="#008BF2" stroke="#3D4865" stroke-width="1.12463"/>
<path d="M39.4993 7.55363C39.4993 6.70324 40.0947 5.96894 40.9267 5.7931L48.0271 4.29251C49.1459 4.05606 50.1986 4.90952 50.1986 6.05303V13.1002C50.1986 14.094 49.393 14.8996 48.3992 14.8996H41.2987C40.305 14.8996 39.4993 14.094 39.4993 13.1002V7.55363Z" fill="#008BF2" stroke="#3D4865" stroke-width="1.12463"/>
<path d="M27.8088 7.5578C27.8088 6.70597 27.2115 5.97085 26.3777 5.79649L19.1515 4.28538C18.0337 4.05164 16.9837 4.90475 16.9837 6.04669V13.1002C16.9837 14.094 17.7894 14.8996 18.7831 14.8996H26.0094C27.0032 14.8996 27.8088 14.094 27.8088 13.1002V7.5578Z" fill="#008BF2" stroke="#3D4865" stroke-width="1.12463"/>
<path d="M9.0273 10.6384C8.76079 9.47328 7.10117 9.47328 6.83466 10.6384L6.42888 12.4125L4.66088 12.8085L4.78377 13.3572L4.66088 12.8085C3.48907 13.0709 3.48907 14.7409 4.66088 15.0034L6.42888 15.3993L6.83466 17.1734C7.10117 18.3385 8.76079 18.3385 9.0273 17.1734L9.43308 15.3993L11.2011 15.0034C12.3729 14.7409 12.3729 13.0709 11.2011 12.8085L9.43308 12.4125L9.0273 10.6384Z" fill="#DDE1E9" stroke="#3D4865" stroke-width="1.12463"/>
<path d="M57.8325 52.3341C57.566 51.1689 55.9063 51.1689 55.6398 52.3341L55.2341 54.1082L53.4661 54.5041L53.5889 55.0528L53.4661 54.5041C52.2942 54.7665 52.2942 56.4366 53.4661 56.699L55.2341 57.0949L55.6398 58.869C55.9063 60.0342 57.566 60.0342 57.8325 58.869L58.2383 57.0949L60.0063 56.699C61.1781 56.4366 61.1781 54.7665 60.0063 54.5041L58.2383 54.1082L57.8325 52.3341Z" fill="#DDE1E9" stroke="#3D4865" stroke-width="1.12463"/>
</svg>
