<svg width="64" height="65" viewBox="0 0 64 65" fill="none" xmlns="http://www.w3.org/2000/svg">
<path d="M62.0002 61.1399H11.6377V26.2346H62.0002V61.1399Z" fill="#F2F3F7" stroke="#3D4865" stroke-width="1.3" stroke-linecap="round" stroke-linejoin="round"/>
<path d="M11.4003 59.504H9.20801V15.5694H32.0193L38.7738 22.3565H57.2598V26.2349" stroke="#3D4865" stroke-width="1.3" stroke-linecap="round" stroke-linejoin="round"/>
<mask id="path-3-inside-1_3950_1307" fill="white">
<path fill-rule="evenodd" clip-rule="evenodd" d="M46.4273 39.7793C46.4273 40.3931 46.3573 40.9901 46.2251 41.5626C46.541 41.5098 46.8653 41.4823 47.1958 41.4823C50.4962 41.4823 53.1717 44.2188 53.1717 47.5943C53.1717 50.9698 50.4962 53.7063 47.1958 53.7063C47.1775 53.7063 47.1591 53.7062 47.1408 53.706H26.3228V53.7054C26.2944 53.7058 26.2661 53.706 26.2377 53.706C22.9844 53.706 20.3472 51.0086 20.3472 47.6813C20.3472 44.6121 22.5911 42.079 25.4926 41.7044C25.3938 41.342 25.3411 40.96 25.3411 40.5653C25.3411 38.2266 27.1948 36.3306 29.4815 36.3306C30.3403 36.3306 31.1381 36.5981 31.7995 37.056C32.8763 34.1321 35.6367 32.052 38.8721 32.052C43.0447 32.052 46.4273 35.5117 46.4273 39.7793Z"/>
</mask>
<path fill-rule="evenodd" clip-rule="evenodd" d="M46.4273 39.7793C46.4273 40.3931 46.3573 40.9901 46.2251 41.5626C46.541 41.5098 46.8653 41.4823 47.1958 41.4823C50.4962 41.4823 53.1717 44.2188 53.1717 47.5943C53.1717 50.9698 50.4962 53.7063 47.1958 53.7063C47.1775 53.7063 47.1591 53.7062 47.1408 53.706H26.3228V53.7054C26.2944 53.7058 26.2661 53.706 26.2377 53.706C22.9844 53.706 20.3472 51.0086 20.3472 47.6813C20.3472 44.6121 22.5911 42.079 25.4926 41.7044C25.3938 41.342 25.3411 40.96 25.3411 40.5653C25.3411 38.2266 27.1948 36.3306 29.4815 36.3306C30.3403 36.3306 31.1381 36.5981 31.7995 37.056C32.8763 34.1321 35.6367 32.052 38.8721 32.052C43.0447 32.052 46.4273 35.5117 46.4273 39.7793Z" fill="#DDE1E9"/>
<path d="M46.2251 41.5626L44.9584 41.27L44.5207 43.1654L46.4393 42.8448L46.2251 41.5626ZM47.1408 53.706L47.1528 52.406H47.1408V53.706ZM26.3228 53.706H25.0228V55.006H26.3228V53.706ZM26.3228 53.7054H27.6228V52.3864L26.3039 52.4055L26.3228 53.7054ZM25.4926 41.7044L25.659 42.9937L27.1391 42.8026L26.7469 41.3627L25.4926 41.7044ZM31.7995 37.056L31.0595 38.1248L32.4394 39.0801L33.0194 37.5052L31.7995 37.056ZM47.4917 41.8551C47.646 41.1873 47.7273 40.4921 47.7273 39.7793H45.1273C45.1273 40.294 45.0686 40.7929 44.9584 41.27L47.4917 41.8551ZM47.1958 40.1823C46.7932 40.1823 46.3973 40.2158 46.0109 40.2803L46.4393 42.8448C46.6848 42.8038 46.9374 42.7823 47.1958 42.7823V40.1823ZM54.4717 47.5943C54.4717 43.5285 51.2416 40.1823 47.1958 40.1823V42.7823C49.7508 42.7823 51.8717 44.909 51.8717 47.5943H54.4717ZM47.1958 55.0063C51.2416 55.0063 54.4717 51.6601 54.4717 47.5943H51.8717C51.8717 50.2796 49.7508 52.4063 47.1958 52.4063V55.0063ZM47.1288 55.006C47.1511 55.0062 47.1735 55.0063 47.1958 55.0063V52.4063C47.1814 52.4063 47.1671 52.4062 47.1528 52.4061L47.1288 55.006ZM47.1408 52.406H26.3228V55.006H47.1408V52.406ZM27.6228 53.706V53.7054H25.0228V53.706H27.6228ZM26.2377 55.006C26.2723 55.006 26.307 55.0057 26.3416 55.0052L26.3039 52.4055C26.2819 52.4058 26.2598 52.406 26.2377 52.406V55.006ZM19.0472 47.6813C19.0472 51.6989 22.239 55.006 26.2377 55.006V52.406C23.7298 52.406 21.6472 50.3184 21.6472 47.6813H19.0472ZM25.3261 40.4151C21.7623 40.8752 19.0472 43.9728 19.0472 47.6813H21.6472C21.6472 45.2514 23.4199 43.2828 25.659 42.9937L25.3261 40.4151ZM24.0411 40.5653C24.0411 41.0763 24.1095 41.5732 24.2383 42.0461L26.7469 41.3627C26.6782 41.1108 26.6411 40.8436 26.6411 40.5653H24.0411ZM29.4815 35.0306C26.4494 35.0306 24.0411 37.5363 24.0411 40.5653H26.6411C26.6411 38.9168 27.9402 37.6306 29.4815 37.6306V35.0306ZM32.5394 35.9871C31.6692 35.3846 30.615 35.0306 29.4815 35.0306V37.6306C30.0656 37.6306 30.6069 37.8115 31.0595 38.1248L32.5394 35.9871ZM38.8721 30.752C35.0599 30.752 31.8333 33.2024 30.5796 36.6067L33.0194 37.5052C33.9193 35.0617 36.2134 33.352 38.8721 33.352V30.752ZM47.7273 39.7793C47.7273 34.8214 43.7901 30.752 38.8721 30.752V33.352C42.2993 33.352 45.1273 36.2019 45.1273 39.7793H47.7273Z" fill="#3D4865" mask="url(#path-3-inside-1_3950_1307)"/>
<path d="M14.627 31.3264L14.6118 31.3195L14.5963 31.3133C10.1024 29.5425 6.28637 25.7632 4.24577 20.9056L4.24573 20.9055C3.41092 18.9192 3.00349 15.8837 2.81243 13.2356C2.63606 10.7912 2.64866 8.75913 2.65121 8.34754C2.65139 8.31729 2.65153 8.2958 2.65153 8.28353V8.00528L2.91028 7.99377L2.91028 7.99378L2.91488 7.99355C7.47609 7.75831 11.3804 7.28765 14.4811 3.4484L14.7023 3.17455L14.9234 3.4484C18.0248 7.28859 21.9295 7.75844 26.4948 7.95467C26.495 7.95467 26.4951 7.95468 26.4952 7.95468L26.753 7.96615V8.2444C26.753 8.25935 26.7533 8.28743 26.7536 8.32782C26.7577 8.78146 26.7758 10.7886 26.6064 13.1977C26.4201 15.8455 26.0126 18.8782 25.1607 20.8617L25.1588 20.8664C23.1172 25.7265 19.2999 29.5434 14.8083 31.3133L14.7927 31.3195L14.7776 31.3264L14.7023 31.3606L14.627 31.3264Z" fill="#F5F5F5" stroke="#008CF4" stroke-width="1.3"/>
<path d="M14.4892 28.8858L14.7614 29.0103L15.0337 28.8858C18.724 27.4232 21.8395 24.2802 23.5032 20.297C24.9249 16.9672 24.8039 10.3388 24.8039 10.0587V9.343L24.1082 9.31188C20.5086 9.15628 17.635 8.78278 15.3361 5.91981L14.7614 5.20407L14.1867 5.91981C11.8878 8.78278 9.01424 9.15628 5.41469 9.343L4.71898 9.37412V10.0899C4.71898 10.3699 4.62824 16.9983 6.01966 20.3281C7.68332 24.3113 10.7989 27.4232 14.4892 28.8858Z" fill="#008CF4"/>
</svg>
