<svg width="65" height="65" viewBox="0 0 65 65" fill="none" xmlns="http://www.w3.org/2000/svg">
<path d="M56.2698 41.4002C56.2698 32.3083 48.4926 24.9379 38.8988 24.9379C29.3051 24.9379 21.5278 32.3083 21.5278 41.4002" stroke="#3D4865" stroke-width="1.24731" stroke-linecap="round" stroke-linejoin="round"/>
<path d="M24.6258 53.6227L24.9668 53.7152C24.8537 53.6884 24.7399 53.6575 24.6258 53.6227L18.3441 51.9187C17.946 51.4614 17.1571 50.0242 17.186 47.9338C17.2222 45.3207 17.367 43.0996 18.7784 42.6423C19.9075 42.2765 20.5026 42.1088 21.4918 41.8257C17.1129 43.2956 21.0221 44.2428 19.9003 46.9539C18.8222 49.559 21.821 52.7673 24.6258 53.6227Z" fill="#DDE1E9"/>
<path d="M17.1855 49.2922V45.6174C17.1855 43.8204 18.5405 42.2541 20.472 41.8183L24.2458 40.9668C25.0673 40.7813 25.8631 41.3421 25.8631 42.1065V52.8031C25.8631 53.5675 25.0673 54.1283 24.2458 53.9429L20.472 53.0913C18.5405 52.6555 17.1855 51.0893 17.1855 49.2922Z" stroke="#3D4865" stroke-width="1.24731" stroke-linecap="round" stroke-linejoin="round"/>
<path d="M56.9612 42.1234L55.7627 41.6615C56.1087 41.6615 56.5312 41.8349 56.9612 42.1234L58.9835 42.9027C59.3816 43.36 60.1705 44.7972 60.1416 46.8876C60.1054 49.5007 59.9606 51.7218 58.5493 52.1791C57.4201 52.5449 53.35 53.4639 52.3608 53.7469C56.7398 52.2771 53.157 48.6188 57.3912 47.6062C60.8314 46.7835 58.8247 43.3733 56.9612 42.1234Z" fill="#DDE1E9"/>
<path d="M60.5721 49.2922V45.6174C60.5721 43.8203 59.2171 42.2541 57.2857 41.8182L53.5118 40.9667C52.6903 40.7813 51.8945 41.3421 51.8945 42.1065V52.8031C51.8945 53.5675 52.6903 54.1282 53.5118 53.9428L57.2857 53.0913C59.2171 52.6554 60.5721 51.0892 60.5721 49.2922Z" stroke="#3D4865" stroke-width="1.24731" stroke-linecap="round" stroke-linejoin="round"/>
<path d="M56.27 53.3558V54.5317C56.27 57.1295 54.5025 59.2352 52.322 59.2352H45.4131" stroke="#3D4865" stroke-width="1.24731" stroke-linecap="round" stroke-linejoin="round"/>
<path d="M45.3044 58.8423C45.3334 57.7567 43.5957 56.8995 42.7271 56.4423C45.5613 59.1798 43.1585 61.6683 40.589 60.7057C38.0196 59.7431 35.7956 61.506 34.3027 61.8146C35.2964 61.6676 41.9625 62.1026 43.0968 61.9126C44.5146 61.6752 45.268 60.1992 45.3044 58.8423Z" fill="#DDE1E9"/>
<path d="M42.1328 62.1405H35.6247C33.8275 62.1405 32.3706 60.8255 32.3706 59.2035C32.3706 57.5815 33.8275 56.2665 35.6247 56.2665H42.1328C43.93 56.2665 45.3869 57.5815 45.3869 59.2035C45.3869 60.8255 43.93 62.1405 42.1328 62.1405Z" stroke="#3D4865" stroke-width="1.24731" stroke-linecap="round" stroke-linejoin="round"/>
<path d="M26.7166 26.8233C26.7166 27.1216 26.6695 27.5588 26.6081 28.1286C26.5957 28.2438 26.5827 28.3644 26.5693 28.4904C26.4928 29.2143 26.4123 30.0701 26.4059 30.9443C26.3933 32.6418 26.6539 34.6372 28.0266 35.8223C28.2929 36.0521 28.5559 36.2543 28.8134 36.4319H28.7838H28.7451H28.7064H28.6675H28.6284H28.5893H28.5501H28.5107H28.4712H28.4316H28.3919H28.3521H28.3122H28.2722H28.232H28.1918H28.1514H28.111H28.0704H28.0298H27.989H27.9482H27.9072H27.8662H27.825H27.7838H27.7425H27.7011H27.6595H27.6179H27.5762H27.5345H27.4926H27.4506H27.4086H27.3665H27.3243H27.282H27.2396H27.1972H27.1546H27.112H27.0694H27.0266H26.9838H26.9409H26.8979H26.8549H26.8118H26.7686H26.7254H26.6821H26.6387H26.5953H26.5518H26.5082H26.4646H26.4209H26.3772H26.3334H26.2895H26.2456H26.2017H26.1577H26.1136H26.0695H26.0253H25.9811H25.9369H25.8926H25.8482H25.8039H25.7594H25.715H25.6704H25.6259H25.5813H25.5367H25.492H25.4473H25.4026H25.3578H25.313H25.2682H25.2234H25.1785H25.1336H25.0887H25.0437H24.9987H24.9537H24.9087H24.8637H24.8186H24.7735H24.7284H24.6833H24.6382H24.5931H24.5479H24.5028H24.4576H24.4124H24.3672H24.322H24.2768H24.2316H24.1864H24.1412H24.096H24.0508H24.0056H23.9604H23.9151H23.8699H23.8248H23.7796H23.7344H23.6892H23.6441H23.5989H23.5538H23.5086H23.4635H23.4184H23.3734H23.3283H23.2833H23.2382H23.1932H23.1483H23.1033H23.0584H23.0135H22.9686H22.9237H22.8789H22.8341H22.7894H22.7446H22.6999H22.6553H22.6107H22.5661H22.5215H22.477H22.4325H22.3881H22.3437H22.2994H22.2551H22.2108H22.1666H22.1225H22.0784H22.0343H21.9903H21.9463H21.9024H21.8586H21.8148H21.7711H21.7274H21.6838H21.6402H21.5967H21.5533H21.5099H21.4666H21.4234H21.3802H21.3371H21.294H21.2511H21.2082H21.1654H21.1226H21.0799H21.0373H20.9948H20.9524H20.91H20.8677H20.8255H20.7834H20.7414H20.6994H20.6575H20.6158H20.5741H20.5325H20.4909H20.4495H20.4082H20.3669H20.3258H20.2848H20.2438H20.203H20.1622H20.1216H20.081H20.0406H20.0002H19.96H19.9198H19.8798H19.8399H19.8001H19.7604H19.7208H19.6813H19.6419H19.6027H19.5636H19.5246H19.4857H19.4469H19.4082H19.3697H19.3313H19.293H19.2548H19.2168H19.1789H19.1411H19.1034H19.0659H19.0285H18.9912H18.9541H18.9171H18.8802H18.8435H18.8069H18.7705H18.7342H18.698H18.662H18.6261H18.5904H18.5548H18.5194H18.4841H18.449H18.414H18.3791H18.3444H18.3099H18.2755H18.2413H18.2072H18.1733H18.1396H18.106H18.0726H18.0393H18.0062H17.9733H17.9405H17.9079H17.8755H17.8432H17.8111H17.7792H17.7474H17.7158H17.6844H17.6532H17.6222H17.5913H17.5606H17.5301H17.4998H17.4696H17.4396H17.4099H17.3803H17.3509H17.3216H17.2926H17.2638H17.2351H17.2067H17.1784H17.1503H17.1225H17.0948H17.0673H17.04H17.013H16.9861H16.9594H16.933H16.9067H16.8806H16.8548H16.8291H16.8037H16.7785H16.7535H16.7287H16.7041H16.6797H16.6556H16.6316H16.6079H16.5844H16.5611H16.5381H16.5153H16.4926H16.4703H16.4481H16.4262H16.4045H16.383H16.3618H16.3407H16.32H16.2994H16.2791H16.259H16.2392H16.2196H16.2002H16.1811H16.1622H16.1436H16.1252H16.1071H16.0892H16.0715H16.0541H16.0369H16.02H16.0034C10.0249 36.4319 5.29016 32.0714 5.29016 26.8233C5.29016 21.5752 10.0249 17.2147 16.0034 17.2147C21.9818 17.2147 26.7166 21.5752 26.7166 26.8233Z" fill="white" stroke="#3D4865" stroke-width="1.24731"/>
<path d="M9.88721 23.1887H16.0529" stroke="#008CF4" stroke-width="2.24516" stroke-linecap="round"/>
<path d="M9.88721 27.2278H22.1688" stroke="#008CF4" stroke-width="2.24516" stroke-linecap="round"/>
<path d="M14.561 31.2659H22.2184" stroke="#008CF4" stroke-width="2.24516" stroke-linecap="round"/>
<path d="M37.9927 12.3723C37.9927 13.9793 39.1861 18.9245 36.8988 20.8991C34.6116 22.8738 32.6467 22.6045 32.6467 22.6045C32.6467 22.6045 46.5089 22.6045 49.3296 22.6045C55.5908 22.6045 60.6665 18.0234 60.6665 12.3723C60.6665 6.72115 55.5908 2.14001 49.3296 2.14001C43.0684 2.14001 37.9927 6.72115 37.9927 12.3723Z" fill="#008CF4"/>
<path d="M42.7407 9.0072H48.9064" stroke="#DDDDDD" stroke-width="2.24516" stroke-linecap="round"/>
<path d="M42.7407 13.0453H55.0223" stroke="#DDDDDD" stroke-width="2.24516" stroke-linecap="round"/>
<path d="M47.4146 17.0853H55.0719" stroke="#DDDDDD" stroke-width="2.24516" stroke-linecap="round"/>
</svg>
