<svg width="65" height="65" viewBox="0 0 65 65" fill="none" xmlns="http://www.w3.org/2000/svg">
<path fill-rule="evenodd" clip-rule="evenodd" d="M9.09394 34.7262C8.75875 35.3046 8.02266 35.5106 7.45088 35.1716L2.93575 32.539C2.36396 32.2 2.16022 31.4554 2.49541 30.877L11.7031 14.7492C11.8609 14.47 12.1237 14.2706 12.4326 14.1841C12.5378 14.1575 12.6429 14.1442 12.7481 14.1442C12.9584 14.1442 13.1622 14.1974 13.3462 14.3038L17.8613 16.9364C18.1373 17.0959 18.3345 17.3618 18.4199 17.6743C18.5054 17.9867 18.4594 18.3191 18.3016 18.5983L9.09394 34.7262ZM62.2897 31.7945C62.2042 32.1069 62.007 32.3728 61.731 32.5324L57.2159 35.165C56.6441 35.4973 55.9014 35.2979 55.5728 34.7195L46.3651 18.5983C46.2074 18.3191 46.1614 17.9867 46.2468 17.6743C46.3323 17.3618 46.5294 17.0959 46.8055 16.9364L51.3206 14.3038C51.8924 13.9647 52.635 14.1708 52.9636 14.7492L62.1714 30.8704C62.3357 31.1496 62.3751 31.482 62.2897 31.7945Z" fill="#008CF4"/>
<mask id="path-2-outside-1_3950_1348" maskUnits="userSpaceOnUse" x="0.333496" y="12.14" width="64" height="41" fill="black">
<rect fill="white" x="0.333496" y="12.14" width="64" height="41"/>
<path fill-rule="evenodd" clip-rule="evenodd" d="M9.09394 34.7262C8.75875 35.3046 8.02266 35.5106 7.45088 35.1716L2.93575 32.539C2.36396 32.2 2.16022 31.4554 2.49541 30.877L11.7031 14.7492C11.8609 14.47 12.1237 14.2706 12.4326 14.1841C12.5378 14.1575 12.6429 14.1442 12.7481 14.1442C12.9584 14.1442 13.1622 14.1974 13.3462 14.3038L17.8613 16.9364C18.1373 17.0959 18.3345 17.3618 18.4199 17.6743C18.5054 17.9867 18.4594 18.3191 18.3016 18.5983L9.09394 34.7262ZM17.1252 43.1956C16.6257 44.0466 15.5413 44.3324 14.6935 43.8405C14.2794 43.6012 13.9903 43.2089 13.8654 42.7436C13.7405 42.2782 13.8062 41.7863 14.0428 41.3741L16.6126 36.8735C16.9412 36.2951 17.5458 35.9694 18.1636 35.9694C18.466 35.9694 18.7749 36.0491 19.0509 36.2087C19.8987 36.7006 20.1945 37.8042 19.7147 38.6618L17.1252 43.1956ZM21.5418 45.795C21.0488 46.6459 19.9579 46.9384 19.11 46.4465C18.7026 46.2071 18.4068 45.8149 18.2819 45.3496C18.1571 44.8842 18.2228 44.3923 18.4594 43.9801L21.9755 37.8241C22.3041 37.2458 22.9088 36.92 23.5266 36.92C23.8289 36.92 24.1378 36.9998 24.4138 37.1593C25.2551 37.6513 25.5574 38.7548 25.0776 39.6124L21.5418 45.795ZM25.9649 48.3877C25.472 49.2519 24.3744 49.5444 23.5266 49.0458C23.1125 48.8065 22.8233 48.4143 22.6985 47.9489C22.5736 47.4835 22.6393 46.9916 22.8759 46.5794L26.8653 39.5925C27.3582 38.7282 28.4558 38.4357 29.3036 38.9343C30.158 39.4329 30.4471 40.5431 29.9542 41.4007L25.9649 48.3877ZM28.5938 50.5084C27.7525 50.0164 27.4502 48.9129 27.93 48.0553L30.5129 43.528C31.0058 42.6771 32.0968 42.3912 32.9446 42.8832C33.799 43.3818 34.0882 44.492 33.5953 45.3496L31.0255 49.8502C30.5457 50.7078 29.4482 51.0069 28.5938 50.5084ZM51.1957 39.6058C50.7028 40.47 49.6052 40.7625 48.7574 40.2639L42.5072 36.6142C42.1392 36.4015 41.666 36.5278 41.4557 36.9001C41.2453 37.2723 41.3702 37.751 41.7383 37.9637L46.398 40.6827C46.4045 40.6894 46.4177 40.696 46.4243 40.7027C47.2129 41.2146 47.4758 42.3048 47.0026 43.1225C46.766 43.5413 46.3783 43.8338 45.9182 43.9602C45.4581 44.0865 44.9718 44.02 44.5643 43.7807L39.9506 41.0882C39.5826 40.8755 39.1094 41.0018 38.8991 41.3741C38.6887 41.7464 38.8136 42.225 39.1817 42.4378L42.1655 44.1795C42.1655 44.1795 42.172 44.1795 42.172 44.1862C43.0067 44.6914 43.2959 45.7883 42.8095 46.6459C42.5729 47.0647 42.1852 47.3572 41.7251 47.4836C41.2651 47.6099 40.7787 47.5434 40.3712 47.3041L37.4006 45.5689C37.0325 45.3562 36.5593 45.4825 36.349 45.8548C36.1387 46.2271 36.2636 46.7057 36.6316 46.9185L37.9855 47.7096C37.9855 47.7096 37.9921 47.7162 37.9986 47.7162C38.8202 48.2215 39.1028 49.3184 38.6164 50.1627C38.3798 50.5748 37.9921 50.874 37.532 51.0003C37.072 51.1266 36.5856 51.0601 36.1781 50.8208L33.2404 49.1056L34.9426 46.1207C35.3829 45.3429 35.5012 44.4388 35.2712 43.5679C35.0411 42.6971 34.4891 41.9724 33.7267 41.527C33.0892 41.1547 32.3728 41.0218 31.6827 41.1015C31.7682 40.6162 31.755 40.111 31.6236 39.6191C31.3935 38.7482 30.8415 38.0236 30.0791 37.5782C29.3101 37.1327 28.4163 37.0131 27.5554 37.2458C27.2399 37.3322 26.9376 37.4651 26.6681 37.6313C26.4184 36.8868 25.9123 36.2286 25.1894 35.8032C23.8552 35.0254 22.2121 35.2913 21.1737 36.3416C20.8977 35.7367 20.4376 35.2115 19.8264 34.8525C18.2359 33.9284 16.1985 34.4802 15.285 36.0824L14.5292 37.412C13.425 36.3749 12.2749 34.5799 11.7294 33.2171L18.3608 21.5966C19.8133 22.3079 22.7116 23.4779 26.9047 24.0895L24.4204 26.6091C23.9735 27.0611 23.7698 27.6528 23.8289 28.2844C23.8946 28.9159 24.2167 29.4544 24.7424 29.8067C26.9704 31.2959 29.251 31.2227 30.8415 29.6139L32.9906 27.4401C34.213 28.9226 36.6448 31.3823 41.2716 31.6947L50.5516 37.1128C51.3995 37.6313 51.6886 38.7415 51.1957 39.6058ZM51.498 35.9029C51.4389 35.863 51.3732 35.8231 51.314 35.7832L41.8763 30.2721C41.7711 30.2123 41.6528 30.1724 41.5345 30.1657C36.8682 29.9065 34.6994 27.1476 33.7727 25.9642L33.6413 25.798C33.5032 25.6252 33.2995 25.5188 33.0826 25.5055C32.8657 25.4922 32.6488 25.5787 32.4977 25.7316L29.7439 28.517C28.2586 30.0195 26.3395 29.009 25.5837 28.5104C25.4457 28.4173 25.3734 28.2977 25.3537 28.1315C25.3339 27.9586 25.38 27.8323 25.4983 27.7126L30.526 22.6203C31.9128 21.2176 32.2611 21.2442 33.9107 21.3772H33.9304C35.4881 21.5035 36.8945 21.7827 38.255 22.0553C39.3985 22.2813 40.5815 22.514 41.8434 22.6602C42.9541 22.7865 43.9663 22.6403 44.8535 22.2215L46.2797 21.55L53.1937 33.6692C52.5627 34.6198 51.9712 35.3976 51.498 35.9029ZM62.2897 31.7945C62.2042 32.1069 62.007 32.3728 61.731 32.5324L57.2159 35.165C56.6441 35.4973 55.9014 35.2979 55.5728 34.7195L46.3651 18.5983C46.2074 18.3191 46.1614 17.9867 46.2468 17.6743C46.3323 17.3618 46.5294 17.0959 46.8055 16.9364L51.3206 14.3038C51.8924 13.9647 52.635 14.1708 52.9636 14.7492L62.1714 30.8704C62.3357 31.1496 62.3751 31.482 62.2897 31.7945Z"/>
</mask>
<path fill-rule="evenodd" clip-rule="evenodd" d="M9.09394 34.7262C8.75875 35.3046 8.02266 35.5106 7.45088 35.1716L2.93575 32.539C2.36396 32.2 2.16022 31.4554 2.49541 30.877L11.7031 14.7492C11.8609 14.47 12.1237 14.2706 12.4326 14.1841C12.5378 14.1575 12.6429 14.1442 12.7481 14.1442C12.9584 14.1442 13.1622 14.1974 13.3462 14.3038L17.8613 16.9364C18.1373 17.0959 18.3345 17.3618 18.4199 17.6743C18.5054 17.9867 18.4594 18.3191 18.3016 18.5983L9.09394 34.7262ZM17.1252 43.1956C16.6257 44.0466 15.5413 44.3324 14.6935 43.8405C14.2794 43.6012 13.9903 43.2089 13.8654 42.7436C13.7405 42.2782 13.8062 41.7863 14.0428 41.3741L16.6126 36.8735C16.9412 36.2951 17.5458 35.9694 18.1636 35.9694C18.466 35.9694 18.7749 36.0491 19.0509 36.2087C19.8987 36.7006 20.1945 37.8042 19.7147 38.6618L17.1252 43.1956ZM21.5418 45.795C21.0488 46.6459 19.9579 46.9384 19.11 46.4465C18.7026 46.2071 18.4068 45.8149 18.2819 45.3496C18.1571 44.8842 18.2228 44.3923 18.4594 43.9801L21.9755 37.8241C22.3041 37.2458 22.9088 36.92 23.5266 36.92C23.8289 36.92 24.1378 36.9998 24.4138 37.1593C25.2551 37.6513 25.5574 38.7548 25.0776 39.6124L21.5418 45.795ZM25.9649 48.3877C25.472 49.2519 24.3744 49.5444 23.5266 49.0458C23.1125 48.8065 22.8233 48.4143 22.6985 47.9489C22.5736 47.4835 22.6393 46.9916 22.8759 46.5794L26.8653 39.5925C27.3582 38.7282 28.4558 38.4357 29.3036 38.9343C30.158 39.4329 30.4471 40.5431 29.9542 41.4007L25.9649 48.3877ZM28.5938 50.5084C27.7525 50.0164 27.4502 48.9129 27.93 48.0553L30.5129 43.528C31.0058 42.6771 32.0968 42.3912 32.9446 42.8832C33.799 43.3818 34.0882 44.492 33.5953 45.3496L31.0255 49.8502C30.5457 50.7078 29.4482 51.0069 28.5938 50.5084ZM51.1957 39.6058C50.7028 40.47 49.6052 40.7625 48.7574 40.2639L42.5072 36.6142C42.1392 36.4015 41.666 36.5278 41.4557 36.9001C41.2453 37.2723 41.3702 37.751 41.7383 37.9637L46.398 40.6827C46.4045 40.6894 46.4177 40.696 46.4243 40.7027C47.2129 41.2146 47.4758 42.3048 47.0026 43.1225C46.766 43.5413 46.3783 43.8338 45.9182 43.9602C45.4581 44.0865 44.9718 44.02 44.5643 43.7807L39.9506 41.0882C39.5826 40.8755 39.1094 41.0018 38.8991 41.3741C38.6887 41.7464 38.8136 42.225 39.1817 42.4378L42.1655 44.1795C42.1655 44.1795 42.172 44.1795 42.172 44.1862C43.0067 44.6914 43.2959 45.7883 42.8095 46.6459C42.5729 47.0647 42.1852 47.3572 41.7251 47.4836C41.2651 47.6099 40.7787 47.5434 40.3712 47.3041L37.4006 45.5689C37.0325 45.3562 36.5593 45.4825 36.349 45.8548C36.1387 46.2271 36.2636 46.7057 36.6316 46.9185L37.9855 47.7096C37.9855 47.7096 37.9921 47.7162 37.9986 47.7162C38.8202 48.2215 39.1028 49.3184 38.6164 50.1627C38.3798 50.5748 37.9921 50.874 37.532 51.0003C37.072 51.1266 36.5856 51.0601 36.1781 50.8208L33.2404 49.1056L34.9426 46.1207C35.3829 45.3429 35.5012 44.4388 35.2712 43.5679C35.0411 42.6971 34.4891 41.9724 33.7267 41.527C33.0892 41.1547 32.3728 41.0218 31.6827 41.1015C31.7682 40.6162 31.755 40.111 31.6236 39.6191C31.3935 38.7482 30.8415 38.0236 30.0791 37.5782C29.3101 37.1327 28.4163 37.0131 27.5554 37.2458C27.2399 37.3322 26.9376 37.4651 26.6681 37.6313C26.4184 36.8868 25.9123 36.2286 25.1894 35.8032C23.8552 35.0254 22.2121 35.2913 21.1737 36.3416C20.8977 35.7367 20.4376 35.2115 19.8264 34.8525C18.2359 33.9284 16.1985 34.4802 15.285 36.0824L14.5292 37.412C13.425 36.3749 12.2749 34.5799 11.7294 33.2171L18.3608 21.5966C19.8133 22.3079 22.7116 23.4779 26.9047 24.0895L24.4204 26.6091C23.9735 27.0611 23.7698 27.6528 23.8289 28.2844C23.8946 28.9159 24.2167 29.4544 24.7424 29.8067C26.9704 31.2959 29.251 31.2227 30.8415 29.6139L32.9906 27.4401C34.213 28.9226 36.6448 31.3823 41.2716 31.6947L50.5516 37.1128C51.3995 37.6313 51.6886 38.7415 51.1957 39.6058ZM51.498 35.9029C51.4389 35.863 51.3732 35.8231 51.314 35.7832L41.8763 30.2721C41.7711 30.2123 41.6528 30.1724 41.5345 30.1657C36.8682 29.9065 34.6994 27.1476 33.7727 25.9642L33.6413 25.798C33.5032 25.6252 33.2995 25.5188 33.0826 25.5055C32.8657 25.4922 32.6488 25.5787 32.4977 25.7316L29.7439 28.517C28.2586 30.0195 26.3395 29.009 25.5837 28.5104C25.4457 28.4173 25.3734 28.2977 25.3537 28.1315C25.3339 27.9586 25.38 27.8323 25.4983 27.7126L30.526 22.6203C31.9128 21.2176 32.2611 21.2442 33.9107 21.3772H33.9304C35.4881 21.5035 36.8945 21.7827 38.255 22.0553C39.3985 22.2813 40.5815 22.514 41.8434 22.6602C42.9541 22.7865 43.9663 22.6403 44.8535 22.2215L46.2797 21.55L53.1937 33.6692C52.5627 34.6198 51.9712 35.3976 51.498 35.9029ZM62.2897 31.7945C62.2042 32.1069 62.007 32.3728 61.731 32.5324L57.2159 35.165C56.6441 35.4973 55.9014 35.2979 55.5728 34.7195L46.3651 18.5983C46.2074 18.3191 46.1614 17.9867 46.2468 17.6743C46.3323 17.3618 46.5294 17.0959 46.8055 16.9364L51.3206 14.3038C51.8924 13.9647 52.635 14.1708 52.9636 14.7492L62.1714 30.8704C62.3357 31.1496 62.3751 31.482 62.2897 31.7945Z" stroke="#3D4865" stroke-width="2.6" mask="url(#path-2-outside-1_3950_1348)"/>
<rect x="5.3335" y="28.14" width="4" height="4" rx="2" fill="white" stroke="#3D4865" stroke-width="1.3"/>
<rect x="55.3335" y="28.14" width="4" height="4" rx="2" fill="white" stroke="#3D4865" stroke-width="1.3"/>
</svg>
