<svg width="65" height="65" viewBox="0 0 65 65" fill="none" xmlns="http://www.w3.org/2000/svg">
<path d="M7.54004 21.2278L12.0481 21.2278" stroke="#DDE1E9" stroke-width="1.3" stroke-linecap="round" stroke-linejoin="round"/>
<path d="M6.44385 4.75027L9.66203 4.75028" stroke="#DDE1E9" stroke-width="1.3" stroke-linecap="round" stroke-linejoin="round"/>
<path d="M17.7744 38.0714H29.6637" stroke="#3D4865" stroke-width="1.3" stroke-linecap="round" stroke-linejoin="round"/>
<path d="M15.46 38.0714L7.54036 38.0714" stroke="#3D4865" stroke-width="1.3" stroke-linecap="round" stroke-linejoin="round"/>
<path d="M21.4297 43.4419L31.9079 43.4419" stroke="#3D4865" stroke-width="1.3" stroke-linecap="round" stroke-linejoin="round"/>
<path d="M26.6689 49.3006L33.0046 49.3006" stroke="#3D4865" stroke-width="1.3" stroke-linecap="round" stroke-linejoin="round"/>
<path d="M18.2622 49.3006L24.5979 49.3006" stroke="#3D4865" stroke-width="1.3" stroke-linecap="round" stroke-linejoin="round"/>
<path d="M26.3037 55.2813L32.6394 55.2813" stroke="#3D4865" stroke-width="1.3" stroke-linecap="round" stroke-linejoin="round"/>
<path d="M29.5259 60.5297L34.3532 60.5297" stroke="#3D4865" stroke-width="1.3" stroke-linecap="round" stroke-linejoin="round"/>
<path d="M2.6665 26.7203L5.83435 26.7203" stroke="#3D4865" stroke-width="1.3" stroke-linecap="round" stroke-linejoin="round"/>
<path d="M8.271 10.2428L16.4343 10.2428" stroke="#3D4865" stroke-width="1.3" stroke-linecap="round" stroke-linejoin="round"/>
<path d="M11.9263 4.75027L28.9839 4.75029" stroke="#3D4865" stroke-width="1.3" stroke-linecap="round" stroke-linejoin="round"/>
<path d="M5.88916 15.7353L13.3214 15.7353" stroke="#3D4865" stroke-width="1.3" stroke-linecap="round" stroke-linejoin="round"/>
<path d="M8.271 26.7203L12.9009 26.7203" stroke="#3D4865" stroke-width="1.3" stroke-linecap="round" stroke-linejoin="round"/>
<path d="M2.6665 21.2278L5.59067 21.2278" stroke="#3D4865" stroke-width="1.3" stroke-linecap="round" stroke-linejoin="round"/>
<path d="M4.25049 32.2128L9.34591 32.2128" stroke="#DDE1E9" stroke-width="1.3" stroke-linecap="round" stroke-linejoin="round"/>
<path d="M11.5742 32.2128L16.0016 32.2414" stroke="#3D4865" stroke-width="1.3" stroke-linecap="round" stroke-linejoin="round"/>
<rect x="32.6129" y="29.8114" width="29.4037" height="30.6786" rx="14.7019" fill="#008CF4" stroke="#3D4865" stroke-width="1.3"/>
<path d="M37.3896 55.2623L47.1464 35.1504" stroke="white" stroke-width="1.3" stroke-linecap="round"/>
<path d="M56.7153 55.2623L47.1462 35.1504" stroke="white" stroke-width="1.3" stroke-linecap="round"/>
<path d="M40.8569 48.4462H53.1628" stroke="white" stroke-width="1.3" stroke-linecap="round"/>
<path d="M45.8117 21.4109C45.8117 30.5914 38.3829 38.0317 29.2213 38.0317C20.0598 38.0317 12.631 30.5914 12.631 21.4109C12.631 12.2303 20.0598 4.79001 29.2213 4.79001C38.3829 4.79001 45.8117 12.2303 45.8117 21.4109Z" fill="#D9D9D9" stroke="#3D4865" stroke-width="1.3"/>
<path fill-rule="evenodd" clip-rule="evenodd" d="M30.2356 13.6714C30.2386 13.6384 30.2402 13.605 30.2402 13.5712V12.8078C30.2402 12.2204 29.764 11.7441 29.1765 11.7441C28.589 11.7441 28.1128 12.2204 28.1128 12.8078V13.5712C28.1128 13.605 28.1143 13.6384 28.1174 13.6714H21.2328C20.5676 13.6714 20.0283 14.2106 20.0283 14.8759C20.0283 15.5411 20.5676 16.0804 21.2328 16.0804H22.5178C22.5222 16.1681 22.5356 16.2585 22.5589 16.3508C22.8179 17.3754 23.2133 18.6621 23.7875 19.8972C24.6872 21.8327 25.8012 23.8661 26.9654 25.1168C27.0617 25.2203 27.1622 25.3243 27.2663 25.4285C25.4756 26.8891 23.3783 28.1262 22.0933 28.8311C21.4818 29.1665 21.252 30.0323 21.6293 30.6356C21.9155 31.0933 22.4614 31.2422 22.921 30.9779C24.215 30.2337 26.845 28.6565 29.0004 26.9506C31.1558 28.6565 33.7858 30.2337 35.0798 30.9779C35.5394 31.2422 36.0853 31.0933 36.3715 30.6356C36.7488 30.0323 36.519 29.1665 35.9076 28.8311C34.6225 28.1262 32.5252 26.8891 30.7345 25.4285C30.8386 25.3243 30.9391 25.2203 31.0354 25.1168C32.1996 23.8661 33.3136 21.8327 34.2133 19.8972C34.7875 18.6621 35.1829 17.3754 35.4419 16.3508C35.4652 16.2585 35.4786 16.1681 35.483 16.0804H37.12C37.7852 16.0804 38.3245 15.5411 38.3245 14.8759C38.3245 14.2106 37.7852 13.6714 37.12 13.6714H30.2356ZM33.2519 16.0804H24.7489C25.0326 16.9758 25.4959 18.3631 25.9015 19.2311C26.5394 20.5964 27.4646 21.9985 28.7382 23.5108C28.8227 23.611 28.9101 23.7108 29.0004 23.8103C29.0907 23.7108 29.1781 23.611 29.2626 23.5108C30.5362 21.9985 31.4614 20.5964 32.0993 19.2311C32.5049 18.3631 32.9682 16.9758 33.2519 16.0804Z" fill="#3D4865"/>
</svg>
