<svg width="65" height="64" viewBox="0 0 65 64" fill="none" xmlns="http://www.w3.org/2000/svg">
<rect x="11.0127" y="26.275" width="44.9057" height="8.21459" fill="#E6EAF3"/>
<rect x="10.8201" y="26.2148" width="45.4162" height="28.6222" stroke="#3D4865" stroke-width="1.12463"/>
<rect x="27.1727" y="14.3903" width="12.8376" height="40.4462" fill="#008BF2" stroke="#3D4865" stroke-width="1.12463"/>
<rect x="8.73077" y="14.3466" width="49.8478" height="11.4028" rx="1.79941" stroke="#3D4865" stroke-width="1.12463"/>
<rect x="27.4241" y="6.05157" width="12.5861" height="8.70799" rx="1.79941" fill="#008BF2" stroke="#3D4865" stroke-width="1.12463"/>
<path d="M39.4993 7.41362C39.4993 6.56322 40.0947 5.82893 40.9267 5.65309L48.0271 4.15249C49.1459 3.91605 50.1986 4.76951 50.1986 5.91302V12.9602C50.1986 13.9539 49.393 14.7596 48.3992 14.7596H41.2987C40.305 14.7596 39.4993 13.9539 39.4993 12.9602V7.41362Z" fill="#008BF2" stroke="#3D4865" stroke-width="1.12463"/>
<path d="M27.8088 7.41778C27.8088 6.56595 27.2115 5.83083 26.3777 5.65647L19.1515 4.14537C18.0337 3.91163 16.9837 4.76474 16.9837 5.90668V12.9602C16.9837 13.954 17.7894 14.7596 18.7831 14.7596H26.0094C27.0032 14.7596 27.8088 13.9539 27.8088 12.9602V7.41778Z" fill="#008BF2" stroke="#3D4865" stroke-width="1.12463"/>
</svg>
