<svg width="65" height="64" viewBox="0 0 65 64" fill="none" xmlns="http://www.w3.org/2000/svg">
<g id="Frame 298">
<g id="Group 180">
<g id="Group 178">
<path id="Vector 115" d="M49.6879 6.66745L49.6887 6.66583L49.6888 6.66567L49.6888 6.66557C49.6888 6.66555 49.6888 6.66553 49.6889 6.66551C49.8046 6.42956 50.0515 6.28844 50.314 6.30822C50.5766 6.32802 50.8028 6.50495 50.8866 6.75612L50.2715 6.95754C50.8866 6.75612 50.8867 6.75628 50.8867 6.75646L50.8868 6.75687L50.8872 6.75792L50.8882 6.76089L50.8913 6.77033L50.9017 6.80288C50.9104 6.83056 50.9226 6.87005 50.9376 6.9205C50.9675 7.02138 51.0085 7.16629 51.0547 7.34833C51.147 7.71198 51.2608 8.22633 51.3488 8.83579C51.5234 10.0454 51.6028 11.6742 51.1749 13.2518C50.7581 14.7879 49.9634 16.3731 49.2895 17.5549C49.2726 17.5846 49.2557 17.6141 49.2389 17.6433C49.3445 17.6027 49.4534 17.562 49.5656 17.5216C51.0337 16.9929 53.0786 16.4965 55.342 16.6622C57.7055 16.8353 59.1679 18.0004 60.0252 19.129C60.4491 19.687 60.7234 20.2324 60.8923 20.6392C60.9771 20.8432 61.0361 21.0143 61.0747 21.1373C61.094 21.1989 61.1082 21.2486 61.118 21.2845C61.1229 21.3025 61.1267 21.3171 61.1295 21.3281L61.1329 21.3417L61.134 21.3464L61.1344 21.3483L61.1346 21.349C61.1347 21.3494 61.1348 21.3497 60.5035 21.4942L61.1348 21.3497C61.1974 21.6147 61.0898 21.8892 60.8649 22.0384C60.6401 22.1876 60.3454 22.1802 60.1254 22.0198L60.1252 22.0197L60.1245 22.0192L60.1193 22.0154L60.0958 21.9986C60.0744 21.9833 60.0417 21.9603 59.9987 21.9306C59.9127 21.8712 59.7856 21.7852 59.6248 21.6815C59.3026 21.4737 58.8483 21.1968 58.3207 20.9205C57.2405 20.3549 55.9504 19.8446 54.8759 19.8446C53.8138 19.8446 52.3573 19.9961 51.0512 20.1682C52.19 20.6683 53.5066 21.4653 54.7258 22.7324C56.2987 24.367 56.5704 25.9591 56.3885 27.1759C56.3 27.7681 56.1078 28.2499 55.9377 28.5844C55.8524 28.7522 55.7716 28.8852 55.7099 28.9788C55.6791 29.0257 55.6529 29.063 55.6331 29.0902C55.6233 29.1038 55.615 29.1148 55.6086 29.1233L55.6003 29.1341L55.5973 29.138L55.596 29.1396L55.5954 29.1403C55.5952 29.1406 55.5949 29.1409 55.0854 28.733L55.5949 29.1409C55.4434 29.3324 55.1965 29.421 54.9565 29.3699C54.7167 29.3189 54.5247 29.137 54.4598 28.8997L54.4597 28.8993L54.459 28.8968L54.4534 28.8777C54.4481 28.8595 54.4394 28.8307 54.4272 28.7924C54.4028 28.7157 54.3644 28.601 54.3104 28.4564C54.2022 28.1668 54.0326 27.7601 53.7895 27.3008C53.3002 26.3764 52.531 25.2722 51.3977 24.4647C50.1844 23.6001 48.759 22.7773 47.6279 22.1669C47.0642 21.8627 46.5775 21.6133 46.2322 21.4402C46.0596 21.3537 45.9224 21.2863 45.8289 21.2408C45.7821 21.218 45.7463 21.2007 45.7223 21.1892L45.6955 21.1763L45.6936 21.1755L45.6745 21.167C45.6565 21.1591 45.6287 21.147 45.5915 21.1313C45.5171 21.0997 45.4056 21.0533 45.2606 20.9959C44.9706 20.8812 44.5478 20.7227 44.0229 20.5509C42.9713 20.2067 41.5203 19.8122 39.9144 19.6053C38.3804 19.4077 36.8467 19.6918 35.6758 20.0395C35.0945 20.2122 34.6125 20.3976 34.2775 20.539C34.1102 20.6096 33.9802 20.669 33.8934 20.71C33.85 20.7305 33.8175 20.7464 33.7966 20.7567L33.7741 20.768L33.7696 20.7703L33.7696 20.7703L33.7693 20.7704L33.7693 20.7705C33.7692 20.7705 33.7692 20.7705 33.7691 20.7705C33.5189 20.8996 33.2127 20.8507 33.0119 20.6495C32.8109 20.4482 32.7617 20.1407 32.8902 19.8893L33.4681 20.1909C32.8902 19.8893 32.8904 19.8891 32.8905 19.8888L32.8908 19.8882L32.8916 19.8868L32.8935 19.883L32.8993 19.872C32.904 19.8631 32.9104 19.8512 32.9184 19.8364C32.9346 19.8069 32.9577 19.7659 32.9876 19.7151C33.0474 19.6135 33.1351 19.4723 33.2514 19.3044C33.4834 18.9695 33.8326 18.5236 34.305 18.0744C35.2499 17.176 36.7139 16.2425 38.7242 16.2027C39.867 16.1801 40.9677 16.3572 41.9466 16.6143L34.9545 10.726C34.7496 10.5534 34.6694 10.2737 34.7522 10.0205C34.835 9.76735 35.064 9.5921 35.3298 9.57854L35.3688 10.2288C35.3298 9.57854 35.3301 9.57852 35.3304 9.57851L35.3311 9.57847L35.3327 9.57839L35.3368 9.57821L35.3489 9.57772C35.3587 9.57735 35.3718 9.57694 35.3882 9.57657C35.421 9.57583 35.4667 9.57527 35.5247 9.57571C35.6406 9.5766 35.8054 9.58148 36.0122 9.5969C36.4256 9.62772 37.0085 9.70074 37.7059 9.86878C39.1013 10.205 40.9574 10.9226 42.8249 12.4437C44.1265 13.5038 45.0138 14.5958 45.618 15.5736C45.7599 13.9997 46.1368 12.1072 47.1056 10.7494C48.0396 9.44036 48.6891 8.41188 49.1032 7.7145C49.3103 7.3658 49.4585 7.09985 49.554 6.92297C49.6018 6.83453 49.6364 6.76836 49.6586 6.72524C49.6697 6.70368 49.6777 6.68788 49.6826 6.67795L49.6879 6.66745Z" fill="#DDE1E9" stroke="#3D4865" stroke-width="1.3" stroke-linejoin="round"/>
<path id="Vector 116" d="M32.0819 27.3181C36.4985 21.4647 45.9507 19.21 45.9507 19.21C45.9507 19.21 37.5788 26.1946 35.6423 29.8822C33.7058 33.5699 34.5003 38.7668 34.5003 38.7668C34.5003 38.7668 33.3302 40.8144 30.7392 40.6055C28.1483 40.3965 28.4536 38.3773 28.4536 38.3773C28.4536 38.3773 27.6652 33.1715 32.0819 27.3181Z" fill="white" stroke="#3D4865" stroke-width="1.3"/>
<path id="Vector 117" d="M30.3717 34.8732C30.0757 34.6702 30.0002 34.2656 30.2033 33.9695C30.4063 33.6735 30.8109 33.5981 31.107 33.8011L30.3717 34.8732ZM34.584 34.9708C34.7682 35.5941 34.768 35.5942 34.7678 35.5942C34.7677 35.5943 34.7675 35.5943 34.7674 35.5944C34.7671 35.5944 34.7668 35.5945 34.7665 35.5946C34.7659 35.5948 34.7652 35.595 34.7644 35.5952C34.763 35.5957 34.7613 35.5961 34.7593 35.5967C34.7555 35.5978 34.7507 35.5991 34.7451 35.6007C34.7338 35.6038 34.719 35.6077 34.7008 35.6122C34.6645 35.6213 34.6147 35.633 34.5525 35.6455C34.4283 35.6705 34.2541 35.6993 34.0396 35.7183C33.6116 35.7562 33.0166 35.756 32.3371 35.6054L32.6185 34.3362C33.1425 34.4523 33.6006 34.4521 33.9248 34.4234C34.0864 34.409 34.2131 34.3878 34.2957 34.3711C34.337 34.3628 34.3671 34.3557 34.3849 34.3512C34.3937 34.349 34.3995 34.3474 34.402 34.3467C34.4033 34.3464 34.4038 34.3463 34.4034 34.3464C34.4032 34.3464 34.4028 34.3465 34.4022 34.3467C34.4019 34.3468 34.4015 34.3469 34.4011 34.347C34.4009 34.3471 34.4007 34.3471 34.4005 34.3472C34.4004 34.3472 34.4002 34.3473 34.4001 34.3473C34.3999 34.3474 34.3998 34.3474 34.584 34.9708ZM32.3371 35.6054C31.6935 35.4627 31.2183 35.2909 30.8954 35.1489C30.7341 35.0779 30.6111 35.0144 30.5245 34.966C30.4812 34.9417 30.4469 34.9213 30.4216 34.9055C30.4089 34.8976 30.3984 34.8909 30.3901 34.8855C30.3859 34.8828 30.3823 34.8804 30.3793 34.8783C30.3778 34.8773 30.3764 34.8764 30.3751 34.8755C30.3745 34.8751 30.3739 34.8747 30.3733 34.8743C30.373 34.8741 30.3727 34.8739 30.3725 34.8737C30.3724 34.8737 30.3722 34.8735 30.3721 34.8735C30.3719 34.8733 30.3717 34.8732 30.7393 34.3372C31.107 33.8011 31.1068 33.801 31.1066 33.8009C31.1065 33.8008 31.1063 33.8007 31.1062 33.8006C31.106 33.8004 31.1058 33.8003 31.1056 33.8001C31.1051 33.7999 31.1047 33.7996 31.1044 33.7993C31.1036 33.7988 31.103 33.7984 31.1025 33.7981C31.1016 33.7975 31.1011 33.7972 31.1012 33.7972C31.1013 33.7973 31.1035 33.7987 31.1078 33.8014C31.1164 33.8067 31.1333 33.817 31.159 33.8313C31.2102 33.86 31.2962 33.9049 31.419 33.959C31.6645 34.067 32.0586 34.2121 32.6185 34.3362L32.3371 35.6054Z" fill="#3D4865"/>
<path id="Vector 118" d="M33.1497 27.7987C32.9599 27.491 33.0518 27.0897 33.3549 26.9023C33.6581 26.7148 34.0578 26.8124 34.2476 27.12L33.1497 27.7987ZM36.2761 28.8387C36.3593 29.4866 36.3591 29.4867 36.3588 29.4867C36.3587 29.4867 36.3585 29.4867 36.3583 29.4868C36.3579 29.4868 36.3575 29.4869 36.3572 29.4869C36.3564 29.487 36.3556 29.4871 36.3547 29.4872C36.353 29.4874 36.3511 29.4876 36.349 29.4878C36.3448 29.4882 36.3399 29.4887 36.3343 29.4892C36.3231 29.4903 36.3091 29.4914 36.2924 29.4924C36.259 29.4945 36.2148 29.4963 36.1612 29.4964C36.0542 29.4965 35.9082 29.4896 35.7342 29.4636C35.3862 29.4116 34.9212 29.282 34.4357 28.9751L35.1146 27.8725C35.4183 28.0645 35.7038 28.1425 35.9089 28.1732C36.0116 28.1885 36.0928 28.1918 36.1439 28.1918C36.1693 28.1917 36.1869 28.1909 36.1955 28.1903C36.1999 28.1901 36.2019 28.1899 36.2015 28.1899C36.2013 28.1899 36.2005 28.19 36.199 28.1901C36.1983 28.1902 36.1974 28.1903 36.1964 28.1904C36.1959 28.1905 36.1953 28.1905 36.1947 28.1906C36.1944 28.1907 36.1941 28.1907 36.1938 28.1907C36.1936 28.1907 36.1934 28.1908 36.1933 28.1908C36.1931 28.1908 36.1928 28.1908 36.2761 28.8387ZM34.4357 28.9751C33.9929 28.6952 33.6822 28.4191 33.4765 28.2033C33.3738 28.0956 33.2975 28.0032 33.2442 27.9334C33.2176 27.8985 33.1967 27.8692 33.1811 27.8465C33.1733 27.8351 33.1668 27.8254 33.1616 27.8174C33.159 27.8134 33.1567 27.8098 33.1547 27.8067C33.1537 27.8051 33.1528 27.8037 33.152 27.8024C33.1516 27.8017 33.1512 27.801 33.1508 27.8004C33.1506 27.8001 33.1504 27.7998 33.1503 27.7995C33.1502 27.7994 33.15 27.7992 33.15 27.7991C33.1499 27.7989 33.1497 27.7987 33.6987 27.4594C34.2476 27.12 34.2475 27.1198 34.2473 27.1196C34.2473 27.1196 34.2472 27.1194 34.2471 27.1192C34.2469 27.119 34.2468 27.1187 34.2466 27.1185C34.2463 27.118 34.246 27.1175 34.2458 27.1171C34.2452 27.1162 34.2447 27.1154 34.2443 27.1148C34.2435 27.1134 34.2429 27.1125 34.2426 27.1121C34.242 27.1111 34.2424 27.1119 34.244 27.1142C34.2472 27.1189 34.2549 27.1298 34.2675 27.1464C34.2928 27.1794 34.3376 27.2346 34.4053 27.3056C34.5405 27.4474 34.768 27.6534 35.1146 27.8725L34.4357 28.9751Z" fill="#3D4865"/>
<path id="Vector 119" d="M35.8168 25.1956C35.7849 24.8335 36.0455 24.5168 36.3989 24.4881C36.7522 24.4595 37.0644 24.7297 37.0963 25.0918L35.8168 25.1956ZM37.8176 26.8012C37.7862 27.4576 37.7859 27.4576 37.7856 27.4576C37.7855 27.4576 37.7852 27.4575 37.7849 27.4575C37.7845 27.4575 37.7841 27.4575 37.7836 27.4574C37.7827 27.4574 37.7818 27.4573 37.7808 27.4572C37.7788 27.4571 37.7767 27.457 37.7745 27.4568C37.77 27.4564 37.7649 27.456 37.7593 27.4555C37.748 27.4544 37.7345 27.4529 37.719 27.4509C37.6881 27.4469 37.6487 27.4405 37.6024 27.4306C37.5103 27.411 37.3887 27.3767 37.2516 27.3166C36.9741 27.1951 36.6362 26.9691 36.3603 26.5603L37.4147 25.8208C37.5286 25.9896 37.6557 26.0688 37.7458 26.1083C37.7925 26.1287 37.8304 26.1388 37.8518 26.1434C37.8623 26.1456 37.8682 26.1464 37.8683 26.1464C37.8683 26.1464 37.8668 26.1462 37.8637 26.1459C37.8621 26.1458 37.8601 26.1456 37.8577 26.1454C37.8565 26.1453 37.8551 26.1452 37.8537 26.1451C37.853 26.145 37.8522 26.145 37.8515 26.1449C37.8511 26.1449 37.8507 26.1449 37.8503 26.1449C37.8501 26.1449 37.8498 26.1448 37.8497 26.1448C37.8494 26.1448 37.849 26.1448 37.8176 26.8012ZM36.3603 26.5603C36.1243 26.2106 35.9901 25.8879 35.9141 25.6441C35.8762 25.5223 35.8527 25.42 35.8383 25.3434C35.8312 25.3051 35.8262 25.2731 35.8228 25.2483C35.8212 25.2358 35.8199 25.2252 35.8189 25.2163C35.8184 25.2119 35.818 25.208 35.8176 25.2045C35.8175 25.2028 35.8173 25.2012 35.8172 25.1997C35.8171 25.1989 35.817 25.1982 35.817 25.1975C35.8169 25.1972 35.8169 25.1968 35.8169 25.1965C35.8169 25.1964 35.8168 25.1961 35.8168 25.196C35.8168 25.1958 35.8168 25.1956 36.4565 25.1437C37.0963 25.0918 37.0962 25.0915 37.0962 25.0913C37.0962 25.0912 37.0962 25.091 37.0962 25.0908C37.0962 25.0905 37.0961 25.0902 37.0961 25.09C37.0961 25.0894 37.096 25.0888 37.096 25.0883C37.0959 25.0873 37.0958 25.0863 37.0957 25.0855C37.0955 25.0839 37.0954 25.0826 37.0953 25.0818C37.0951 25.0801 37.0951 25.0801 37.0953 25.0816C37.0957 25.0847 37.097 25.0939 37.0998 25.1086C37.1053 25.1381 37.1166 25.1893 37.1377 25.257C37.1798 25.3923 37.261 25.593 37.4147 25.8208L36.3603 26.5603Z" fill="#3D4865"/>
<path id="Vector 120" d="M31.4859 31.5482C31.1799 31.3605 31.084 30.9603 31.2717 30.6543C31.4594 30.3483 31.8596 30.2524 32.1656 30.4401L31.4859 31.5482ZM35.1689 31.487C35.3351 32.1154 35.3349 32.1154 35.3347 32.1155C35.3346 32.1155 35.3345 32.1155 35.3343 32.1156C35.3341 32.1156 35.3338 32.1157 35.3335 32.1158C35.3329 32.1159 35.3323 32.1161 35.3316 32.1163C35.3303 32.1166 35.3288 32.117 35.327 32.1174C35.3236 32.1183 35.3194 32.1194 35.3144 32.1206C35.3044 32.1231 35.2913 32.1261 35.2753 32.1297C35.2434 32.1369 35.1997 32.146 35.1452 32.1558C35.0365 32.1754 34.8843 32.1979 34.6971 32.2127C34.3236 32.2423 33.8045 32.2422 33.2111 32.1245L33.4639 30.8494C33.917 30.9392 34.3136 30.9391 34.5943 30.9168C34.7341 30.9057 34.8435 30.8893 34.9146 30.8764C34.9502 30.87 34.9759 30.8646 34.991 30.8612C34.9985 30.8595 35.0034 30.8583 35.0054 30.8579C35.0064 30.8576 35.0067 30.8575 35.0063 30.8576C35.0061 30.8577 35.0057 30.8578 35.0051 30.8579C35.0048 30.858 35.0045 30.8581 35.0041 30.8582C35.0039 30.8583 35.0037 30.8583 35.0035 30.8584C35.0034 30.8584 35.0032 30.8584 35.0032 30.8584C35.003 30.8585 35.0028 30.8585 35.1689 31.487ZM33.2111 32.1245C32.6498 32.0133 32.2345 31.8791 31.9511 31.7676C31.8095 31.7118 31.701 31.6618 31.624 31.6233C31.5855 31.604 31.5549 31.5877 31.532 31.5749C31.5205 31.5685 31.5109 31.5631 31.5033 31.5586C31.4994 31.5563 31.4961 31.5543 31.4932 31.5526C31.4917 31.5518 31.4904 31.5509 31.4892 31.5502C31.4886 31.5498 31.488 31.5495 31.4875 31.5492C31.4872 31.549 31.4869 31.5488 31.4867 31.5487C31.4865 31.5486 31.4863 31.5485 31.4863 31.5484C31.4861 31.5483 31.4859 31.5482 31.8258 30.9941C32.1656 30.4401 32.1655 30.44 32.1653 30.4398C32.1652 30.4398 32.165 30.4397 32.1649 30.4396C32.1647 30.4395 32.1645 30.4394 32.1642 30.4392C32.1638 30.439 32.1634 30.4387 32.163 30.4385C32.1623 30.438 32.1616 30.4376 32.1611 30.4373C32.16 30.4367 32.1594 30.4363 32.1592 30.4362C32.1589 30.436 32.1603 30.4369 32.1636 30.4387C32.1702 30.4423 32.1841 30.4499 32.2056 30.4606C32.2485 30.4821 32.3218 30.5164 32.4272 30.5579C32.638 30.6409 32.9786 30.7531 33.4639 30.8494L33.2111 32.1245Z" fill="#3D4865"/>
<path id="Ellipse 88" d="M45.4076 22.7852C44.2955 22.7852 43.4622 21.8379 43.4622 20.7562C43.4622 19.6745 44.2955 18.7272 45.4076 18.7272C46.5198 18.7272 47.3531 19.6745 47.3531 20.7562C47.3531 21.8379 46.5198 22.7852 45.4076 22.7852Z" fill="#008CF4" stroke="#3D4865" stroke-width="1.3"/>
<ellipse id="Ellipse 89" cx="0.208948" cy="0.250729" rx="0.208948" ry="0.250729" transform="matrix(-1 0 0 1 45.2822 19.6277)" fill="#3D4865"/>
<ellipse id="Ellipse 90" cx="0.250738" cy="0.250729" rx="0.250738" ry="0.250729" transform="matrix(-1 0 0 1 45.5327 20.2964)" fill="#3D4865"/>
<ellipse id="Ellipse 91" cx="0.250738" cy="0.250729" rx="0.250738" ry="0.250729" transform="matrix(-1 0 0 1 44.7803 20.2131)" fill="#3D4865"/>
</g>
<path id="Vector 124" d="M61.0363 36.6054C61.1261 36.2578 60.9171 35.9033 60.5695 35.8135C60.2219 35.7238 59.8674 35.9328 59.7776 36.2803L61.0363 36.6054ZM35.7511 36.4429L36.3602 36.216L35.688 34.4117L35.1291 36.2542L35.7511 36.4429ZM44.2344 36.4429L44.8478 36.2278L44.1701 34.2951L43.6092 36.2649L44.2344 36.4429ZM52.3207 36.4429L52.9394 36.2435L52.306 34.2781L51.6994 36.2519L52.3207 36.4429ZM35.1291 36.2542C34.3176 38.929 32.6777 39.8372 31.363 39.7448C30.0277 39.651 28.6838 38.5123 28.4574 36.3744L27.1646 36.5113C27.4453 39.1617 29.1998 40.896 31.2719 41.0416C33.3647 41.1886 35.4414 39.7026 36.3731 36.6316L35.1291 36.2542ZM43.6092 36.2649C43.2117 37.6609 42.6294 38.5476 42.0112 39.0619C41.4032 39.5679 40.7261 39.7441 40.0462 39.6676C38.6529 39.511 37.1201 38.2558 36.3602 36.216L35.142 36.6698C36.0189 39.0239 37.8838 40.7327 39.901 40.9595C40.9264 41.0748 41.9577 40.7976 42.8427 40.0613C43.7176 39.3333 44.4131 38.1888 44.8595 36.6209L43.6092 36.2649ZM59.7776 36.2803C59.187 38.5673 57.7607 39.4537 56.456 39.4152C55.1133 39.3757 53.6196 38.3543 52.9394 36.2435L51.702 36.6422C52.5146 39.1637 54.4149 40.6556 56.4177 40.7147C58.4584 40.7748 60.3288 39.345 61.0363 36.6054L59.7776 36.2803ZM51.6994 36.2519C51.0005 38.5259 49.6185 39.5624 48.3928 39.6055C47.1861 39.6479 45.7272 38.736 44.8478 36.2278L43.621 36.6579C44.6028 39.458 46.4405 40.9749 48.4385 40.9047C50.4173 40.8351 52.1479 39.2174 52.942 36.6338L51.6994 36.2519Z" fill="#008CF4"/>
<path id="Vector 125" d="M61.0363 50.3503C61.1261 50.0027 60.9171 49.6482 60.5695 49.5584C60.2219 49.4686 59.8674 49.6776 59.7776 50.0252L61.0363 50.3503ZM35.7511 50.1877L36.3602 49.9608L35.688 48.1566L35.1291 49.999L35.7511 50.1877ZM44.2344 50.1877L44.8478 49.9727L44.1701 48.0399L43.6092 50.0097L44.2344 50.1877ZM52.3207 50.1877L52.9394 49.9884L52.306 48.023L51.6994 49.9968L52.3207 50.1877ZM35.1291 49.999C34.3176 52.6739 32.6777 53.582 31.363 53.4897C30.0277 53.3958 28.6838 52.2572 28.4574 50.1193L27.1646 50.2562C27.4453 52.9066 29.1998 54.6409 31.2719 54.7865C33.3647 54.9335 35.4414 53.4475 36.3731 50.3765L35.1291 49.999ZM43.6092 50.0097C43.2117 51.4058 42.6294 52.2925 42.0112 52.8068C41.4032 53.3127 40.7261 53.4889 40.0462 53.4125C38.6529 53.2558 37.1201 52.0007 36.3602 49.9608L35.142 50.4147C36.0189 52.7688 37.8838 54.4775 39.901 54.7044C40.9264 54.8197 41.9577 54.5425 42.8427 53.8061C43.7176 53.0782 44.4131 51.9336 44.8595 50.3657L43.6092 50.0097ZM59.7776 50.0252C59.187 52.3122 57.7607 53.1985 56.456 53.1601C55.1133 53.1205 53.6196 52.0992 52.9394 49.9884L51.702 50.3871C52.5146 52.9086 54.4149 54.4005 56.4177 54.4595C58.4584 54.5197 60.3288 53.0899 61.0363 50.3503L59.7776 50.0252ZM51.6994 49.9968C51.0005 52.2708 49.6185 53.3072 48.3928 53.3503C47.1861 53.3928 45.7272 52.4809 44.8478 49.9727L43.621 50.4028C44.6028 53.2029 46.4405 54.7198 48.4385 54.6495C50.4173 54.58 52.1479 52.9623 52.942 50.3787L51.6994 49.9968Z" fill="#008CF4"/>
<path id="Vector 126" d="M61.0363 43.4782C61.1261 43.1306 60.9171 42.7761 60.5695 42.6863C60.2219 42.5966 59.8674 42.8056 59.7776 43.1531L61.0363 43.4782ZM35.7511 43.3157L36.3602 43.0888L35.688 41.2845L35.1291 43.127L35.7511 43.3157ZM44.2344 43.3157L44.8478 43.1006L44.1701 41.1679L43.6092 43.1377L44.2344 43.3157ZM52.3207 43.3157L52.9394 43.1163L52.306 41.1509L51.6994 43.1247L52.3207 43.3157ZM35.1291 43.127C34.3176 45.8018 32.6777 46.71 31.363 46.6176C30.0277 46.5238 28.6838 45.3851 28.4574 43.2472L27.1646 43.3841C27.4453 46.0345 29.1998 47.7688 31.2719 47.9144C33.3647 48.0614 35.4414 46.5754 36.3731 43.5044L35.1291 43.127ZM43.6092 43.1377C43.2117 44.5337 42.6294 45.4204 42.0112 45.9347C41.4032 46.4407 40.7261 46.6169 40.0462 46.5404C38.6529 46.3838 37.1201 45.1286 36.3602 43.0888L35.142 43.5426C36.0189 45.8967 37.8838 47.6055 39.901 47.8323C40.9264 47.9476 41.9577 47.6704 42.8427 46.9341C43.7176 46.2061 44.4131 45.0616 44.8595 43.4937L43.6092 43.1377ZM59.7776 43.1531C59.187 45.4401 57.7607 46.3265 56.456 46.288C55.1133 46.2485 53.6196 45.2271 52.9394 43.1163L51.702 43.515C52.5146 46.0365 54.4149 47.5284 56.4177 47.5875C58.4584 47.6476 60.3288 46.2178 61.0363 43.4782L59.7776 43.1531ZM51.6994 43.1247C51.0005 45.3987 49.6185 46.4352 48.3928 46.4783C47.1861 46.5207 45.7272 45.6088 44.8478 43.1006L43.621 43.5307C44.6028 46.3308 46.4405 47.8477 48.4385 47.7775C50.4173 47.7079 52.1479 46.0902 52.942 43.5066L51.6994 43.1247Z" fill="#008CF4"/>
<g id="Group 110">
<path id="Ellipse 58" d="M37.1498 49.0688C37.1498 50.2558 36.7834 51.2555 36.1485 52.1034C33.3023 55.9041 25.0589 56.6525 20.2228 57.5271C12.9259 57.5271 2.6665 55.2909 2.6665 48.5935C2.6665 41.896 10.2369 34.3083 20.2228 34.3083C29.5942 34.3083 37.1498 42.3714 37.1498 49.0688Z" fill="white"/>
<g id="Group 109">
<path id="Vector" d="M2.9502 52.3636V49.318C2.9502 40.9078 10.5005 34.0898 19.8143 34.0898C29.128 34.0898 36.6784 40.9078 36.6784 49.318V52.3636" stroke="#3D4865" stroke-width="1.3" stroke-linecap="round" stroke-linejoin="round"/>
</g>
</g>
<path id="Vector_2" d="M19.7563 35.485C24.8788 35.485 29.0312 31.2806 29.0312 26.0938C29.0312 20.9072 24.8788 16.7026 19.7563 16.7026C14.6338 16.7026 10.4814 20.9072 10.4814 26.0938C10.4814 31.2806 14.6338 35.485 19.7563 35.485Z" fill="white" stroke="#3D4865" stroke-width="1.3" stroke-linecap="round" stroke-linejoin="round"/>
<path id="Rectangle 87" d="M4.83164 57.1339H34.7979V58.0803C34.7979 58.9658 34.08 59.6837 33.1945 59.6837H6.43503C5.5495 59.6837 4.83164 58.9658 4.83164 58.0803V57.1339Z" fill="#DDE1E9" stroke="#3D4865" stroke-width="1.3"/>
<path id="Rectangle 88" d="M33.2812 56.5341L6.34819 56.5341L6.34819 43.6883C6.34819 42.8027 7.06605 42.0849 7.95157 42.0849L31.6778 42.0849C32.5633 42.0849 33.2812 42.8027 33.2812 43.6883L33.2812 56.5341Z" fill="#DDE1E9" stroke="#3D4865" stroke-width="1.3"/>
</g>
</g>
</svg>
