<svg xmlns="http://www.w3.org/2000/svg" width="64" height="64" fill="none"><mask id="a" fill="#fff"><path d="m60.702 27.61-1.074-9.001c.541-.314.908-.888.908-1.55 0-.997-.819-1.805-1.83-1.805-.25 0-.49.05-.707.14l-5.706-5.367c.071-.192.116-.397.116-.614 0-.997-.819-1.804-1.83-1.804-.523 0-.991.22-1.325.566l-7.023-2.493A1.814 1.814 0 0 0 40.414 4c-.767 0-1.422.467-1.693 1.128l-7.764.207a1.834 1.834 0 0 0-1.518-.798c-1.01 0-1.83.808-1.83 1.804 0 .013.004.025.005.038l-6.659 4.136a1.836 1.836 0 0 0-1.028-.313c-1.01 0-1.83.808-1.83 1.804 0 .065.013.126.02.19l-7.476 4.213a1.828 1.828 0 0 0-1.176-.433c-1.01 0-1.83.807-1.83 1.804 0 .39.13.75.344 1.045l-3.998 7.27c-.051-.005-.1-.015-.152-.015-1.01 0-1.829.807-1.829 1.804 0 .996.819 1.804 1.83 1.804.137 0 .27-.018.399-.046l6.072 8.167c-.156.266-.252.57-.252.9 0 .997.819 1.805 1.829 1.805a1.83 1.83 0 0 0 1.675-1.083h11.285a1.829 1.829 0 0 0 1.674 1.083c.197 0 .383-.039.561-.096l15.343 17.025c-.108.23-.172.483-.172.753 0 .996.819 1.804 1.83 1.804 1.01 0 1.828-.808 1.828-1.804 0-.74-.452-1.374-1.097-1.652v-9.687a1.803 1.803 0 0 0 1.097-1.652c0-.097-.014-.19-.029-.283l7.43-4.711c.29.191.639.303 1.014.303 1.01 0 1.83-.808 1.83-1.804 0-.383-.123-.736-.33-1.029l4.103-6.574c.082.011.165.025.25.025 1.011 0 1.83-.808 1.83-1.805 0-.812-.548-1.492-1.297-1.717Zm-1.846.466-9.672-3.544a1.886 1.886 0 0 0-.015-.151l8.574-5.796c.133.082.28.144.433.19l1.073 9.001a1.817 1.817 0 0 0-.392.3ZM42.763 43.949 28.33 38.61a1.8 1.8 0 0 0-.023-.228l9.376-6.252c.252.157.546.252.861.271l4.265 11.501-.048.046Zm-20.005-14.88c.06-.067.119-.136.168-.212l13.791 2.177-9.23 6.153a1.834 1.834 0 0 0-.975-.282c-.015 0-.03.004-.044.004l-3.71-7.84ZM21.074 13.4l13.135 4.52c.006.072.008.146.022.216l-11.893 8.211a1.822 1.822 0 0 0-.37-.167l-1.162-12.601c.095-.052.184-.111.268-.179Zm28.43-2.534.018.015-2.531 11.988c-.246.051-.472.151-.67.288l-8.493-5.133c.011-.081.025-.161.025-.245 0-.07-.013-.136-.02-.204l11.67-6.71Zm-14.429 8.45c.172.103.36.183.564.226l1.971 9.593a1.82 1.82 0 0 0-.486.5l-13.835-2.183 11.786-8.137Zm4.55 9.766a1.83 1.83 0 0 0-.58-.236l-1.97-9.585 8.486 5.13c-.011.08-.025.161-.025.245 0 .143.021.28.053.414l-5.964 4.032Zm.83 1.189 6.018-4.07c.265.148.566.239.892.239.025 0 .048-.007.073-.007l5.244 10.615-12.206-6.314c.003-.042.013-.082.013-.125 0-.116-.014-.228-.035-.338Zm16.457-12.875-8.482 5.733 2.523-11.95c.116-.024.228-.059.334-.103l5.706 5.368a1.762 1.762 0 0 0-.116.614c0 .116.013.229.034.338Zm-8.141-7.78-11.394 6.55 3.063-8.56a1.83 1.83 0 0 0 1.3-.565l7.022 2.493c.002.028.005.055.009.082Zm-9.682-2.573-3.201 8.946c-.012 0-.023.002-.035.003l-4.885-8.666c.11-.167.191-.354.24-.554l7.555-.202c.084.175.193.334.326.473Zm-9.651 1.102c.103 0 .202-.014.3-.03l4.712 8.359-12.705-4.372c.002-.032.01-.063.01-.096 0-.091-.014-.179-.027-.267l6.512-4.044c.322.277.738.45 1.198.45Zm-10.09 5.564 1.147 12.443-9.248-7.98c.029-.127.046-.258.046-.393 0-.025-.006-.048-.007-.073l7.553-4.257c.153.113.324.2.51.26h-.001Zm-9.884 5.875c.333 0 .641-.095.91-.248l9.068 7.826H5.504a1.787 1.787 0 0 0-.236-.381l3.97-7.22c.075.01.15.023.227.023Zm-3.96 9.021h14.21c.009.018.02.033.029.05l-7.326 8.338a1.837 1.837 0 0 0-.54-.089c-.137 0-.27.018-.4.047l-6.071-8.168c.034-.058.07-.116.098-.178Zm8.02 9.332 7.326-8.338c.172.053.35.089.54.089.014 0 .028-.004.043-.004l3.71 7.84a1.8 1.8 0 0 0-.307.464H13.552c-.008-.018-.02-.034-.028-.051Zm28.728 7.366a1.8 1.8 0 0 0 1.088 1.554v9.44L29.022 40.41l13.23 4.894Zm1.934-1.891-4.188-11.295 12.501 6.468c-.003.042-.012.081-.012.124 0 .097.014.19.029.284l-7.43 4.71a1.838 1.838 0 0 0-.9-.291Zm10.13-6.507c-.026 0-.049.006-.074.007l-5.42-10.971 9.528 3.49c.02.342.131.66.318.925l-4.102 6.574c-.082-.01-.165-.025-.25-.025Z"/></mask><path fill="#3D4865" stroke="#3D4865" stroke-width="2.6" d="m60.702 27.61-1.074-9.001c.541-.314.908-.888.908-1.55 0-.997-.819-1.805-1.83-1.805-.25 0-.49.05-.707.14l-5.706-5.367c.071-.192.116-.397.116-.614 0-.997-.819-1.804-1.83-1.804-.523 0-.991.22-1.325.566l-7.023-2.493A1.814 1.814 0 0 0 40.414 4c-.767 0-1.422.467-1.693 1.128l-7.764.207a1.834 1.834 0 0 0-1.518-.798c-1.01 0-1.83.808-1.83 1.804 0 .013.004.025.005.038l-6.659 4.136a1.836 1.836 0 0 0-1.028-.313c-1.01 0-1.83.808-1.83 1.804 0 .065.013.126.02.19l-7.476 4.213a1.828 1.828 0 0 0-1.176-.433c-1.01 0-1.83.807-1.83 1.804 0 .39.13.75.344 1.045l-3.998 7.27c-.051-.005-.1-.015-.152-.015-1.01 0-1.829.807-1.829 1.804 0 .996.819 1.804 1.83 1.804.137 0 .27-.018.399-.046l6.072 8.167c-.156.266-.252.57-.252.9 0 .997.819 1.805 1.829 1.805a1.83 1.83 0 0 0 1.675-1.083h11.285a1.829 1.829 0 0 0 1.674 1.083c.197 0 .383-.039.561-.096l15.343 17.025c-.108.23-.172.483-.172.753 0 .996.819 1.804 1.83 1.804 1.01 0 1.828-.808 1.828-1.804 0-.74-.452-1.374-1.097-1.652v-9.687a1.803 1.803 0 0 0 1.097-1.652c0-.097-.014-.19-.029-.283l7.43-4.711c.29.191.639.303 1.014.303 1.01 0 1.83-.808 1.83-1.804 0-.383-.123-.736-.33-1.029l4.103-6.574c.082.011.165.025.25.025 1.011 0 1.83-.808 1.83-1.805 0-.812-.548-1.492-1.297-1.717Zm-1.846.466-9.672-3.544a1.886 1.886 0 0 0-.015-.151l8.574-5.796c.133.082.28.144.433.19l1.073 9.001a1.817 1.817 0 0 0-.392.3ZM42.763 43.949 28.33 38.61a1.8 1.8 0 0 0-.023-.228l9.376-6.252c.252.157.546.252.861.271l4.265 11.501-.048.046Zm-20.005-14.88c.06-.067.119-.136.168-.212l13.791 2.177-9.23 6.153a1.834 1.834 0 0 0-.975-.282c-.015 0-.03.004-.044.004l-3.71-7.84ZM21.074 13.4l13.135 4.52c.006.072.008.146.022.216l-11.893 8.211a1.822 1.822 0 0 0-.37-.167l-1.162-12.601c.095-.052.184-.111.268-.179Zm28.43-2.534.018.015-2.531 11.988c-.246.051-.472.151-.67.288l-8.493-5.133c.011-.081.025-.161.025-.245 0-.07-.013-.136-.02-.204l11.67-6.71Zm-14.429 8.45c.172.103.36.183.564.226l1.971 9.593a1.82 1.82 0 0 0-.486.5l-13.835-2.183 11.786-8.137Zm4.55 9.766a1.83 1.83 0 0 0-.58-.236l-1.97-9.585 8.486 5.13c-.011.08-.025.161-.025.245 0 .143.021.28.053.414l-5.964 4.032Zm.83 1.189 6.018-4.07c.265.148.566.239.892.239.025 0 .048-.007.073-.007l5.244 10.615-12.206-6.314c.003-.042.013-.082.013-.125 0-.116-.014-.228-.035-.338Zm16.457-12.875-8.482 5.733 2.523-11.95c.116-.024.228-.059.334-.103l5.706 5.368a1.762 1.762 0 0 0-.116.614c0 .116.013.229.034.338Zm-8.141-7.78-11.394 6.55 3.063-8.56a1.83 1.83 0 0 0 1.3-.565l7.022 2.493c.002.028.005.055.009.082Zm-9.682-2.573-3.201 8.946c-.012 0-.023.002-.035.003l-4.885-8.666c.11-.167.191-.354.24-.554l7.555-.202c.084.175.193.334.326.473Zm-9.651 1.102c.103 0 .202-.014.3-.03l4.712 8.359-12.705-4.372c.002-.032.01-.063.01-.096 0-.091-.014-.179-.027-.267l6.512-4.044c.322.277.738.45 1.198.45Zm-10.09 5.564 1.147 12.443-9.248-7.98c.029-.127.046-.258.046-.393 0-.025-.006-.048-.007-.073l7.553-4.257c.153.113.324.2.51.26h-.001Zm-9.884 5.875c.333 0 .641-.095.91-.248l9.068 7.826H5.504a1.787 1.787 0 0 0-.236-.381l3.97-7.22c.075.01.15.023.227.023Zm-3.96 9.021h14.21c.009.018.02.033.029.05l-7.326 8.338a1.837 1.837 0 0 0-.54-.089c-.137 0-.27.018-.4.047l-6.071-8.168c.034-.058.07-.116.098-.178Zm8.02 9.332 7.326-8.338c.172.053.35.089.54.089.014 0 .028-.004.043-.004l3.71 7.84a1.8 1.8 0 0 0-.307.464H13.552c-.008-.018-.02-.034-.028-.051Zm28.728 7.366a1.8 1.8 0 0 0 1.088 1.554v9.44L29.022 40.41l13.23 4.894Zm1.934-1.891-4.188-11.295 12.501 6.468c-.003.042-.012.081-.012.124 0 .097.014.19.029.284l-7.43 4.71a1.838 1.838 0 0 0-.9-.291Zm10.13-6.507c-.026 0-.049.006-.074.007l-5.42-10.971 9.528 3.49c.02.342.131.66.318.925l-4.102 6.574c-.082-.01-.165-.025-.25-.025Z" mask="url(#a)"/><ellipse cx="21.397" cy="27.854" fill="#008CF4" rx="1.81" ry="1.786"/><ellipse cx="38.724" cy="30.661" fill="#008CF4" rx="1.94" ry="1.913"/><ellipse cx="36.009" cy="17.777" fill="#008CF4" rx="1.81" ry="1.786"/><ellipse cx="47.388" cy="24.665" fill="#008CF4" rx="1.81" ry="1.786"/></svg>