<svg width="40" height="36" xmlns="http://www.w3.org/2000/svg"><g fill="none" fill-rule="evenodd"><path d="M.058 35.835h1.816v-3.558c0-.076.006-.153.012-.236a1.212 1.212 0 0 1 .226-.555.956.956 0 0 1 .29-.26.78.78 0 0 1 .412-.107c.197 0 .36.06.482.166.127.106.22.26.284.455.064.195.093.42.093.68v3.42h1.816v-3.574c0-.077.006-.16.018-.249a1.137 1.137 0 0 1 .232-.567.873.873 0 0 1 .679-.33c.301 0 .522.123.667.366.145.242.22.585.214 1.034v3.32h1.817v-3.598c0-.455-.053-.85-.151-1.182a2.448 2.448 0 0 0-.424-.827 1.64 1.64 0 0 0-.644-.479 1.989 1.989 0 0 0-.806-.16c-.22 0-.424.024-.61.078a1.904 1.904 0 0 0-.528.224c-.139.089-.278.19-.406.313-.133.119-.255.26-.365.426h-.024a1.618 1.618 0 0 0-.928-.91 1.969 1.969 0 0 0-.714-.124 2.4 2.4 0 0 0-.684.094 2.099 2.099 0 0 0-.517.243 2.235 2.235 0 0 0-.62.626H1.66l-.088-.827H0c.012.266.023.567.035.886.006.325.011.68.011 1.058v4.154h.012Zm15.028-3.617c0-.36-.04-.703-.133-1.016a2.222 2.222 0 0 0-.435-.84 2.028 2.028 0 0 0-.813-.566c-.342-.136-.754-.207-1.253-.213-.365 0-.696.03-.998.089a4.573 4.573 0 0 0-.783.206 3.29 3.29 0 0 0-.546.249l.343 1.223c.133-.083.29-.16.47-.23.18-.072.371-.125.574-.166.203-.041.406-.065.615-.065.232 0 .418.03.557.077a.753.753 0 0 1 .33.195.631.631 0 0 1 .158.254c.029.088.04.177.04.26v.088a6.397 6.397 0 0 0-1.445.136c-.43.095-.8.237-1.108.432a2.084 2.084 0 0 0-.714.732c-.168.296-.25.639-.25 1.034 0 .249.047.479.134.704.087.224.215.425.383.596.169.178.372.314.61.414.238.1.51.154.818.154.36 0 .684-.065.98-.19.29-.13.54-.313.737-.555h.035l.11.615h1.683a3.32 3.32 0 0 1-.046-.408 11.67 11.67 0 0 1-.03-.508c-.005-.183-.005-.373-.005-.567v-2.134h-.018Zm-1.816 1.389c0 .059 0 .112-.006.165a1.537 1.537 0 0 1-.029.16.988.988 0 0 1-.203.355.95.95 0 0 1-.336.248.954.954 0 0 1-.43.094.956.956 0 0 1-.377-.077.613.613 0 0 1-.26-.242.775.775 0 0 1-.1-.402c.006-.242.082-.437.233-.579a1.34 1.34 0 0 1 .62-.301 3.74 3.74 0 0 1 .888-.077v.656Zm2.913-5.034v1.152h-.795v1.4h.795v2.5c0 .431.04.797.128 1.093.087.301.214.538.388.72.151.16.343.29.586.385.238.1.511.148.813.153.267 0 .505-.017.714-.047.208-.035.377-.077.499-.124l-.012-1.436a2.003 2.003 0 0 1-.168.03l-.169.017c-.058 0-.133.006-.214.006-.186 0-.331-.035-.441-.112a.589.589 0 0 1-.227-.354 2.03 2.03 0 0 1-.063-.609v-2.21h1.334v-1.412h-1.334v-1.66l-1.834.508Zm8.953 4.81c.012-.071.03-.172.04-.302a4.249 4.249 0 0 0-.07-1.341 3.239 3.239 0 0 0-.289-.827 2.558 2.558 0 0 0-.51-.686 2.338 2.338 0 0 0-.755-.467 2.85 2.85 0 0 0-1.021-.171c-.418 0-.79.065-1.114.189-.325.124-.61.295-.853.514a2.995 2.995 0 0 0-.598.739 3.721 3.721 0 0 0-.354.88c-.075.307-.116.62-.116.934 0 .638.128 1.193.377 1.66.25.467.61.827 1.091 1.081.476.255 1.056.379 1.735.385.406 0 .795-.036 1.16-.1a5.064 5.064 0 0 0 1.01-.29l-.243-1.289c-.25.083-.511.142-.778.184a5.77 5.77 0 0 1-.882.065c-.22 0-.43-.024-.62-.071a1.84 1.84 0 0 1-.529-.213 1.236 1.236 0 0 1-.377-.36 1.145 1.145 0 0 1-.168-.515h3.864Zm-3.876-1.3c.012-.13.04-.266.093-.408.046-.142.116-.278.209-.402.093-.124.209-.225.348-.307.14-.077.308-.119.505-.119.215 0 .389.048.528.125.14.082.244.189.325.319a1.497 1.497 0 0 1 .203.791h-2.21Z" fill="#6F6F6F" fill-rule="nonzero"/><path d="M29.864 34.269c-.14.065-.299.112-.48.147a3.035 3.035 0 0 1-.598.054c-.229 0-.446-.036-.645-.107-.199-.07-.375-.183-.527-.325a1.565 1.565 0 0 1-.358-.537 2.05 2.05 0 0 1-.128-.739c0-.337.064-.632.193-.886.135-.254.322-.455.568-.603.246-.142.533-.219.862-.219.246 0 .457.024.626.06.176.035.317.076.428.13l.299-1.413a3.554 3.554 0 0 0-.937-.207 4.81 4.81 0 0 0-.504-.03c-.563 0-1.06.09-1.494.255a3.049 3.049 0 0 0-1.084.697 2.914 2.914 0 0 0-.662 1.034 3.56 3.56 0 0 0-.223 1.265c.006.644.135 1.2.398 1.666.264.467.633.827 1.114 1.081.48.254 1.043.379 1.699.384.24 0 .468-.011.68-.04.216-.03.404-.06.58-.107.17-.042.31-.089.421-.142l-.228-1.418Zm5.83-2.045c0-.36-.041-.703-.135-1.016a2.254 2.254 0 0 0-.44-.84 2.049 2.049 0 0 0-.82-.566c-.346-.136-.762-.207-1.265-.213-.37 0-.704.03-1.008.089a4.787 4.787 0 0 0-.791.206c-.229.083-.41.166-.551.243l.346 1.223c.134-.083.293-.16.474-.23.182-.072.375-.125.58-.166a3.17 3.17 0 0 1 .621-.065c.235 0 .422.03.563.077a.762.762 0 0 1 .334.195.72.72 0 0 1 .164.254.83.83 0 0 1 .04.26v.088a6.521 6.521 0 0 0-1.458.136 3.492 3.492 0 0 0-1.12.432c-.31.195-.55.437-.72.732-.17.296-.252.639-.252 1.034 0 .243.047.479.135.704a1.8 1.8 0 0 0 .387.596c.17.178.375.314.615.42.24.1.516.154.826.154.363 0 .692-.065.99-.195.293-.125.545-.314.744-.556h.036l.11.615h1.7a4.963 4.963 0 0 1-.047-.408 11.396 11.396 0 0 1-.03-.508c-.005-.183-.005-.373-.005-.567v-2.128h-.023Zm-1.834 1.383c0 .053 0 .112-.006.165-.006.06-.018.107-.03.16a.986.986 0 0 1-.205.355.959.959 0 0 1-.34.248.971.971 0 0 1-.433.094c-.14 0-.27-.03-.38-.077a.616.616 0 0 1-.264-.242.769.769 0 0 1-.1-.402c.006-.242.082-.437.234-.579.153-.142.364-.242.627-.301a3.81 3.81 0 0 1 .897-.077v.656Zm2.947-5.034v1.152h-.803v1.4h.803v2.5c0 .431.04.797.129 1.093a1.7 1.7 0 0 0 .392.72c.153.16.346.29.592.385.24.1.516.148.82.153.27 0 .51-.017.721-.053.21-.035.38-.077.504-.124l-.012-1.436a2.055 2.055 0 0 1-.17.03l-.17.018c-.058 0-.135.005-.217.005-.187 0-.333-.035-.445-.112a.622.622 0 0 1-.234-.354c-.047-.16-.07-.36-.065-.603v-2.21H40v-1.412h-1.348v-1.66l-1.845.508ZM11.921.372c3.112 0 5.96 1.2 8.079 3.147C22.142 1.57 24.979.372 28.079.372c3.28 0 6.272 1.33 8.426 3.48A11.766 11.766 0 0 1 40 12.21v13.061h-8.139v-7.646c.946-.06 1.951-.737 2.442-1.734.61-1.235.215-2.505-.898-2.826a1.919 1.919 0 0 0-.862-.047c.144-.25.252-.523.323-.82.348-1.484-.49-2.837-1.855-3.04-1.029-.154-2.07.392-2.68 1.307-.623-1.294-2.12-1.9-3.376-1.354-1.245.534-1.82 1.983-1.34 3.313a2.485 2.485 0 0 0-.982-.012c-1.34.273-1.975 1.686-1.436 3.147.503 1.341 1.831 2.268 3.088 2.196v7.54h-8.582v-10.2c1.161-.07 2.334-.95 2.789-2.184.55-1.46-.096-2.874-1.436-3.147a2.28 2.28 0 0 0-.982.012c.479-1.318-.096-2.778-1.34-3.313-1.257-.546-2.753.072-3.376 1.354-.61-.902-1.64-1.449-2.68-1.306-1.377.202-2.203 1.555-1.856 3.04.072.296.18.57.323.819a2.095 2.095 0 0 0-.861.047c-1.101.32-1.508 1.591-.898 2.826.55 1.105 1.712 1.817 2.729 1.734v10.306H0v-13.06C0 8.98 1.34 6.023 3.495 3.874l.012-.012.012-.012C5.685 1.701 8.653.372 11.92.372Z" fill="#09C"/></g></svg>