<svg width="57" height="36" xmlns="http://www.w3.org/2000/svg"><path d="M16.987 1A17.13 17.13 0 0 1 28.5 5.419C31.553 2.684 35.595 1 40.013 1c4.673 0 8.937 1.868 12.007 4.886C55.09 8.887 57 13.056 57 17.625v18.342H45.402V25.228c1.348-.083 2.78-1.034 3.48-2.434.87-1.734.307-3.519-1.28-3.969a2.773 2.773 0 0 0-1.228-.067c.205-.35.358-.733.46-1.15.495-2.084-.698-3.985-2.643-4.269-1.467-.217-2.95.55-3.82 1.834-.887-1.817-3.02-2.668-4.81-1.9-1.774.75-2.592 2.784-1.91 4.652-.46-.1-.938-.1-1.399-.017-1.91.384-2.814 2.368-2.046 4.419.716 1.884 2.61 3.185 4.4 3.085V36H22.377V21.676c1.654-.1 3.326-1.334 3.974-3.068.785-2.05-.136-4.035-2.047-4.418-.46-.1-.938-.084-1.398.016.682-1.85-.137-3.902-1.91-4.652-1.791-.767-3.923.1-4.81 1.901-.87-1.267-2.337-2.034-3.82-1.834-1.962.283-3.139 2.184-2.644 4.268.102.417.256.8.46 1.151a3.028 3.028 0 0 0-1.228.067c-1.569.45-2.149 2.234-1.279 3.968.785 1.551 2.439 2.552 3.889 2.435v14.473H0V17.641C0 13.09 1.91 8.937 4.98 5.92l.017-.017.017-.016A17.086 17.086 0 0 1 16.987 1Z" fill="#FFF" fill-rule="evenodd"/></svg>