<svg width="42px" height="42px" viewBox="0 0 42 42" version="1.1" xmlns="http://www.w3.org/2000/svg" xmlns:xlink="http://www.w3.org/1999/xlink">
    <defs>
        <polygon id="path-1" points="0 -0.0002 21 -0.0002 21 21 0 21"></polygon>
        <polygon id="path-3" points="0 0.323 3.9997 0.323 3.9997 4.3226 0 4.3226"></polygon>
        <polygon id="path-5" points="0 0.1166 3.9997 0.1166 3.9997 4.1166 0 4.1166"></polygon>
        <polygon id="path-7" points="0 0.0004 3.9997 0.0004 3.9997 4.0004 0 4.0004"></polygon>
    </defs>
    <g id="icon-manage" stroke="none" stroke-width="1" fill="none" fill-rule="evenodd">
        <g id="Group-19" transform="translate(2.000000, 9.000000)">
            <path d="M22.5,9.7771 C22.5,9.1771 22.1,8.7771 21.5,8.7771 L9,8.7771 C8.4,8.7771 8,9.1771 8,9.7771 C8,10.3771 8.4,10.7771 9,10.7771 L21.5,10.7771 C22.1,10.7771 22.5,10.3771 22.5,9.7771" id="Fill-1" fill="#FFFFFF"></path>
            <path d="M9,3.6775 L23,3.6775 C23.6,3.6775 24,3.2775 24,2.6775 C24,2.0765 23.6,1.6775 23,1.6775 L9,1.6775 C8.4,1.6775 8,2.0765 8,2.6775 C8,3.2775 8.4,3.6775 9,3.6775" id="Fill-3" fill="#FFFFFF"></path>
            <path d="M9,15.6775 C8.4,15.6775 8,16.0765 8,16.6775 C8,17.2775 8.4,17.6775 9,17.6775 L15,17.6775 C15.6,17.6775 16,17.2775 16,16.6775 C16,16.0765 15.6,15.6775 15,15.6775 L9,15.6775 Z" id="Fill-5" fill="#FFFFFF"></path>
            <g id="Group-9" transform="translate(17.000000, 2.677100)">
                <mask id="mask-2" fill="white">
                    <use xlink:href="#path-1"></use>
                </mask>
                <g id="Clip-8"></g>
                <path d="M2,17.3998 L17,2.3998 L18.6,4.0008 L3.6,19.0008 L2,19.0008 L2,17.3998 Z M1,21.0008 L4,21.0008 C4.3,21.0008 4.5,20.8998 4.7,20.6998 L20.7,4.6998 C21.1,4.2998 21.1,3.6998 20.7,3.2998 L17.7,0.2998 C17.3,-0.1002 16.7,-0.1002 16.3,0.2998 L0.3,16.2998 C0.1,16.5008 0,16.6998 0,17.0008 L0,20.0008 C0,20.5998 0.4,21.0008 1,21.0008 L1,21.0008 Z" id="Fill-7" fill="#FFFFFF" mask="url(#mask-2)"></path>
            </g>
            <g id="Group-12" transform="translate(0.000000, 0.677100)">
                <mask id="mask-4" fill="white">
                    <use xlink:href="#path-3"></use>
                </mask>
                <g id="Clip-11"></g>
                <path d="M1.0347,4.3226 L2.9657,4.3226 C3.5367,4.3226 3.9997,3.8596 3.9997,3.2886 L3.9997,1.3576 C3.9997,0.7856 3.5367,0.3226 2.9657,0.3226 L1.0347,0.3226 C0.4637,0.3226 -0.0003,0.7856 -0.0003,1.3576 L-0.0003,3.2886 C-0.0003,3.8596 0.4637,4.3226 1.0347,4.3226" id="Fill-10" fill="#FFFFFF" mask="url(#mask-4)"></path>
            </g>
            <g id="Group-15" transform="translate(0.000000, 7.677100)">
                <mask id="mask-6" fill="white">
                    <use xlink:href="#path-5"></use>
                </mask>
                <g id="Clip-14"></g>
                <path d="M1.0347,4.1166 L2.9657,4.1166 C3.5367,4.1166 3.9997,3.6536 3.9997,3.0826 L3.9997,1.1506 C3.9997,0.5796 3.5367,0.1166 2.9657,0.1166 L1.0347,0.1166 C0.4637,0.1166 -0.0003,0.5796 -0.0003,1.1506 L-0.0003,3.0826 C-0.0003,3.6536 0.4637,4.1166 1.0347,4.1166" id="Fill-13" fill="#FFFFFF" mask="url(#mask-6)"></path>
            </g>
            <g id="Group-18" transform="translate(0.000000, 14.677100)">
                <mask id="mask-8" fill="white">
                    <use xlink:href="#path-7"></use>
                </mask>
                <g id="Clip-17"></g>
                <path d="M1.0347,4.0004 L2.9657,4.0004 C3.5367,4.0004 3.9997,3.5364 3.9997,2.9654 L3.9997,1.0344 C3.9997,0.4634 3.5367,0.0004 2.9657,0.0004 L1.0347,0.0004 C0.4637,0.0004 -0.0003,0.4634 -0.0003,1.0344 L-0.0003,2.9654 C-0.0003,3.5364 0.4637,4.0004 1.0347,4.0004" id="Fill-16" fill="#FFFFFF" mask="url(#mask-8)"></path>
            </g>
        </g>
    </g>
</svg>
