<?xml version="1.0" encoding="UTF-8"?>
<svg width="42px" height="42px" viewBox="0 0 42 42" version="1.1" xmlns="http://www.w3.org/2000/svg" xmlns:xlink="http://www.w3.org/1999/xlink">
    <!-- Generator: Sketch 56.2 (81672) - https://sketch.com -->
    <title>Icon-Download</title>
    <desc>Created with Sketch.</desc>
    <g id="Icon-Download" stroke="none" stroke-width="1" fill="none" fill-rule="evenodd">
        <g id="Group-Copy" transform="translate(1.000000, 1.000000)">
            <rect id="Rectangle" fill="#FFFFFF" x="0" y="0" width="40" height="40" rx="2"></rect>
            <g id="Icons/iconNeutralGray/Outline/Download" transform="translate(8.000000, 8.000000)" fill="#ACB3BD">
                <path d="M23.2728814,11.8381356 C23.6542373,11.8381356 23.959322,12.1483051 23.959322,12.5245763 L23.959322,18.7686441 C23.959322,21.2194915 21.9661017,23.2177966 19.5101695,23.2177966 L4.44915254,23.2177966 C1.99830508,23.2177966 0,21.2245763 0,18.7686441 L0,12.4228814 C0,12.0415254 0.305084746,11.7364407 0.686440678,11.7364407 C1.06779661,11.7364407 1.37288136,12.0415254 1.37288136,12.4228814 L1.37288136,18.7686441 C1.37288136,20.4618644 2.75084746,21.8449153 4.44915254,21.8449153 L19.5101695,21.8449153 C21.2033898,21.8449153 22.5864407,20.4669492 22.5864407,18.7686441 L22.5864407,12.5245763 C22.5864407,12.1432203 22.8915254,11.8381356 23.2728814,11.8381356 Z M11.4966102,17.7669492 L7.12881356,13.4042373 C6.85932203,13.1347458 6.85932203,12.7025424 7.12881356,12.4330508 C7.39830508,12.1635593 7.83050847,12.1635593 8.1,12.4330508 L11.2932203,15.6262712 L11.2932203,1.69915254 C11.2932203,1.31779661 11.5983051,1.01271186 11.979661,1.01271186 C12.3610169,1.01271186 12.6661017,1.31779661 12.6661017,1.69915254 L12.6661017,15.6262712 L15.8542373,12.4330508 C16.1237288,12.1635593 16.5559322,12.1635593 16.8254237,12.4330508 C17.0949153,12.7025424 17.0949153,13.1347458 16.8254237,13.4042373 L12.4627119,17.7669492 C12.3305085,17.9042373 12.1525424,17.970339 11.979661,17.970339 C11.8067797,17.970339 11.6288136,17.8991525 11.4966102,17.7669492 Z" id="Combined-Shape"></path>
            </g>
        </g>
    </g>
</svg>