<?xml version="1.0" encoding="UTF-8"?>
<svg width="20px" height="20px" viewBox="0 0 20 20" version="1.1" xmlns="http://www.w3.org/2000/svg" xmlns:xlink="http://www.w3.org/1999/xlink">
    <!-- Generator: Sketch 56.3 (81716) - https://sketch.com -->
    <title>Header/Settings</title>
    <desc>Created with Sketch.</desc>
    <g id="0.-Matecat-Old-Design" stroke="none" stroke-width="1" fill="none" fill-rule="evenodd">
        <g id="1.3-Logged" transform="translate(-1261.000000, -285.000000)">
            <g id="Page"></g>
            <g id="Header/Settings" transform="translate(1261.000000, 285.000000)" fill="#FFF">
                <g id="gear">
                    <path d="M19.9197026,8.88185874 C19.8881041,8.60096654 19.5605948,8.38988848 19.2773978,8.38988848 C18.3617844,8.38988848 17.5492937,7.85226766 17.2085502,7.02081784 C16.8604461,6.16921933 17.0849071,5.17605948 17.7672862,4.55011152 C17.9820818,4.35375465 18.0081784,4.02505576 17.8280297,3.79672862 C17.3594052,3.20163569 16.8267658,2.66408922 16.2452045,2.19821561 C16.0174721,2.01546468 15.6833457,2.04089219 15.4858736,2.2595539 C14.8903346,2.91910781 13.8205948,3.16423792 12.9939777,2.81933086 C12.1337546,2.45747212 11.5913011,1.58579926 11.6443866,0.650111524 C11.6618587,0.356208178 11.4470632,0.100669145 11.154052,0.0665427509 C10.4077323,-0.0197769517 9.65486989,-0.0224535316 8.9063197,0.0605947955 C8.61665428,0.0925650558 8.40185874,0.342081784 8.41159851,0.632267658 C8.44416357,1.55873606 7.89516729,2.41516729 7.04349442,2.76401487 C6.2267658,3.09762082 5.16453532,2.85457249 4.57018587,2.20089219 C4.37375465,1.98557621 4.04505576,1.95910781 3.81620818,2.13747212 C3.21739777,2.60728625 2.6727881,3.14527881 2.1998513,3.73546468 C2.01539033,3.96490706 2.04252788,4.29747212 2.25947955,4.49486989 C2.95486989,5.12460967 3.1794052,6.12639405 2.81814126,6.98780669 C2.4732342,7.80907063 1.6204461,8.33836431 0.644163569,8.33836431 C0.327360595,8.32817844 0.101710037,8.54081784 0.067063197,8.82884758 C-0.0208178439,9.57947955 -0.0218587361,10.3443123 0.0627509294,11.1010409 C0.0941263941,11.3831227 0.431598513,11.592342 0.717918216,11.592342 C1.58795539,11.5701115 2.42327138,12.1087732 2.7736803,12.961487 C3.12297398,13.8130855 2.89843866,14.8056506 2.21501859,15.432119 C2.00126394,15.6284758 1.97412639,15.9566543 2.15427509,16.1849814 C2.61851301,16.7762825 3.15122677,17.3143494 3.73486989,17.7840892 C3.96379182,17.9685502 4.29687732,17.9425279 4.49531599,17.7238662 C5.0930855,17.0626766 6.16275093,16.8179926 6.98609665,17.1635688 C7.84847584,17.5243123 8.39092937,18.3959108 8.33784387,19.332119 C8.32052045,19.626171 8.53635688,19.8821561 8.82817844,19.9157621 C9.20996283,19.9602974 9.59405204,19.9825279 9.97918216,19.9825279 C10.3447584,19.9825279 10.7104089,19.9624535 11.0759851,19.9217844 C11.3657249,19.8898141 11.5803717,19.6402974 11.570632,19.3495911 C11.5371004,18.4236431 12.0870632,17.5672119 12.9376208,17.2189591 C13.7598513,16.8831227 14.8176208,17.1289219 15.4120446,17.7819331 C15.6095911,17.996803 15.9359851,18.0227509 16.1660967,17.8449814 C16.7637918,17.3762825 17.3072862,16.8387361 17.7824535,16.2469145 C17.9668401,16.0179926 17.9408178,15.6849071 17.7227509,15.4875836 C17.0273606,14.8578439 16.80171,13.8559108 17.162974,12.9950929 C17.5026022,12.1847584 18.3237175,11.6406691 19.2069145,11.6406691 L19.3304833,11.6438662 C19.6169517,11.6671375 19.8805204,11.4464684 19.9152416,11.154052 C20.0032714,10.4027509 20.0043123,9.63858736 19.9197026,8.88185874 Z M10.0070632,13.3450558 C8.16929368,13.3450558 6.67442379,11.8501859 6.67442379,10.0124164 C6.67442379,8.17472119 8.16929368,6.67977695 10.0070632,6.67977695 C11.8447584,6.67977695 13.3396283,8.17472119 13.3396283,10.0124164 C13.3396283,11.8501859 11.8447584,13.3450558 10.0070632,13.3450558 Z" id="Shape"></path>
                </g>
            </g>
        </g>
    </g>
</svg>