<?xml version="1.0" encoding="UTF-8"?>
<svg width="40px" height="40px" viewBox="0 0 40 40" version="1.1" xmlns="http://www.w3.org/2000/svg" xmlns:xlink="http://www.w3.org/1999/xlink">
    <!-- Generator: Sketch 56.2 (81672) - https://sketch.com -->
    <title>icon-filter</title>
    <desc>Created with Sketch.</desc>
    <g id="icon-filter" stroke="none" stroke-width="1" fill="none" fill-rule="evenodd">
        <g id="Icon/Filter/Inactive" transform="translate(9.000000, 9.000000)" fill="#FFFFFF" stroke="#FFFFFF">
            <g id="filter">
                <path d="M22.9660561,1.79797063e-06 L1.03369998,1.79797063e-06 C0.646872201,-0.00071025154 0.292239364,0.210114534 0.115410779,0.545863698 C-0.0638568515,0.88613389 -0.0323935402,1.29588589 0.196629969,1.60665014 L8.23172155,12.6494896 C8.23440448,12.6532968 8.2373313,12.6568661 8.24001423,12.6606733 C8.53196433,13.0452025 8.68976863,13.510873 8.69074424,13.9896308 L8.69074424,22.9927526 C8.68903691,23.2594959 8.79635358,23.5155313 8.98903581,23.7047026 C9.18171797,23.8938738 9.44366823,24.0000018 9.71683793,24.0000018 C9.85586177,24.0000018 9.99317834,23.9728736 10.1214705,23.9210002 L14.6365754,22.2413027 C15.041208,22.1208994 15.3097436,21.7485057 15.3097436,21.2999677 L15.3097436,13.9896308 C15.3104753,13.5111109 15.4685235,13.0452025 15.7602297,12.6606733 C15.7629126,12.6568661 15.7658394,12.6532968 15.7685223,12.6494896 L23.80337,1.60617426 C24.0323936,1.2956479 24.0638568,0.88613389 23.8845893,0.545863698 C23.7077606,0.210114534 23.3531278,-0.00071025154 22.9660561,1.79797063e-06 Z M14.7534042,11.9389674 C14.3046254,12.5331315 14.0619434,13.2515061 14.06048,13.9896308 L14.06048,21.1519621 L9.93952,22.6848437 L9.93952,13.9896308 C9.93805656,13.2515061 9.6953746,12.5331315 9.24635186,11.9389674 L1.44564968,1.21831377 L22.5543504,1.21831377 L14.7534042,11.9389674 Z" id="Shape" stroke-width="0.5"></path>
            </g>
        </g>
    </g>
</svg>