<svg width="40" height="40" xmlns="http://www.w3.org/2000/svg"><path d="M31.966 9H10.034c-.387 0-.742.21-.919.546-.179.34-.147.75.082 1.06l8.035 11.043.008.012c.292.384.45.85.45 1.329v9.003a.988.988 0 0 0 .299.712c.193.189.455.295.728.295.139 0 .276-.027.404-.079l4.516-1.68c.404-.12.673-.492.673-.941v-7.31c0-.479.159-.945.45-1.33l.009-.01 8.034-11.044c.23-.31.26-.72.082-1.06A1.034 1.034 0 0 0 31.966 9Zm-8.213 11.939a3.412 3.412 0 0 0-.693 2.05v7.163l-4.12 1.533V22.99a3.41 3.41 0 0 0-.694-2.051l-7.8-10.72h21.108l-7.8 10.72Z" stroke-width=".5" fill="#FFF" stroke="#FFF" fill-rule="evenodd"/></svg>