<svg version="1.1" id="Livello_1" xmlns="http://www.w3.org/2000/svg" x="0" y="0" viewBox="0 0 42 42" style="enable-background:new 0 0 42 42" xml:space="preserve"><style>.st1{fill:#fff}</style><g style="enable-background:new" id="Icon-QA"><path class="st1" d="m18.5 26.8 1.8 2.1-1.8 1.5-1.9-2.3c-1 .5-2.2.7-3.5.7-4.9 0-7.9-3.6-7.9-8.3 0-4.7 3-8.3 7.9-8.3s7.9 3.6 7.9 8.3c0 2.6-.9 4.8-2.5 6.3zm-5.4-11.9c-3.2 0-5 2.4-5 5.7 0 3.3 1.8 5.7 5 5.7.6 0 1.2-.1 1.7-.4L13.2 24l1.8-1.4 1.8 2.1c.9-1 1.4-2.4 1.4-4.1-.1-3.3-2-5.7-5.1-5.7zM34.7 28.5l-1.5-4.1h-6.6L25 28.5h-3l6.3-16h3.3l6.3 16h-3.2zM29.9 15l-2.6 7.1h5.1L29.9 15z"/></g></svg>