<?xml version="1.0" encoding="UTF-8"?>
<svg width="42px" height="42px" viewBox="0 0 42 42" version="1.1" xmlns="http://www.w3.org/2000/svg" xmlns:xlink="http://www.w3.org/1999/xlink">
    <!-- Generator: Sketch 56.2 (81672) - https://sketch.com -->
    <title>Icon-comments</title>
    <desc>Created with Sketch.</desc>
    <g id="Icon-comments" stroke="none" stroke-width="1" fill="none" fill-rule="evenodd">
        <path d="M33.1253783,13.9765648 C31.8754358,12.4402286 30.1774866,11.2265711 28.0316946,10.3359208 C25.8859026,9.44527044 23.5419938,9 21.0002417,9 C18.4585444,9 16.1146902,9.44527044 13.9688436,10.3359208 C11.8229969,11.2265711 10.1251023,12.4400097 8.87505045,13.9765648 C7.62494385,15.5130105 7,17.1874266 7,18.9999772 C7,20.5624189 7.47121171,22.0264042 8.41401823,23.3909479 C9.35682475,24.7555464 10.6457338,25.9015595 12.2813474,26.8286043 C12.1666366,27.2451423 12.0312385,27.6408835 11.8749342,28.016211 C11.7186845,28.3911554 11.5780872,28.6985102 11.4530875,28.9382207 C11.3279783,29.1776028 11.1588675,29.4433641 10.945153,29.7347929 C10.7317669,30.0266049 10.570318,30.2324384 10.4609159,30.3522937 C10.3516233,30.4721489 10.1719499,30.6697733 9.92178624,30.9459876 C9.671951,31.2218736 9.5103927,31.4018754 9.43754917,31.4852267 C9.42698658,31.4905354 9.38539298,31.5371093 9.31249473,31.6260977 C9.2396512,31.7144841 9.20309261,31.7584858 9.20309261,31.7584858 L9.10934283,31.8991378 C9.05718664,31.9768522 9.03376288,32.0264908 9.03890735,32.0470687 C9.04416128,32.0680844 9.03376288,32.1201312 9.00771215,32.2032636 C8.98160669,32.2867792 8.98428838,32.3493338 9.01548358,32.3909274 L9.01548358,32.4066345 C9.05718664,32.5836262 9.14042857,32.7269599 9.26542828,32.8363073 C9.390428,32.9453263 9.53129896,33 9.68738441,33 L9.76559133,33 C10.4428555,32.9164844 11.0365495,32.8022662 11.546892,32.6563602 C14.2761984,31.9585181 16.672154,30.6980679 18.7345945,28.8749547 C19.515788,28.9583061 20.2710402,28.9998997 21.0001323,28.9998997 C23.5418296,28.9998997 25.8857932,28.554684 28.0315851,27.66376 C30.1773771,26.7730002 31.8753264,25.5597805 33.1252688,24.0233896 C34.3754301,22.4870533 35.0004287,20.8124731 35.0004287,18.9999225 C35.0004287,17.1876455 34.3755396,15.5130105 33.1253783,13.9765648 Z" id="Shape-Copy" fill="#FFFFFF"></path>
    </g>
</svg>