<?xml version="1.0" encoding="UTF-8"?>
<svg width="21px" height="21px" viewBox="0 0 21 21" version="1.1" xmlns="http://www.w3.org/2000/svg" xmlns:xlink="http://www.w3.org/1999/xlink">
    <!-- Generator: Sketch 56.3 (81716) - https://sketch.com -->
    <title>Group 3</title>
    <desc>Created with Sketch.</desc>
    <defs>
        <polygon id="path-1" points="0 0 21 0 21 21 0 21"></polygon>
    </defs>
    <g id="Symbols" stroke="none" stroke-width="1" fill="none" fill-rule="evenodd">
        <g id="Navigation/Header/Analisys/Translation/Qr-Neutro" transform="translate(-275.000000, -34.000000)">
            <g id="Group-3" transform="translate(275.000000, 34.000000)">
                <mask id="mask-2" fill="white">
                    <use xlink:href="#path-1"></use>
                </mask>
                <g id="Clip-2"></g>
                <path d="M4.45573333,10.15 L16.1,10.15 L16.8,10.15 L18.9,10.15 L20.1217333,10.15 C20.2547333,10.15 20.2885667,10.3408667 20.2974333,10.4365333 L16.7542667,20.1537 C16.7311667,20.2393333 16.6527667,20.3 16.5636333,20.3 L0.897633333,20.3 C0.8127,20.3 0.763233333,20.251 0.741066667,20.2220667 C0.719133333,20.1933667 0.685066667,20.1322333 0.698133333,20.0792667 L2.8,14.3145333 L2.8,14.3159333 L4.25623333,10.3243 L4.2651,10.2963 C4.2882,10.2104333 4.36683333,10.15 4.45573333,10.15 L4.45573333,10.15 Z M5.6,7.7 C5.4068,7.7 5.25,7.85633333 5.25,8.05 C5.25,8.24366667 5.4068,8.4 5.6,8.4 L14,8.4 C14.1932,8.4 14.35,8.24366667 14.35,8.05 C14.35,7.85633333 14.1932,7.7 14,7.7 L5.6,7.7 Z M16.8,7 L17.9438,7 C18.0847333,7 18.2,7.11503333 18.2,7.25643333 L18.2,9.45 L16.8,9.45 L16.8,7 Z M5.6,5.25 C5.4068,5.25 5.25,5.40633333 5.25,5.6 C5.25,5.79366667 5.4068,5.95 5.6,5.95 L9.1,5.95 C9.2932,5.95 9.45,5.79366667 9.45,5.6 C9.45,5.40633333 9.2932,5.25 9.1,5.25 L5.6,5.25 Z M0.956433333,4.55 L2.8,4.55 L2.8,12.2623667 L0.7,17.9895333 L0.7,4.80643333 C0.7,4.66503333 0.815266667,4.55 0.956433333,4.55 L0.956433333,4.55 Z M5.6,2.8 C5.4068,2.8 5.25,2.95633333 5.25,3.15 C5.25,3.34366667 5.4068,3.5 5.6,3.5 L9.1,3.5 C9.2932,3.5 9.45,3.34366667 9.45,3.15 C9.45,2.95633333 9.2932,2.8 9.1,2.8 L5.6,2.8 Z M11.55,1.1949 L15.6051,5.25 L11.55,5.25 L11.55,1.1949 Z M3.5,0.7 L10.85,0.7 L10.85,5.95 L16.1,5.95 L16.1,6.3 L16.1,9.45 L4.45573333,9.45 C4.4058,9.45 4.35633333,9.4542 4.30803333,9.46236667 C3.96713333,9.51906667 3.68316667,9.76733333 3.59846667,10.0844333 L3.5,10.3551 L3.5,3.85 L3.5,0.7 Z M2.8,0 L2.8,3.85 L0.956433333,3.85 C0.429333333,3.85 0,4.2791 0,4.80643333 L0,20.097 L0.0021,20.097 C0.000466666667,20.2941667 0.0613666667,20.4866667 0.184566667,20.6479 C0.356066667,20.8719 0.615766667,21 0.897633333,21 L16.5636333,21 C16.9682333,21 17.3240667,20.7274667 17.4206667,20.3655667 L21,10.5520333 L21,10.4904333 C21,9.88773333 20.6306333,9.45 20.1217333,9.45 L18.9,9.45 L18.9,7.25643333 C18.9,6.7291 18.4709,6.3 17.9438,6.3 L16.8,6.3 L16.8,5.4551 L16.6271,5.2822 L16.6264,5.2815 L14.0725667,2.72743333 L11.3449,0 L2.8,0 Z" id="Fill-1" fill="#FFFFFF" mask="url(#mask-2)"></path>
            </g>
        </g>
    </g>
</svg>