<svg width="42" height="42" xmlns="http://www.w3.org/2000/svg" xmlns:xlink="http://www.w3.org/1999/xlink"><defs><path id="a" d="M0 0h21v21H0z"/><path id="c" d="M0 .323h4v4H0z"/><path id="e" d="M0 .117h4v4H0z"/><path id="g" d="M0 0h4v4H0z"/></defs><g fill="none" fill-rule="evenodd"><path d="M24.5 18.777c0-.6-.4-1-1-1H11c-.6 0-1 .4-1 1s.4 1 1 1h12.5c.6 0 1-.4 1-1M11 12.678h14c.6 0 1-.4 1-1 0-.602-.4-1-1-1H11c-.6 0-1 .398-1 1 0 .6.4 1 1 1M11 24.678c-.6 0-1 .398-1 1 0 .6.4 1 1 1h6c.6 0 1-.4 1-1 0-.602-.4-1-1-1h-6Z" fill="#FFF"/><g transform="translate(19 11.677)"><mask id="b" fill="#fff"><use xlink:href="#a"/></mask><path d="m2 17.4 15-15L18.6 4l-15 15H2v-1.6ZM1 21h3c.3 0 .5-.1.7-.3l16-16c.4-.4.4-1 0-1.4l-3-3c-.4-.4-1-.4-1.4 0l-16 16c-.2.2-.3.4-.3.7v3c0 .6.4 1 1 1Z" fill="#FFF" mask="url(#b)"/></g><g transform="translate(2 9.677)"><mask id="d" fill="#fff"><use xlink:href="#c"/></mask><path d="M1.035 4.323h1.93C3.538 4.323 4 3.86 4 3.289V1.358C4 .786 3.537.323 2.966.323H1.035C.464.323 0 .786 0 1.358v1.93c0 .572.464 1.035 1.035 1.035" fill="#FFF" mask="url(#d)"/></g><g transform="translate(2 16.677)"><mask id="f" fill="#fff"><use xlink:href="#e"/></mask><path d="M1.035 4.117h1.93C3.538 4.117 4 3.654 4 3.083V1.15C4 .58 3.537.117 2.966.117H1.035C.464.117 0 .58 0 1.15v1.932c0 .57.464 1.034 1.035 1.034" fill="#FFF" mask="url(#f)"/></g><g transform="translate(2 23.677)"><mask id="h" fill="#fff"><use xlink:href="#g"/></mask><path d="M1.035 4h1.93C3.538 4 4 3.536 4 2.965v-1.93C4 .462 3.537 0 2.966 0H1.035C.464 0 0 .463 0 1.034v1.931C0 3.536.464 4 1.035 4" fill="#FFF" mask="url(#h)"/></g></g></svg>