<svg width="44" height="42" xmlns="http://www.w3.org/2000/svg"><g fill="#BBB" fill-rule="nonzero" stroke="#BBB"><path d="M41.728 20.297c-.668 0-1.202.544-1.202 1.224v11.13c0 3.028-2.42 5.485-5.383 5.485H8.786c-2.972 0-5.383-2.466-5.383-5.484V21.34c0-.68-.534-1.224-1.202-1.224-.667 0-1.201.544-1.201 1.224v11.312c0 4.378 3.497 7.931 7.786 7.931h26.357c4.298 0 7.786-3.562 7.786-7.931v-11.13c0-.672-.534-1.225-1.201-1.225Z"/><path d="M22.8 1.363A1.198 1.198 0 0 0 21.957 1c-.303 0-.614.118-.846.363L13.475 9.14a1.236 1.236 0 0 0 0 1.73c.472.481 1.228.481 1.7 0l5.58-5.691v24.826c0 .68.533 1.224 1.2 1.224.668 0 1.202-.544 1.202-1.224V5.18l5.588 5.692c.472.48 1.228.48 1.7 0 .471-.48.471-1.251 0-1.731L22.8 1.363Z"/></g></svg>