<?xml version="1.0" encoding="UTF-8"?>
<svg width="44px" height="42px" viewBox="0 0 44 42" version="1.1" xmlns="http://www.w3.org/2000/svg" xmlns:xlink="http://www.w3.org/1999/xlink">
    <!-- Generator: Sketch 56.3 (81716) - https://sketch.com -->
    <title>Icons/iconsWhite/Outline/Download</title>
    <desc>Created with Sketch.</desc>
    <g id="0.-Matecat" stroke="none" stroke-width="1" fill="none" fill-rule="evenodd">
        <g id="1.0-Homepage" transform="translate(-698.000000, -412.000000)" fill="#BBBBBB" fill-rule="nonzero" stroke="#BBBBBB">
            <g id="Icons/iconsWhite/Outline/Download" transform="translate(699.000000, 413.000000)">
                <g id="download">
                    <path d="M40.7275424,19.2974945 C40.0601695,19.2974945 39.5262712,19.8413412 39.5262712,20.5211496 L39.5262712,31.6518791 C39.5262712,34.6792926 37.1059322,37.1356669 34.1427966,37.1356669 L7.78601695,37.1356669 C4.81398305,37.1356669 2.40254237,34.6702284 2.40254237,31.6518791 L2.40254237,20.3398674 C2.40254237,19.660059 1.86864407,19.1162122 1.20127119,19.1162122 C0.533898305,19.1162122 0,19.660059 0,20.3398674 L0,31.6518791 C0,36.0298452 3.4970339,39.5829772 7.78601695,39.5829772 L34.1427966,39.5829772 C38.440678,39.5829772 41.9288136,36.0207811 41.9288136,31.6518791 L41.9288136,20.5211496 C41.9288136,19.8504053 41.3949153,19.2974945 40.7275424,19.2974945 Z" id="Shape"></path>
                    <path d="M20.1190678,29.8662491 C20.3504237,30.101916 20.6618644,30.2288136 20.9644068,30.2288136 C21.2669492,30.2288136 21.5783898,30.1109801 21.8097458,29.8662491 L29.4444915,22.089241 C29.9161017,21.608843 29.9161017,20.8383935 29.4444915,20.3579956 C28.9728814,19.8775976 28.2165254,19.8775976 27.7449153,20.3579956 L22.165678,26.0502579 L22.165678,1.22365512 C22.165678,0.543846721 21.6317797,0 20.9644068,0 C20.2970339,0 19.7631356,0.543846721 19.7631356,1.22365512 L19.7631356,26.0502579 L14.175,20.3579956 C13.7033898,19.8775976 12.9470339,19.8775976 12.4754237,20.3579956 C12.0038136,20.8383935 12.0038136,21.608843 12.4754237,22.089241 L20.1190678,29.8662491 Z" id="Shape" transform="translate(20.959958, 15.114407) rotate(-180.000000) translate(-20.959958, -15.114407) "></path>
                </g>
            </g>
        </g>
    </g>
</svg>