<svg width="42" height="42" xmlns="http://www.w3.org/2000/svg"><path d="M32.904 19.658c-.038-.337-.431-.59-.771-.59a2.663 2.663 0 0 1-2.483-1.643 2.67 2.67 0 0 1 .67-2.965.666.666 0 0 0 .074-.904 11.864 11.864 0 0 0-1.9-1.918.667.667 0 0 0-.911.073c-.715.792-1.998 1.086-2.99.672a2.663 2.663 0 0 1-1.62-2.603.665.665 0 0 0-.588-.7 11.97 11.97 0 0 0-2.697-.007.667.667 0 0 0-.594.686 2.668 2.668 0 0 1-1.642 2.558c-.98.4-2.255.108-2.968-.676a.669.669 0 0 0-.905-.076 11.909 11.909 0 0 0-1.94 1.918.667.667 0 0 0 .072.91 2.657 2.657 0 0 1 .67 2.992c-.413.986-1.436 1.621-2.608 1.621a.652.652 0 0 0-.693.589 12.01 12.01 0 0 0-.005 2.726c.038.339.443.59.787.59 1.044-.027 2.046.62 2.466 1.643a2.666 2.666 0 0 1-.67 2.965.666.666 0 0 0-.073.903c.557.71 1.196 1.355 1.897 1.919.275.221.674.19.912-.072.718-.794 2.001-1.087 2.99-.673a2.659 2.659 0 0 1 1.621 2.603c-.02.352.239.66.589.7a11.917 11.917 0 0 0 2.697.007.667.667 0 0 0 .594-.686 2.665 2.665 0 0 1 1.64-2.557c.987-.403 2.256-.108 2.97.675a.67.67 0 0 0 .904.076 11.936 11.936 0 0 0 1.94-1.918.666.666 0 0 0-.072-.91 2.657 2.657 0 0 1-.671-2.992 2.684 2.684 0 0 1 2.452-1.625l.149.004a.667.667 0 0 0 .701-.588 12 12 0 0 0 .006-2.727Zm-11.896 5.356c-2.205 0-3.999-1.794-3.999-4 0-2.204 1.794-3.998 4-3.998 2.205 0 3.999 1.794 3.999 3.999s-1.794 4-4 4Z" fill="#FFF" fill-rule="evenodd"/></svg>