<svg width="42" height="42" xmlns="http://www.w3.org/2000/svg"><path d="M20.878 9C14.318 9 9 14.319 9 20.879c0 6.56 5.318 11.877 11.878 11.877 6.56 0 11.878-5.317 11.878-11.877C32.756 14.318 27.438 9 20.878 9Zm0 3.552a3.929 3.929 0 1 1 0 7.858 3.929 3.929 0 0 1 0-7.858Zm-.003 17.098a8.717 8.717 0 0 1-5.676-2.093 1.674 1.674 0 0 1-.588-1.273c0-2.2 1.781-3.96 3.982-3.96h4.571a3.956 3.956 0 0 1 3.975 3.96c0 .49-.214.954-.587 1.272a8.714 8.714 0 0 1-5.677 2.094Z" fill="#09C" fill-rule="evenodd"/></svg>