<svg width="42" height="42" xmlns="http://www.w3.org/2000/svg"><g transform="translate(1 1)" fill="none" fill-rule="evenodd"><rect fill="#09beec" width="40" height="40" rx="2"/><path d="M31.273 19.838c.381 0 .686.31.686.687v6.244c0 2.45-1.993 4.449-4.449 4.449H12.45A4.454 4.454 0 0 1 8 26.768v-6.345c0-.381.305-.687.686-.687.382 0 .687.306.687.687v6.346a3.08 3.08 0 0 0 3.076 3.076H27.51a3.08 3.08 0 0 0 3.076-3.076v-6.244c0-.382.306-.687.687-.687Zm-11.776 5.929-4.368-4.363a.684.684 0 0 1 0-.97c.27-.27.702-.27.971 0l3.193 3.192V9.7c0-.381.305-.686.687-.686.381 0 .686.305.686.686v13.927l3.188-3.193c.27-.27.702-.27.971 0 .27.27.27.702 0 .971l-4.362 4.363a.67.67 0 0 1-.483.203.69.69 0 0 1-.483-.203Z" fill="#FFF"/></g></svg>