<svg width="21" height="21" xmlns="http://www.w3.org/2000/svg" xmlns:xlink="http://www.w3.org/1999/xlink"><defs><path id="a" d="M0 0h21v21H0z"/></defs><g fill="none" fill-rule="evenodd"><mask id="b" fill="#fff"><use xlink:href="#a"/></mask><path d="M4.456 10.15H20.122c.133 0 .167.19.175.287l-3.543 9.717a.198.198 0 0 1-.19.146H.898a.194.194 0 0 1-.157-.078c-.022-.029-.056-.09-.043-.143L2.8 14.315l1.456-3.99.01-.029a.198.198 0 0 1 .19-.146ZM5.6 7.7a.35.35 0 1 0 0 .7H14a.35.35 0 1 0 0-.7H5.6ZM16.8 7h1.144c.14 0 .256.115.256.256V9.45h-1.4V7ZM5.6 5.25a.35.35 0 1 0 0 .7h3.5a.35.35 0 1 0 0-.7H5.6Zm-4.644-.7H2.8v7.712L.7 17.99V4.806c0-.141.115-.256.256-.256ZM5.6 2.8a.35.35 0 1 0 0 .7h3.5a.35.35 0 1 0 0-.7H5.6Zm5.95-1.605 4.055 4.055H11.55V1.195ZM3.5.7h7.35v5.25h5.25v3.5H4.456a.882.882 0 0 0-.857.634l-.099.271V.7ZM2.8 0v3.85H.956A.958.958 0 0 0 0 4.806v15.291h.002A.891.891 0 0 0 .898 21h15.666c.404 0 .76-.273.857-.634L21 10.552v-.062c0-.602-.37-1.04-.878-1.04H18.9V7.256a.958.958 0 0 0-.956-.956H16.8v-.845l-.173-.173-2.554-2.555L11.345 0H2.8Z" fill="#FFF" mask="url(#b)"/></g></svg>