<?xml version="1.0" encoding="UTF-8"?>
<svg width="42px" height="42px" viewBox="0 0 42 42" version="1.1" xmlns="http://www.w3.org/2000/svg" xmlns:xlink="http://www.w3.org/1999/xlink">
    <!-- Generator: Sketch 56.2 (81672) - https://sketch.com -->
    <title>icon-user-logout</title>
    <desc>Created with Sketch.</desc>
    <g id="icon-user-logout" stroke="none" stroke-width="1" fill="none" fill-rule="evenodd">
        <g id="Header/Profile/Unlogged" transform="translate(9.000000, 9.000000)" fill="#0099CC">
            <g id="user-2">
                <path d="M11.877913,0.00052173913 C5.3186087,0.00052173913 0,5.31808696 0,11.877913 C0,18.4377391 5.31808696,23.7553043 11.877913,23.7553043 C18.4382609,23.7553043 23.7558261,18.4377391 23.7558261,11.877913 C23.7558261,5.31808696 18.4382609,0.00052173913 11.877913,0.00052173913 Z M11.877913,3.552 C14.0483478,3.552 15.8071304,5.31130435 15.8071304,7.48069565 C15.8071304,9.6506087 14.0483478,11.4093913 11.877913,11.4093913 C9.70852174,11.4093913 7.94973913,9.6506087 7.94973913,7.48069565 C7.94973913,5.31130435 9.70852174,3.552 11.877913,3.552 Z M11.8753043,20.649913 C9.7106087,20.649913 7.728,19.8615652 6.19878261,18.5566957 C5.82626087,18.2389565 5.61130435,17.7730435 5.61130435,17.2841739 C5.61130435,15.084 7.392,13.3231304 9.59269565,13.3231304 L14.1641739,13.3231304 C16.3653913,13.3231304 18.1393043,15.084 18.1393043,17.2841739 C18.1393043,17.7735652 17.9253913,18.2384348 17.5523478,18.5561739 C16.0236522,19.8615652 14.0405217,20.649913 11.8753043,20.649913 Z" id="Shape"></path>
            </g>
        </g>
    </g>
</svg>