<svg version="1.1" id="Livello_1" xmlns="http://www.w3.org/2000/svg" x="0" y="0" viewBox="0 0 100.14 100.14" style="enable-background:new 0 0 100.14 100.14" xml:space="preserve"><style>.st1{fill:#dbdfe3}</style><path class="st1" d="m30.41 39.53 13.73-12.82v40.8a5.94 5.94 0 0 0 11.88 0v-40.8l13.73 12.82c1.14 1.07 2.6 1.6 4.05 1.6 1.59 0 3.17-.63 4.34-1.89 2.24-2.4 2.11-6.16-.29-8.39L54.13 8.7c-.04-.04-.09-.08-.14-.12l-.22-.19c-.08-.06-.15-.12-.23-.17-.08-.05-.15-.11-.23-.16-.08-.05-.17-.1-.25-.15-.08-.05-.16-.09-.24-.13-.09-.04-.17-.09-.26-.13a2.03 2.03 0 0 0-.26-.11c-.09-.04-.18-.07-.26-.1l-.27-.09c-.09-.03-.18-.05-.27-.07-.09-.02-.18-.05-.28-.07-.12-.02-.22-.03-.32-.04-.08-.01-.17-.03-.25-.03-.17-.02-.34-.02-.51-.03h-.12c-.17 0-.34.01-.51.03l-.25.03c-.1.01-.21.03-.31.05-.09.02-.19.04-.28.07-.09.02-.18.04-.27.07l-.27.09c-.09.03-.18.06-.26.1-.09.04-.17.07-.26.11-.09.04-.18.08-.26.13-.08.04-.16.09-.24.13-.09.05-.17.1-.25.15-.08.05-.15.1-.23.16-.08.06-.16.11-.23.17a2 2 0 0 0-.22.19c-.05.04-.09.08-.14.12L22.3 30.85c-2.4 2.24-2.53 6-.29 8.39 2.24 2.4 6 2.53 8.4.29z"/><path class="st1" d="M86.1 68.49a5.94 5.94 0 0 0-5.94 5.94v6.73H19.99v-6.73a5.94 5.94 0 0 0-11.88 0V87.1a5.94 5.94 0 0 0 5.94 5.94H86.1a5.94 5.94 0 0 0 5.94-5.94V74.43a5.94 5.94 0 0 0-5.94-5.94z"/></svg>