<?xml version="1.0" encoding="utf-8"?>
<!-- Generator: Adobe Illustrator 23.0.4, SVG Export Plug-In . SVG Version: 6.00 Build 0)  -->
<svg version="1.1" id="Livello_1" xmlns="http://www.w3.org/2000/svg" xmlns:xlink="http://www.w3.org/1999/xlink" x="0px" y="0px"
	 viewBox="0 0 42 42" style="enable-background:new 0 0 42 42;" xml:space="preserve">
<style type="text/css">
	.st0{fill:none;stroke:#FAFAFA;}
	.st1{enable-background:new    ;}
	.st2{fill:#FFFFFF;}
</style>
<title>Icon-QR</title>
<desc>Created with Sketch.</desc>
<g id="Icon-QR">
	<g id="Group" transform="translate(1.000000, 1.000000)">
		<path id="Rectangle" class="st0" d="M2,0h36c1.1,0,2,0.9,2,2v36c0,1.1-0.9,2-2,2H2c-1.1,0-2-0.9-2-2V2C0,0.9,0.9,0,2,0z"/>
		<g class="st1">
			<path class="st2" d="M17.5,25.4l1.8,2.1L17.4,29l-1.9-2.3c-1,0.5-2.2,0.7-3.5,0.7c-4.9,0-7.9-3.6-7.9-8.3c0-4.7,3-8.3,7.9-8.3
				s7.9,3.6,7.9,8.3C20,21.7,19,23.9,17.5,25.4z M12,13.5c-3.2,0-5,2.4-5,5.7c0,3.3,1.8,5.7,5,5.7c0.6,0,1.2-0.1,1.7-0.4l-1.6-1.9
				l1.8-1.4l1.8,2.1c0.9-1,1.4-2.4,1.4-4.1C17,15.9,15.2,13.5,12,13.5z"/>
			<path class="st2" d="M33,27.2l-3.2-6.1h-4v6.1H23v-16h7.2c3.5,0,5.6,1.9,5.6,4.8c0,2.3-1.4,3.8-3.2,4.5l3.6,6.6H33z M30.1,13.6
				h-4.3v5.1h4.3c1.6,0,2.7-1,2.7-2.5C32.8,14.6,31.7,13.6,30.1,13.6z"/>
		</g>
	</g>
</g>
</svg>
