<?xml version="1.0" encoding="utf-8"?>
<!-- Generator: Adobe Illustrator 23.0.4, SVG Export Plug-In . SVG Version: 6.00 Build 0)  -->
<svg version="1.1" id="Livello_1" xmlns="http://www.w3.org/2000/svg" xmlns:xlink="http://www.w3.org/1999/xlink" x="0px" y="0px"
	 viewBox="0 0 42 42" style="enable-background:new 0 0 42 42;" xml:space="preserve">
<style type="text/css">
	.st0{enable-background:new    ;}
	.st1{fill:#FFFFFF;}
</style>
<title>Icon-QA</title>
<desc>Created with Sketch.</desc>
<g id="Icon-QA">
	<g class="st0">
		<path class="st1" d="M18.5,26.8l1.8,2.1l-1.8,1.5l-1.9-2.3c-1,0.5-2.2,0.7-3.5,0.7c-4.9,0-7.9-3.6-7.9-8.3c0-4.7,3-8.3,7.9-8.3
			s7.9,3.6,7.9,8.3C21,23.1,20.1,25.3,18.5,26.8z M13.1,14.9c-3.2,0-5,2.4-5,5.7c0,3.3,1.8,5.7,5,5.7c0.6,0,1.2-0.1,1.7-0.4
			l-1.6-1.9l1.8-1.4l1.8,2.1c0.9-1,1.4-2.4,1.4-4.1C18.1,17.3,16.2,14.9,13.1,14.9z"/>
		<path class="st1" d="M34.7,28.5l-1.5-4.1h-6.6L25,28.5h-3l6.3-16h3.3l6.3,16H34.7z M29.9,15l-2.6,7.1h5.1L29.9,15z"/>
	</g>
</g>
</svg>
