<?xml version="1.0" encoding="utf-8"?>
<!-- Generator: Adobe Illustrator 26.2.1, SVG Export Plug-In . SVG Version: 6.00 Build 0)  -->
<svg version="1.1" id="Livello_1" xmlns="http://www.w3.org/2000/svg" xmlns:xlink="http://www.w3.org/1999/xlink" x="0px" y="0px"
	 viewBox="0 0 16 16" style="enable-background:new 0 0 16 16;" xml:space="preserve">
<style type="text/css">
	.st0{fill:#020203;}
	.st1{fill:#FFFFFF;}
	.st2{fill:#0099CD;}
</style>
<g>
	<g>
		<path class="st0" d="M8,0C3.58,0,0,3.58,0,8c0,4.42,3.59,8,8,8s8-3.58,8-8C16,3.58,12.42,0,8,0z M8,14.87
			c-3.79,0-6.87-3.08-6.87-6.87C1.14,4.2,4.23,1.13,8,1.13c3.8,0,6.87,3.08,6.87,6.87C14.87,11.79,11.79,14.87,8,14.87z"/>
		<path class="st1" d="M8,1.13C4.23,1.13,1.14,4.2,1.13,8c0,3.79,3.08,6.87,6.87,6.87s6.87-3.08,6.87-6.87
			C14.87,4.21,11.8,1.13,8,1.13z M7.25,8.54v2.35H4.56V8.95H4.55c0-1.68,0.65-2.8,1.97-4.02l0.79,0.89C6.47,6.55,6,7.43,6,8.36v0.18
			H7.25z M11.47,7.27c0,1.67-0.66,2.8-1.98,3.99l-0.78-0.87c0.83-0.73,1.31-1.64,1.31-2.56V7.65H8.77V5.3h2.7V7.27z"/>
		<g>
			<path class="st2" d="M11.47,5.3v1.97c0,1.67-0.66,2.8-1.98,3.99l-0.78-0.87c0.83-0.73,1.31-1.64,1.31-2.56V7.65H8.77V5.3H11.47z"
				/>
			<path class="st0" d="M6,8.54h1.25v2.35H4.56V8.95H4.55c0-1.68,0.65-2.8,1.97-4.02l0.79,0.89C6.47,6.55,6,7.43,6,8.36V8.54z"/>
		</g>
	</g>
</g>
</svg>
