<?xml version="1.0" encoding="utf-8"?>
<!-- Generator: Adobe Illustrator 26.2.1, SVG Export Plug-In . SVG Version: 6.00 Build 0)  -->
<svg version="1.1" id="Livello_1" xmlns="http://www.w3.org/2000/svg" xmlns:xlink="http://www.w3.org/1999/xlink" x="0px" y="0px"
	 viewBox="0 0 32 32" style="enable-background:new 0 0 32 32;" xml:space="preserve">
<style type="text/css">
	.st0{fill:#020203;}
	.st1{fill:#FFFFFF;}
	.st2{fill:#0099CD;}
</style>
<g>
	<g>
		<path class="st0" d="M16,0C7.16,0,0,7.16,0,16c0,8.84,7.18,16,16,16s16-7.16,16-16C32,7.16,24.84,0,16,0z M16,29.74
			C8.42,29.74,2.26,23.58,2.26,16C2.28,8.4,8.46,2.26,16,2.26c7.6,0,13.74,6.16,13.74,13.74C29.74,23.58,23.58,29.74,16,29.74z"/>
		<path class="st1" d="M16,2.26C8.46,2.26,2.28,8.4,2.26,16c0,7.58,6.16,13.74,13.74,13.74S29.74,23.58,29.74,16
			C29.74,8.42,23.6,2.26,16,2.26z M14.5,17.08v4.7H9.12V17.9H9.1c0-3.36,1.3-5.6,3.94-8.04l1.58,1.78C12.94,13.1,12,14.86,12,16.72
			v0.36H14.5z M22.94,14.54c0,3.34-1.32,5.6-3.96,7.98l-1.56-1.74c1.66-1.46,2.62-3.28,2.62-5.12V15.3h-2.5v-4.7h5.4V14.54z"/>
		<g>
			<path class="st2" d="M22.94,10.6v3.94c0,3.34-1.32,5.6-3.96,7.98l-1.56-1.74c1.66-1.46,2.62-3.28,2.62-5.12V15.3h-2.5v-4.7H22.94
				z"/>
			<path class="st0" d="M12,17.08h2.5v4.7H9.12V17.9H9.1c0-3.36,1.3-5.6,3.94-8.04l1.58,1.78C12.94,13.1,12,14.86,12,16.72V17.08z"
				/>
		</g>
	</g>
</g>
</svg>
