<?xml version="1.0" encoding="UTF-8" standalone="no"?>
<!DOCTYPE svg PUBLIC "-//W3C//DTD SVG 1.1//EN"
 "http://www.w3.org/Graphics/SVG/1.1/DTD/svg11.dtd">
<!-- Generated by graphviz version 2.36.0 (20140111.2315)
 -->
<!-- Title: G Pages: 1 -->
<svg width="884pt" height="565pt"
     viewBox="0.00 0.00 884.00 565.00" xmlns="http://www.w3.org/2000/svg">
<g id="graph0" class="graph" transform="scale(1 1) rotate(0) translate(4 561)">
<title>G</title>
<polygon fill="white" stroke="none" points="-4,4 -4,-561 880,-561 880,4 -4,4"/>
<g id="clust1" class="cluster"><title>cluster_Global</title>
<path fill="none" stroke="gray" d="M20,-45C20,-45 856,-45 856,-45 862,-45 868,-51 868,-57 868,-57 868,-537 868,-537 868,-543 862,-549 856,-549 856,-549 20,-549 20,-549 14,-549 8,-543 8,-537 8,-537 8,-57 8,-57 8,-51 14,-45 20,-45"/>
<text text-anchor="middle" x="438" y="-536.2" font-family="Times,serif" font-size="11.00" fill="gray">Global</text>
</g>
<!-- \\outsourceToController -->
<g id="node1" class="node"><title>\\outsourceToController</title>
<polygon fill="none" stroke="black" points="494,-413 378,-413 378,-377 494,-377 494,-413"/>
<text text-anchor="middle" x="436" y="-392.2" font-family="Times,serif" font-size="11.00">outsourceToController</text>
</g>
<!-- \\ajaxController -->
<g id="node2" class="node"><title>\\ajaxController</title>
<polygon fill="none" stroke="black" points="247,-386 167,-386 167,-350 247,-350 247,-386"/>
<text text-anchor="start" x="184" y="-371.2" font-family="Times,serif" font-size="11.00">«abstract»</text>
<text text-anchor="start" x="175" y="-359.2" font-family="Times,serif" font-size="11.00">ajaxController</text>
</g>
<!-- \\outsourceToController&#45;&gt;\\ajaxController -->
<g id="edge1" class="edge"><title>\\outsourceToController&#45;&gt;\\ajaxController</title>
<path fill="none" stroke="black" d="M377.718,-388.187C340.541,-383.765 292.598,-378.062 257.155,-373.847"/>
<polygon fill="none" stroke="black" points="257.39,-370.35 247.047,-372.644 256.563,-377.301 257.39,-370.35"/>
</g>
<!-- \\controller -->
<g id="node4" class="node"><title>\\controller</title>
<polygon fill="none" stroke="black" points="78,-332 16,-332 16,-296 78,-296 78,-332"/>
<text text-anchor="start" x="24" y="-317.2" font-family="Times,serif" font-size="11.00">«abstract»</text>
<text text-anchor="start" x="25.5" y="-305.2" font-family="Times,serif" font-size="11.00">controller</text>
</g>
<!-- \\ajaxController&#45;&gt;\\controller -->
<g id="edge2" class="edge"><title>\\ajaxController&#45;&gt;\\controller</title>
<path fill="none" stroke="black" d="M166.944,-354.652C142.849,-346.417 112.026,-335.882 87.7948,-327.601"/>
<polygon fill="none" stroke="black" points="88.7841,-324.24 78.1895,-324.318 86.5202,-330.864 88.7841,-324.24"/>
</g>
<!-- \\viewController -->
<g id="node3" class="node"><title>\\viewController</title>
<polygon fill="none" stroke="black" points="248.5,-305 165.5,-305 165.5,-269 248.5,-269 248.5,-305"/>
<text text-anchor="start" x="184" y="-290.2" font-family="Times,serif" font-size="11.00">«abstract»</text>
<text text-anchor="start" x="173.5" y="-278.2" font-family="Times,serif" font-size="11.00">viewController</text>
</g>
<!-- \\viewController&#45;&gt;\\controller -->
<g id="edge3" class="edge"><title>\\viewController&#45;&gt;\\controller</title>
<path fill="none" stroke="black" d="M165.311,-293.953C141.576,-298.009 111.753,-303.105 88.1171,-307.145"/>
<polygon fill="none" stroke="black" points="87.3376,-303.727 78.0701,-308.861 88.5168,-310.627 87.3376,-303.727"/>
</g>
<!-- \\MultiCurlHandler -->
<g id="node5" class="node"><title>\\MultiCurlHandler</title>
<polygon fill="none" stroke="black" points="782,-521 686,-521 686,-485 782,-485 782,-521"/>
<text text-anchor="middle" x="734" y="-500.2" font-family="Times,serif" font-size="11.00">MultiCurlHandler</text>
</g>
<!-- \\OutsourceTo_MyCustomProvider1 -->
<g id="node6" class="node"><title>\\OutsourceTo_MyCustomProvider1</title>
<polygon fill="none" stroke="black" points="819.5,-467 648.5,-467 648.5,-431 819.5,-431 819.5,-467"/>
<text text-anchor="middle" x="734" y="-446.2" font-family="Times,serif" font-size="11.00">OutsourceTo_MyCustomProvider1</text>
</g>
<!-- \\OutsourceTo_AbstractProvider -->
<g id="node8" class="node"><title>\\OutsourceTo_AbstractProvider</title>
<polygon fill="none" stroke="black" points="513.5,-359 358.5,-359 358.5,-323 513.5,-323 513.5,-359"/>
<text text-anchor="start" x="413" y="-344.2" font-family="Times,serif" font-size="11.00">«abstract»</text>
<text text-anchor="start" x="366.5" y="-332.2" font-family="Times,serif" font-size="11.00">OutsourceTo_AbstractProvider</text>
</g>
<!-- \\OutsourceTo_MyCustomProvider1&#45;&gt;\\OutsourceTo_AbstractProvider -->
<g id="edge4" class="edge"><title>\\OutsourceTo_MyCustomProvider1&#45;&gt;\\OutsourceTo_AbstractProvider</title>
<path fill="none" stroke="black" d="M648.351,-435.916C634.534,-432.318 620.624,-427.761 608,-422 571.61,-405.394 571.933,-385.574 536,-368 531.929,-366.009 527.69,-364.147 523.355,-362.408"/>
<polygon fill="none" stroke="black" points="524.336,-359.038 513.744,-358.796 521.874,-365.59 524.336,-359.038"/>
</g>
<!-- \\OutsourceTo_MyCustomProvider2 -->
<g id="node7" class="node"><title>\\OutsourceTo_MyCustomProvider2</title>
<polygon fill="none" stroke="black" points="819.5,-413 648.5,-413 648.5,-377 819.5,-377 819.5,-413"/>
<text text-anchor="middle" x="734" y="-392.2" font-family="Times,serif" font-size="11.00">OutsourceTo_MyCustomProvider2</text>
</g>
<!-- \\OutsourceTo_MyCustomProvider2&#45;&gt;\\OutsourceTo_AbstractProvider -->
<g id="edge5" class="edge"><title>\\OutsourceTo_MyCustomProvider2&#45;&gt;\\OutsourceTo_AbstractProvider</title>
<path fill="none" stroke="black" d="M648.178,-379.526C609.204,-372.416 563.033,-363.993 523.818,-356.838"/>
<polygon fill="none" stroke="black" points="524.211,-353.352 513.745,-355.001 522.954,-360.239 524.211,-353.352"/>
</g>
<!-- \\OutsourceTo_Translated -->
<g id="node9" class="node"><title>\\OutsourceTo_Translated</title>
<polygon fill="none" stroke="black" points="797.5,-359 670.5,-359 670.5,-323 797.5,-323 797.5,-359"/>
<text text-anchor="middle" x="734" y="-338.2" font-family="Times,serif" font-size="11.00">OutsourceTo_Translated</text>
</g>
<!-- \\OutsourceTo_Translated&#45;&gt;\\OutsourceTo_AbstractProvider -->
<g id="edge6" class="edge"><title>\\OutsourceTo_Translated&#45;&gt;\\OutsourceTo_AbstractProvider</title>
<path fill="none" stroke="black" d="M670.226,-341C627.617,-341 570.712,-341 523.779,-341"/>
<polygon fill="none" stroke="black" points="523.618,-337.5 513.618,-341 523.618,-344.5 523.618,-337.5"/>
</g>
<!-- \\OutsourceTo_MyCustomProvider3 -->
<g id="node10" class="node"><title>\\OutsourceTo_MyCustomProvider3</title>
<polygon fill="none" stroke="black" points="819.5,-305 648.5,-305 648.5,-269 819.5,-269 819.5,-305"/>
<text text-anchor="middle" x="734" y="-284.2" font-family="Times,serif" font-size="11.00">OutsourceTo_MyCustomProvider3</text>
</g>
<!-- \\OutsourceTo_MyCustomProvider3&#45;&gt;\\OutsourceTo_AbstractProvider -->
<g id="edge7" class="edge"><title>\\OutsourceTo_MyCustomProvider3&#45;&gt;\\OutsourceTo_AbstractProvider</title>
<path fill="none" stroke="black" d="M648.178,-302.474C609.204,-309.584 563.033,-318.007 523.818,-325.162"/>
<polygon fill="none" stroke="black" points="522.954,-321.761 513.745,-326.999 524.211,-328.648 522.954,-321.761"/>
</g>
<!-- \\OutsourceTo_MyCustomProvider3SuccessController -->
<g id="node11" class="node"><title>\\OutsourceTo_MyCustomProvider3SuccessController</title>
<polygon fill="none" stroke="black" points="860,-251 608,-251 608,-215 860,-215 860,-251"/>
<text text-anchor="middle" x="734" y="-230.2" font-family="Times,serif" font-size="11.00">OutsourceTo_MyCustomProvider3SuccessController</text>
</g>
<!-- \\OutsourceTo_AbstractSuccessController -->
<g id="node12" class="node"><title>\\OutsourceTo_AbstractSuccessController</title>
<polygon fill="none" stroke="black" points="535.5,-251 336.5,-251 336.5,-215 535.5,-215 535.5,-251"/>
<text text-anchor="start" x="413" y="-236.2" font-family="Times,serif" font-size="11.00">«abstract»</text>
<text text-anchor="start" x="344.5" y="-224.2" font-family="Times,serif" font-size="11.00">OutsourceTo_AbstractSuccessController</text>
</g>
<!-- \\OutsourceTo_MyCustomProvider3SuccessController&#45;&gt;\\OutsourceTo_AbstractSuccessController -->
<g id="edge8" class="edge"><title>\\OutsourceTo_MyCustomProvider3SuccessController&#45;&gt;\\OutsourceTo_AbstractSuccessController</title>
<path fill="none" stroke="black" d="M607.898,-233C587.247,-233 565.985,-233 545.776,-233"/>
<polygon fill="none" stroke="black" points="545.63,-229.5 535.63,-233 545.63,-236.5 545.63,-229.5"/>
</g>
<!-- \\OutsourceTo_AbstractSuccessController&#45;&gt;\\viewController -->
<g id="edge9" class="edge"><title>\\OutsourceTo_AbstractSuccessController&#45;&gt;\\viewController</title>
<path fill="none" stroke="black" d="M359.097,-251.056C326.123,-258.9 288.376,-267.88 258.859,-274.901"/>
<polygon fill="none" stroke="black" points="257.701,-271.579 248.783,-277.298 259.321,-278.389 257.701,-271.579"/>
</g>
<!-- \\OutsourceTo_TranslatedSuccessController -->
<g id="node13" class="node"><title>\\OutsourceTo_TranslatedSuccessController</title>
<polygon fill="none" stroke="black" points="838,-197 630,-197 630,-161 838,-161 838,-197"/>
<text text-anchor="middle" x="734" y="-176.2" font-family="Times,serif" font-size="11.00">OutsourceTo_TranslatedSuccessController</text>
</g>
<!-- \\OutsourceTo_TranslatedSuccessController&#45;&gt;\\OutsourceTo_AbstractSuccessController -->
<g id="edge10" class="edge"><title>\\OutsourceTo_TranslatedSuccessController&#45;&gt;\\OutsourceTo_AbstractSuccessController</title>
<path fill="none" stroke="black" d="M634.025,-197.056C605.686,-202.226 574.643,-207.889 545.752,-213.16"/>
<polygon fill="none" stroke="black" points="544.839,-209.769 535.63,-215.007 546.096,-216.655 544.839,-209.769"/>
</g>
<!-- \\Shop_Cart -->
<g id="node14" class="node"><title>\\Shop_Cart</title>
<polygon fill="none" stroke="black" points="765.5,-143 702.5,-143 702.5,-107 765.5,-107 765.5,-143"/>
<text text-anchor="middle" x="734" y="-122.2" font-family="Times,serif" font-size="11.00">Shop_Cart</text>
</g>
<!-- \\Shop_AbstractItem -->
<g id="node15" class="node"><title>\\Shop_AbstractItem</title>
<polygon fill="none" stroke="black" points="487,-89 385,-89 385,-53 487,-53 487,-89"/>
<text text-anchor="start" x="413" y="-74.2" font-family="Times,serif" font-size="11.00">«abstract»</text>
<text text-anchor="start" x="393" y="-62.2" font-family="Times,serif" font-size="11.00">Shop_AbstractItem</text>
</g>
<!-- \\Shop_ItemInterface -->
<g id="node17" class="node"><title>\\Shop_ItemInterface</title>
<polygon fill="none" stroke="black" points="259,-90 155,-90 155,-54 259,-54 259,-90"/>
<text text-anchor="middle" x="207" y="-69.2" font-family="Times,serif" font-size="11.00">Shop_ItemInterface</text>
</g>
<!-- \\Shop_AbstractItem&#45;&gt;\\Shop_ItemInterface -->
<g id="edge12" class="edge"><title>\\Shop_AbstractItem&#45;&gt;\\Shop_ItemInterface</title>
<path fill="none" stroke="black" stroke-dasharray="1,5" d="M384.903,-71.2207C350.916,-71.3704 305.762,-71.5693 269.581,-71.7287"/>
<polygon fill="none" stroke="black" points="269.132,-68.2306 259.148,-71.7747 269.163,-75.2305 269.132,-68.2306"/>
</g>
<!-- \\ArrayObject -->
<g id="node18" class="node"><title>\\ArrayObject</title>
<ellipse fill="none" stroke="black" cx="207" cy="-18" rx="57.3905" ry="18"/>
<text text-anchor="middle" x="207" y="-14.3" font-family="Times,serif" font-size="14.00" fill="gray">\ArrayObject</text>
</g>
<!-- \\Shop_AbstractItem&#45;&gt;\\ArrayObject -->
<g id="edge11" class="edge"><title>\\Shop_AbstractItem&#45;&gt;\\ArrayObject</title>
<path fill="none" stroke="black" d="M384.903,-59.3033C348.98,-50.9161 300.582,-39.616 263.489,-30.9555"/>
<polygon fill="none" stroke="black" points="263.88,-27.4528 253.346,-28.5874 262.288,-34.2695 263.88,-27.4528"/>
</g>
<!-- \\Shop_ItemHTSQuoteJob -->
<g id="node16" class="node"><title>\\Shop_ItemHTSQuoteJob</title>
<polygon fill="none" stroke="black" points="797.5,-89 670.5,-89 670.5,-53 797.5,-53 797.5,-89"/>
<text text-anchor="middle" x="734" y="-68.2" font-family="Times,serif" font-size="11.00">Shop_ItemHTSQuoteJob</text>
</g>
<!-- \\Shop_ItemHTSQuoteJob&#45;&gt;\\Shop_AbstractItem -->
<g id="edge13" class="edge"><title>\\Shop_ItemHTSQuoteJob&#45;&gt;\\Shop_AbstractItem</title>
<path fill="none" stroke="black" d="M670.226,-71C619.262,-71 547.846,-71 497.503,-71"/>
<polygon fill="none" stroke="black" points="497.412,-67.5001 487.411,-71 497.411,-74.5001 497.412,-67.5001"/>
</g>
</g>
</svg>
