<?xml version="1.0" encoding="UTF-8" standalone="no"?>
<!DOCTYPE svg PUBLIC "-//W3C//DTD SVG 1.1//EN"
 "http://www.w3.org/Graphics/SVG/1.1/DTD/svg11.dtd">
<!-- Generated by graphviz version 2.26.3 (20100126.1600)
 -->
<!-- Title: G Pages: 1 -->
<svg width="960pt" height="351pt"
 viewBox="0.00 0.00 960.00 351.00" xmlns="http://www.w3.org/2000/svg" xmlns:xlink="http://www.w3.org/1999/xlink">
<g id="graph1" class="graph" transform="scale(1 1) rotate(0) translate(4 347)">
<title>G</title>
<polygon fill="white" stroke="white" points="-4,5 -4,-347 957,-347 957,5 -4,5"/>
<g id="graph2" class="cluster"><title>cluster_Global</title>
<polyline fill="none" stroke="gray" points="20,-45 932,-45 "/>
<path fill="none" stroke="gray" d="M932,-45C938,-45 944,-51 944,-57"/>
<polyline fill="none" stroke="gray" points="944,-57 944,-323 "/>
<path fill="none" stroke="gray" d="M944,-323C944,-329 938,-335 932,-335"/>
<polyline fill="none" stroke="gray" points="932,-335 20,-335 "/>
<path fill="none" stroke="gray" d="M20,-335C14,-335 8,-329 8,-323"/>
<polyline fill="none" stroke="gray" points="8,-323 8,-57 "/>
<path fill="none" stroke="gray" d="M8,-57C8,-51 14,-45 20,-45"/>
<text text-anchor="middle" x="476" y="-321.1" font-family="Times Roman,serif" font-size="11.00" fill="gray">Global</text>
</g>
<!-- \\outsourceToController -->
<g id="node2" class="node"><title>\\outsourceToController</title>
<polygon fill="none" stroke="black" points="569,-305 435,-305 435,-269 569,-269 569,-305"/>
<text text-anchor="middle" x="502" y="-284.1" font-family="Times Roman,serif" font-size="11.00">outsourceToController</text>
</g>
<!-- \\ajaxController -->
<g id="node3" class="node"><title>\\ajaxController</title>
<polygon fill="none" stroke="black" points="285,-291 193,-291 193,-255 285,-255 285,-291"/>
<text text-anchor="start" x="209" y="-278.433" font-family="Times Roman,serif" font-size="11.00">«abstract»</text>
<text text-anchor="start" x="201" y="-265.233" font-family="Times Roman,serif" font-size="11.00">ajaxController</text>
</g>
<!-- \\outsourceToController&#45;&gt;\\ajaxController -->
<g id="edge3" class="edge"><title>\\outsourceToController&#45;&gt;\\ajaxController</title>
<path fill="none" stroke="black" d="M434.271,-283.395C391.337,-281.109 336.436,-278.187 295.789,-276.023"/>
<polygon fill="none" stroke="black" points="295.95,-272.527 285.778,-275.49 295.577,-279.517 295.95,-272.527"/>
</g>
<!-- \\controller -->
<g id="node5" class="node"><title>\\controller</title>
<polygon fill="none" stroke="black" points="93,-251 17,-251 17,-215 93,-215 93,-251"/>
<text text-anchor="start" x="25" y="-238.433" font-family="Times Roman,serif" font-size="11.00">«abstract»</text>
<text text-anchor="start" x="29.5" y="-225.233" font-family="Times Roman,serif" font-size="11.00">controller</text>
</g>
<!-- \\ajaxController&#45;&gt;\\controller -->
<g id="edge5" class="edge"><title>\\ajaxController&#45;&gt;\\controller</title>
<path fill="none" stroke="black" d="M192.093,-262.803C165.091,-256.933 131.204,-249.566 103.877,-243.625"/>
<polygon fill="none" stroke="black" points="104.268,-240.129 93.753,-241.425 102.781,-246.969 104.268,-240.129"/>
</g>
<!-- \\viewController -->
<g id="node4" class="node"><title>\\viewController</title>
<polygon fill="none" stroke="black" points="286,-224 192,-224 192,-188 286,-188 286,-224"/>
<text text-anchor="start" x="209" y="-211.433" font-family="Times Roman,serif" font-size="11.00">«abstract»</text>
<text text-anchor="start" x="200" y="-198.233" font-family="Times Roman,serif" font-size="11.00">viewController</text>
</g>
<!-- \\viewController&#45;&gt;\\controller -->
<g id="edge7" class="edge"><title>\\viewController&#45;&gt;\\controller</title>
<path fill="none" stroke="black" d="M191.136,-213.023C164.227,-216.972 130.716,-221.89 103.675,-225.857"/>
<polygon fill="none" stroke="black" points="103.042,-222.413 93.6557,-227.328 104.058,-229.339 103.042,-222.413"/>
</g>
<!-- \\MultiCurlHandler -->
<g id="node6" class="node"><title>\\MultiCurlHandler</title>
<polygon fill="none" stroke="black" points="866,-305 762,-305 762,-269 866,-269 866,-305"/>
<text text-anchor="middle" x="814" y="-284.1" font-family="Times Roman,serif" font-size="11.00">MultiCurlHandler</text>
</g>
<!-- \\OutsourceTo_AbstractProvider -->
<g id="node7" class="node"><title>\\OutsourceTo_AbstractProvider</title>
<polygon fill="none" stroke="black" points="593,-251 411,-251 411,-215 593,-215 593,-251"/>
<text text-anchor="start" x="472" y="-238.433" font-family="Times Roman,serif" font-size="11.00">«abstract»</text>
<text text-anchor="start" x="419.5" y="-225.233" font-family="Times Roman,serif" font-size="11.00">OutsourceTo_AbstractProvider</text>
</g>
<!-- \\OutsourceTo_Translated -->
<g id="node8" class="node"><title>\\OutsourceTo_Translated</title>
<polygon fill="none" stroke="black" points="887,-251 741,-251 741,-215 887,-215 887,-251"/>
<text text-anchor="middle" x="814" y="-230.1" font-family="Times Roman,serif" font-size="11.00">OutsourceTo_Translated</text>
</g>
<!-- \\OutsourceTo_Translated&#45;&gt;\\OutsourceTo_AbstractProvider -->
<g id="edge9" class="edge"><title>\\OutsourceTo_Translated&#45;&gt;\\OutsourceTo_AbstractProvider</title>
<path fill="none" stroke="black" d="M740.455,-233C699.504,-233 647.914,-233 603.204,-233"/>
<polygon fill="none" stroke="black" points="603.185,-229.5 593.185,-233 603.185,-236.5 603.185,-229.5"/>
</g>
<!-- \\OutsourceTo_AbstractSuccessController -->
<g id="node9" class="node"><title>\\OutsourceTo_AbstractSuccessController</title>
<polygon fill="none" stroke="black" points="620,-197 384,-197 384,-161 620,-161 620,-197"/>
<text text-anchor="start" x="472" y="-184.433" font-family="Times Roman,serif" font-size="11.00">«abstract»</text>
<text text-anchor="start" x="392.5" y="-171.233" font-family="Times Roman,serif" font-size="11.00">OutsourceTo_AbstractSuccessController</text>
</g>
<!-- \\OutsourceTo_AbstractSuccessController&#45;&gt;\\viewController -->
<g id="edge11" class="edge"><title>\\OutsourceTo_AbstractSuccessController&#45;&gt;\\viewController</title>
<path fill="none" stroke="black" d="M383.963,-191.118C353.718,-194.223 322.513,-197.426 296.839,-200.062"/>
<polygon fill="none" stroke="black" points="296.149,-196.615 286.558,-201.118 296.863,-203.578 296.149,-196.615"/>
</g>
<!-- \\OutsourceTo_TranslatedSuccessController -->
<g id="node10" class="node"><title>\\OutsourceTo_TranslatedSuccessController</title>
<polygon fill="none" stroke="black" points="936,-197 692,-197 692,-161 936,-161 936,-197"/>
<text text-anchor="middle" x="814" y="-176.1" font-family="Times Roman,serif" font-size="11.00">OutsourceTo_TranslatedSuccessController</text>
</g>
<!-- \\OutsourceTo_TranslatedSuccessController&#45;&gt;\\OutsourceTo_AbstractSuccessController -->
<g id="edge13" class="edge"><title>\\OutsourceTo_TranslatedSuccessController&#45;&gt;\\OutsourceTo_AbstractSuccessController</title>
<path fill="none" stroke="black" d="M691.585,-179C671.504,-179 650.643,-179 630.421,-179"/>
<polygon fill="none" stroke="black" points="630.233,-175.5 620.233,-179 630.233,-182.5 630.233,-175.5"/>
</g>
<!-- \\Shop_Cart -->
<g id="node11" class="node"><title>\\Shop_Cart</title>
<polygon fill="none" stroke="black" points="851,-143 777,-143 777,-107 851,-107 851,-143"/>
<text text-anchor="middle" x="814" y="-122.1" font-family="Times Roman,serif" font-size="11.00">Shop_Cart</text>
</g>
<!-- \\Shop_AbstractItem -->
<g id="node12" class="node"><title>\\Shop_AbstractItem</title>
<polygon fill="none" stroke="black" points="563,-89 441,-89 441,-53 563,-53 563,-89"/>
<text text-anchor="start" x="472" y="-76.4333" font-family="Times Roman,serif" font-size="11.00">«abstract»</text>
<text text-anchor="start" x="449" y="-63.2333" font-family="Times Roman,serif" font-size="11.00">Shop_AbstractItem</text>
</g>
<!-- \\Shop_ItemInterface -->
<g id="node14" class="node"><title>\\Shop_ItemInterface</title>
<polygon fill="none" stroke="black" points="300,-90 178,-90 178,-54 300,-54 300,-90"/>
<text text-anchor="middle" x="239" y="-69.1" font-family="Times Roman,serif" font-size="11.00">Shop_ItemInterface</text>
</g>
<!-- \\Shop_AbstractItem&#45;&gt;\\Shop_ItemInterface -->
<g id="edge17" class="edge"><title>\\Shop_AbstractItem&#45;&gt;\\Shop_ItemInterface</title>
<path fill="none" stroke="black" stroke-dasharray="1,5" d="M440.338,-71.2345C401.568,-71.3819 351.388,-71.5727 310.824,-71.7269"/>
<polygon fill="none" stroke="black" points="310.717,-68.2272 300.731,-71.7653 310.744,-75.2271 310.717,-68.2272"/>
</g>
<!-- \\ArrayObject -->
<g id="node22" class="node"><title>\\ArrayObject</title>
<ellipse fill="none" stroke="black" cx="239" cy="-18" rx="72.832" ry="18.3848"/>
<text text-anchor="middle" x="239" y="-14.4" font-family="Times Roman,serif" font-size="14.00" fill="gray">\ArrayObject</text>
</g>
<!-- \\Shop_AbstractItem&#45;&gt;\\ArrayObject -->
<g id="edge15" class="edge"><title>\\Shop_AbstractItem&#45;&gt;\\ArrayObject</title>
<path fill="none" stroke="black" d="M440.338,-58.5739C399.943,-50.4334 347.162,-39.7968 305.775,-31.4566"/>
<polygon fill="none" stroke="black" points="306.278,-27.9877 295.784,-29.4431 304.895,-34.8497 306.278,-27.9877"/>
</g>
<!-- \\Shop_ItemHTSQuoteJob -->
<g id="node13" class="node"><title>\\Shop_ItemHTSQuoteJob</title>
<polygon fill="none" stroke="black" points="887,-89 741,-89 741,-53 887,-53 887,-89"/>
<text text-anchor="middle" x="814" y="-68.1" font-family="Times Roman,serif" font-size="11.00">Shop_ItemHTSQuoteJob</text>
</g>
<!-- \\Shop_ItemHTSQuoteJob&#45;&gt;\\Shop_AbstractItem -->
<g id="edge19" class="edge"><title>\\Shop_ItemHTSQuoteJob&#45;&gt;\\Shop_AbstractItem</title>
<path fill="none" stroke="black" d="M740.455,-71C690.06,-71 623.554,-71 573.584,-71"/>
<polygon fill="none" stroke="black" points="573.502,-67.5001 563.502,-71 573.502,-74.5001 573.502,-67.5001"/>
</g>
</g>
</svg>
