<svg id="Livello_1" data-name="Livello 1" xmlns="http://www.w3.org/2000/svg" viewBox="0 0 454.32 657.12"><defs><style>.cls-3{fill:#fff}.cls-4{fill:#046fa3}</style></defs><path d="M378.22 505.14c-.19-1.5-1.26-8.76-1.27-10.28-.08-10.63-.62-21.26-.65-31.9a87.83 87.83 0 0 1 2-19.75c1.41-6.32 2.91-12.59 5.89-18.44a108 108 0 0 0 4.66-11.29c7.54-20.17 11.87-41.11 14.82-62.36 1.49-10.69 2.51-21.44 3.27-32.2q1.21-17.12 1.48-34.27c.28-17.68.23-35.36-.38-53q-.39-10.78-.84-21.57-.37-9.42-.79-18.86a3.77 3.77 0 0 1 .75-.16 119.49 119.49 0 0 1 16.27.8c2.06.29 4.14.43 6.2.59a4.86 4.86 0 0 0 1.66-.14.93.93 0 0 0 .25-1.69 6.86 6.86 0 0 0-2.42-1 118 118 0 0 0-20.88-4.22c-2.55-.23-1.83.09-2.46-2.31a7.14 7.14 0 0 1-.07-1.91c0-1.63.07-1.75 1.69-2 5-.83 10.05-1.83 15.17-2.2a42.2 42.2 0 0 0 6.91-.65c.89-.21 2 0 2.36-1.22.18-.67-.66-1.17-2.44-1.35a115.62 115.62 0 0 0-22-.31c-.63.05-1.24.37-1.88.08-.4-.49-.25-1.07-.28-1.62-.39-6.78-.74-13.57-1.18-20.35-.57-8.94-1.2-17.87-1.81-26.8-.36-5.42-.65-10.86-1.11-16.27-.58-6.68-.92-13.38-1.59-20.06-.62-6.28-.85-12.6-1.5-18.88-1.13-10.81-2.55-21.58-4.44-32.28a103.27 103.27 0 0 0-3.77-16.09 16.69 16.69 0 0 0-2.65-5.34 3.49 3.49 0 0 0-4.63-1.2 10 10 0 0 0-4.33 3.68 32.81 32.81 0 0 0-3 5.43c-6.42 13.38-12.84 26.79-19.16 40.25a2.88 2.88 0 0 1-3.07 1.92q-66-.09-131.93 0a3.19 3.19 0 0 1-3.42-2.13c-6.32-13.46-12.74-26.87-19.13-40.29a31 31 0 0 0-2.94-5.21 10 10 0 0 0-4.34-3.67c-2-.78-3.27-.42-4.63 1.25a12.83 12.83 0 0 0-1.68 2.89 47.25 47.25 0 0 0-2.82 9.15c-1.61 7.5-3 15-3.94 22.65-.93 7.38-1.85 14.76-2.22 22.18-.42 8.47-.7 16.94-.89 25.42-.33 14.31-.8 28.62-1.49 42.92-.41 8.3-.77 16.61-1.15 24.92-.11 2.22-.22 4.45-.32 6.67-.08 1.68-.09 1.71-1.84 1.55l-.48-.06c-8.41-1.39-16.88-1.18-25.34-.71-1.12.06-2.23.25-3.33.41-.74.11-1.52.34-1.53 1.22s.71 1 1.37 1.09a27.26 27.26 0 0 0 3.08.46 116 116 0 0 1 14 1.52c4.09.73 8.16 1.56 12.25 2.29.86.16 1.3.48 1.15 1.4v1c0 2 0 2-2 2.1a112.92 112.92 0 0 0-22 3.33 61 61 0 0 0-7.12 2.08c-.53.21-1 .55-.93 1.24s.64.88 1.23.9a21.36 21.36 0 0 0 4.07-.2c8.33-1.28 16.72-1.25 25.12-1.17a6.39 6.39 0 0 1 1 .18c-.08.77-.18 1.47-.23 2.17q-.78 10.41-1.55 20.81A32.77 32.77 0 0 1 166 226c-2.81 5.89-5.73 11.67-9.86 16.88-7.95 10.06-17.44 18-29.19 23.14a171.19 171.19 0 0 0-42.35 26.41C65.52 308.72 50.41 328 40.49 351.18a131 131 0 0 0-10.07 68 132.56 132.56 0 0 0 14.37 46.47A159.07 159.07 0 0 0 79 509.75a177.78 177.78 0 0 0 47 30.8c6.93 3.13 14.13 5.53 21.26 8.13a76.05 76.05 0 0 0 10.32 3.1c7.74 1.6 15.53 3 23.27 4.56a222.46 222.46 0 0 1 27 6.67 81.62 81.62 0 0 1 16 7 26.08 26.08 0 0 1 12 16.11 11 11 0 0 1 0 6.38c-2.15 6.95-6.28 11.71-13.87 12.9a62 62 0 0 1-15.76.14A164.72 164.72 0 0 0 189 604.3a38.8 38.8 0 0 0-21.23 6.7 19.48 19.48 0 0 0-6.51 6.93 11.13 11.13 0 0 0-.46 10.37 19.19 19.19 0 0 0 6.54 7.82 34.15 34.15 0 0 0 11.52 5.18 65.57 65.57 0 0 0 12.32 1.7c10.69.74 21.24.09 31.56-3a86.28 86.28 0 0 0 36.66-22.37 49 49 0 0 0 9.8-14.41 39.06 39.06 0 0 0 3.56-13.22c.68-8.68-1.66-16.6-6-24-7.25-12.38-17.71-21.07-30.66-27a175.2 175.2 0 0 0-28.57-9.64c-5.56-1.44-11.16-2.75-16.45-5.13a12.88 12.88 0 0 1-5-3.66c-2.62-3.29-2.5-5.48-.86-8.37a12.3 12.3 0 0 1 3.54-3.85 26.35 26.35 0 0 1 9.2-3.93 91.48 91.48 0 0 1 18.52-2.42c5.6-.21 11.19-.35 16.78-.57s11.18-.52 16.77-.76c.87 0 1.65-.07 2.56-.05l2.63-.1v5.4c-10.06.38-23.68 18.71-3.82 24.57-2.55 6.11 4.45 21.76 18.2 10.31 12.22 11.2 23.29 1.27 20-10.44 11.46 5.6 25.59-16-3.69-24.95v-6.52l3.67-.21c1.75-.18 3.51-.29 5.23-.63 15.93-3.11 36.79-12.11 50.38-21.11a4 4 0 0 1 2.64-1c0 5.44-.08 24.31 0 29.67-9.92.37-23.22 18.45-3.63 24.23-2.51 6 4.39 21.46 17.95 10.16 12.05 11.05 23 1.26 19.71-10.29 11.3 5.56 25.23-15.78-3.64-24.57Z" style="fill:#00bff2"/><path d="M226.84 124.23a28.11 28.11 0 0 0-17 5.49C197 139 196 156.43 207.47 167.18c10.56 9.85 28.37 9.86 38.94 0 10.12-9.43 10.79-23.92 1.43-34.1-5.62-6.08-12.78-8.79-21-8.85ZM382.7 152c0-8.68-2.29-14.39-6.49-18.88-10.28-11-28.41-11.89-39.76-2s-11.5 26.64-.11 36.6a29.26 29.26 0 0 0 36.36 1.24c6.39-4.96 9.9-11.43 10-16.96Zm-96.08 36.27v7.91a15.46 15.46 0 0 1-.19 2.14 1.57 1.57 0 0 1-1.49 1.49 39 39 0 0 1-8.83.39c-4.47-.13-8.47-1.35-11.11-5.41a2.18 2.18 0 0 0-3.3-.8 2.35 2.35 0 0 0-.73 3.52 13.55 13.55 0 0 0 2.88 3.49 18.53 18.53 0 0 0 11.51 4 94.73 94.73 0 0 0 13.37-.5 2.75 2.75 0 0 0 2.71-2.74v-21.1c0-2 .16-2.17 2.05-2.47a6.85 6.85 0 0 1 1.2-.06 30.82 30.82 0 0 0 9.37-1.65 15 15 0 0 0 4.58-2c2.05-1.45 2.63-3.82.75-5.73a3.66 3.66 0 0 0-4.63-.58 23 23 0 0 1-8 2.39c-5.92.77-11.75.66-17.45-1.34a13.92 13.92 0 0 0-2.05-.65 3.69 3.69 0 0 0-1.82 7.08 39.73 39.73 0 0 0 9.26 2.35c1.87.34 1.9.34 1.91 2.27.03 2.73.01 5.32.01 7.95Zm-72.68-98c-.76.54-.67 1.31-.67 2a39.64 39.64 0 0 0 .15 4.08q1.11 10.73 2.29 21.44a5.89 5.89 0 0 0 .38 1.62 3.22 3.22 0 0 0 3.65 2.05 3.26 3.26 0 0 0 2.65-3.25 6.66 6.66 0 0 0-.38-2.11c-1.47-5.31-3-10.61-4.35-15.94-.67-2.55-1.34-5.1-2.22-7.59-.32-.92-.56-1.85-1.5-2.32Zm147.69-.08a3.23 3.23 0 0 0-1.41 1.91c-.62 1.89-1.23 3.79-1.76 5.71-1.3 4.7-2.54 9.41-3.81 14.11-.46 1.7-1 3.38-1.37 5.09-.52 2.23.56 4.09 2.47 4.44s3.54-.84 4-3.17c.17-.87.22-1.75.31-2.62.45-4.37.91-8.74 1.35-13.11.32-3.18.77-6.34.89-9.54a4.39 4.39 0 0 0-.67-2.84Zm-20.55 26.54a6.57 6.57 0 0 0 .19 2.33 2.63 2.63 0 0 0 2.65 2 2.7 2.7 0 0 0 2.54-2.15 5.45 5.45 0 0 0 0-1.89q-.87-6.27-1.81-12.53a8.3 8.3 0 0 0-.94-2.94c-.36-.63-1-.63-1.26 0a7.55 7.55 0 0 0-.66 2.77c-.21 4.01-.45 8.06-.71 12.39Zm-106.69-5.25h-.56v-6a10.56 10.56 0 0 0-.76-4c-.29-.66-.9-.68-1.27-.07a7 7 0 0 0-.89 2.71q-1 6.61-1.88 13.23a4.57 4.57 0 0 0 .1 1.65 2.56 2.56 0 0 0 2.42 2 2.6 2.6 0 0 0 2.68-1.94 6.47 6.47 0 0 0 .17-1.65c0-1.98-.01-3.97-.01-5.95Z" style="fill:#09bdec"/><path class="cls-3" d="M226.84 124.23c8.22.06 15.38 2.76 21 8.86 9.36 10.18 8.69 24.67-1.43 34.1-10.57 9.85-28.38 9.84-38.94 0C196 156.43 197 139 209.8 129.72a28.11 28.11 0 0 1 17.04-5.49ZM216.54 149a8.82 8.82 0 0 0 2.66 6.47 11.11 11.11 0 0 0 13.24 1.89 9.28 9.28 0 0 0-.18-16.74 10.75 10.75 0 0 0-10.55.09 9.19 9.19 0 0 0-5.17 8.29Zm166.16 3c-.1 5.58-3.61 12-10 16.93a29.26 29.26 0 0 1-36.36-1.24C325 157.68 325 141 336.45 131s29.48-8.93 39.76 2c4.2 4.56 6.47 10.27 6.49 19Zm-16.78-2.87a8.93 8.93 0 0 0-2.49-6.29A11.21 11.21 0 0 0 349.6 141a9.23 9.23 0 0 0 0 16.15 10.73 10.73 0 0 0 12.18-.38 8.85 8.85 0 0 0 4.14-7.69Z"/><path class="cls-4" d="M286.62 188.22v-7.91c0-1.93 0-1.93-1.91-2.27a39.73 39.73 0 0 1-9.21-2.43 3.69 3.69 0 0 1 1.82-7.08 13.92 13.92 0 0 1 2.05.65c5.7 2 11.53 2.11 17.45 1.34a23 23 0 0 0 8-2.39 3.66 3.66 0 0 1 4.63.58c1.88 1.91 1.3 4.28-.75 5.73a15 15 0 0 1-4.58 2 30.82 30.82 0 0 1-9.37 1.65 6.85 6.85 0 0 0-1.2.06c-1.89.3-2.05.46-2.05 2.47v21.1a2.75 2.75 0 0 1-2.71 2.74 94.73 94.73 0 0 1-13.37.5 18.53 18.53 0 0 1-11.51-4 13.55 13.55 0 0 1-2.88-3.49 2.35 2.35 0 0 1 .73-3.52 2.18 2.18 0 0 1 3.3.8c2.64 4.06 6.64 5.28 11.11 5.41a39 39 0 0 0 8.83-.39 1.57 1.57 0 0 0 1.49-1.49 15.46 15.46 0 0 0 .19-2.14c-.04-2.64-.06-5.28-.06-7.92Z"/><path class="cls-3" d="M213.94 90.25c.94.47 1.18 1.4 1.5 2.29.88 2.49 1.55 5 2.22 7.59 1.39 5.33 2.88 10.63 4.35 15.94a6.66 6.66 0 0 1 .38 2.11 3.26 3.26 0 0 1-2.65 3.25 3.22 3.22 0 0 1-3.65-2.05 5.89 5.89 0 0 1-.38-1.62q-1.17-10.73-2.29-21.44a39.64 39.64 0 0 1-.15-4.08c0-.68-.09-1.45.67-1.99Zm147.69-.08a4.39 4.39 0 0 1 .65 2.82c-.12 3.2-.57 6.36-.89 9.54-.44 4.37-.9 8.74-1.35 13.11-.09.87-.14 1.75-.31 2.62-.44 2.33-2 3.54-4 3.17s-3-2.21-2.47-4.44c.39-1.71.91-3.39 1.37-5.09 1.27-4.7 2.51-9.41 3.81-14.11.53-1.92 1.14-3.82 1.76-5.71a3.23 3.23 0 0 1 1.43-1.91Zm-20.55 26.54c.26-4.33.5-8.38.74-12.44a7.55 7.55 0 0 1 .66-2.77c.3-.63.9-.63 1.26 0a8.3 8.3 0 0 1 .94 2.94q.93 6.27 1.81 12.53a5.45 5.45 0 0 1 0 1.89 2.7 2.7 0 0 1-2.54 2.15 2.63 2.63 0 0 1-2.65-2 6.57 6.57 0 0 1-.22-2.3Zm-106.69-5.25v6a6.47 6.47 0 0 1-.17 1.65 2.6 2.6 0 0 1-2.68 1.94 2.56 2.56 0 0 1-2.42-2 4.57 4.57 0 0 1-.1-1.65q.9-6.62 1.88-13.23a7 7 0 0 1 .89-2.71c.37-.61 1-.59 1.27.07a10.56 10.56 0 0 1 .76 4v6Z"/><path class="cls-4" d="M216.54 149a9.19 9.19 0 0 1 5.17-8.29 10.75 10.75 0 0 1 10.55-.09 9.28 9.28 0 0 1 .18 16.74 11.11 11.11 0 0 1-13.24-1.89 8.82 8.82 0 0 1-2.66-6.47Zm149.38.08a8.85 8.85 0 0 1-4.14 7.67 10.73 10.73 0 0 1-12.18.38 9.23 9.23 0 0 1 0-16.15 11.21 11.21 0 0 1 13.83 1.81 8.93 8.93 0 0 1 2.49 6.29Z"/></svg>