<?xml version="1.0" encoding="UTF-8"?>
<svg width="40px" height="36px" viewBox="0 0 40 36" version="1.1" xmlns="http://www.w3.org/2000/svg" xmlns:xlink="http://www.w3.org/1999/xlink">
    <!-- Generator: Sketch 56.2 (81672) - https://sketch.com -->
    <title>Header/Logo</title>
    <desc>Created with Sketch.</desc>
    <g id="Symbols" stroke="none" stroke-width="1" fill="none" fill-rule="evenodd">
        <g id="Navigation/Footer/1" transform="translate(-62.000000, -21.000000)">
            <g id="Logo/Footer" transform="translate(62.000000, 21.000000)">
                <g id="Group">
                    <path d="M0.0580245191,35.8346279 L1.87419265,35.8346279 L1.87419265,32.2774521 C1.87419265,32.200606 1.87999808,32.1238587 1.88579349,32.0410785 C1.89740436,31.9583972 1.91481064,31.875617 1.94381776,31.8047049 C1.97863032,31.6983862 2.03665459,31.5919686 2.11209517,31.4856499 C2.18752572,31.3793312 2.28616798,31.296551 2.40221653,31.2256389 C2.51826507,31.1547268 2.65752533,31.1193203 2.81419186,31.1193203 C3.01146637,31.1193203 3.17393834,31.1783642 3.29579232,31.2847818 C3.4234417,31.3911005 3.51627853,31.5446939 3.58010824,31.7397268 C3.64393795,31.9347598 3.67294507,32.1592653 3.67294507,32.4192763 L3.67294507,35.840562 L5.4891138,35.840562 L5.4891138,32.265584 C5.4891138,32.1888367 5.49491923,32.1060565 5.50652007,32.0174411 C5.51813095,31.9288257 5.53553722,31.8460455 5.55874894,31.7810675 C5.59936693,31.6570455 5.66318661,31.5506279 5.73861716,31.4502433 C5.81985315,31.3497598 5.9127,31.2729137 6.02874855,31.2138697 C6.14479709,31.1547268 6.27244648,31.1251554 6.41751217,31.1193203 C6.71923437,31.1193203 6.93973062,31.2433422 7.08478628,31.4856499 C7.22985197,31.7279576 7.30528252,32.0706499 7.29947709,32.5197598 L7.29947709,35.840562 L9.11564582,35.840562 L9.11564582,32.2419466 C9.11564582,31.7870016 9.06342698,31.3911005 8.96478472,31.0601774 C8.86033702,30.7292543 8.72107676,30.45154 8.54119851,30.2329686 C8.35552485,30.0142983 8.14663948,29.8547708 7.89713611,29.7542873 C7.65342815,29.6479686 7.38651851,29.5947598 7.09059172,29.5947598 C6.87009547,29.5947598 6.66701554,29.6183972 6.48133185,29.671606 C6.29565819,29.7188807 6.11577994,29.7957268 5.95330797,29.8961115 C5.81405774,29.9847268 5.67479748,30.0852104 5.54713807,30.2093312 C5.41368325,30.3275181 5.29182927,30.4693422 5.18158616,30.6348038 L5.15837444,30.6348038 C5.07134305,30.4220675 4.94948907,30.2389027 4.79282254,30.0852104 C4.636156,29.931617 4.44467691,29.8074961 4.2299861,29.7248148 C4.01529529,29.6420345 3.77739277,29.6006939 3.51628856,29.6006939 C3.26097976,29.6006939 3.02888267,29.6361005 2.83159814,29.6952433 C2.63431361,29.7602214 2.46603621,29.8370675 2.31517511,29.937551 C2.17011944,30.0379356 2.04826546,30.1384192 1.94381776,30.2506719 C1.8451755,30.3629246 1.7581441,30.4634082 1.6943144,30.5638917 L1.65950184,30.5638917 L1.57246042,29.736584 L0,29.736584 C0.0116049013,30.002529 0.0232101567,30.3038807 0.034815011,30.6229356 C0.0406175384,30.9479246 0.0464188627,31.3024851 0.0464188627,31.6806829 L0.0464188627,35.8346279 L0.0580245191,35.8346279 Z M15.0864106,32.2183093 C15.0864106,31.8579137 15.0457023,31.5152214 14.9529557,31.2020016 C14.8658241,30.8888807 14.7208386,30.6052323 14.5176985,30.3629246 C14.3146587,30.1207159 14.0419336,29.931617 13.7053386,29.7957268 C13.3630285,29.6597378 12.9510331,29.5888257 12.4520063,29.5829906 C12.0865347,29.5829906 11.7557552,29.6124631 11.454053,29.671606 C11.1580661,29.7248148 10.8911564,29.7957268 10.6706702,29.8784082 C10.4443686,29.9610895 10.2644903,30.0438697 10.1253203,30.126551 L10.4676304,31.3497598 C10.6010852,31.2669796 10.7577016,31.1902323 10.9375799,31.1193203 C11.1174581,31.0484082 11.3089673,30.9951994 11.5121074,30.9538587 C11.7151472,30.9125181 11.9181871,30.8888807 12.1271426,30.8888807 C12.3592598,30.8888807 12.5448532,30.9183532 12.6841235,30.9656279 C12.8292092,31.0129027 12.9395025,31.0779796 13.0149029,31.1606609 C13.0903034,31.2433422 13.1483578,31.3261224 13.1715193,31.4147378 C13.2005967,31.5033532 13.2121273,31.5919686 13.2121273,31.6747488 L13.2121273,31.7633642 C12.678308,31.7574301 12.1967276,31.8047049 11.7673861,31.8992543 C11.3379443,31.9938038 10.9666572,32.1356279 10.6591396,32.3306609 C10.3515217,32.525595 10.1136894,32.7679027 9.9453919,33.0633203 C9.77712452,33.3587378 9.69588853,33.701529 9.69588853,34.0974301 C9.69588853,34.345573 9.74231196,34.5760126 9.82934336,34.800617 C9.91638478,35.0251224 10.0440041,35.2259906 10.2123517,35.3973862 C10.380599,35.574617 10.5836388,35.7105071 10.8215714,35.8109906 C11.059504,35.9114741 11.3322291,35.9646829 11.6397468,35.9646829 C11.9995033,35.9646829 12.324367,35.899606 12.6203539,35.775584 C12.9104252,35.645529 13.1599887,35.4623642 13.3572131,35.2201554 L13.3920056,35.2201554 L13.5022988,35.8346279 L15.1849726,35.8346279 C15.161811,35.7223752 15.1501801,35.5864851 15.1385492,35.4269576 C15.1270185,35.2732653 15.1153876,35.1019686 15.1095721,34.9187049 C15.1037567,34.73554 15.1037567,34.5464411 15.1037567,34.3515071 L15.1037567,32.2183093 L15.0864106,32.2183093 Z M13.2701817,33.6069796 C13.2701817,33.6660235 13.2701817,33.7192323 13.2643662,33.7724411 C13.2585507,33.825551 13.2470201,33.8787598 13.2353892,33.9319686 C13.1947812,34.0619246 13.1250959,34.1801115 13.0323493,34.286529 C12.9395025,34.3928477 12.8292092,34.475529 12.6957544,34.5346719 C12.5622996,34.5996499 12.4230293,34.6292214 12.2664129,34.6292214 C12.1271426,34.6292214 11.9995033,34.5996499 11.88921,34.5523752 C11.779017,34.4991664 11.6918854,34.4164851 11.6281158,34.3101664 C11.564246,34.2037488 11.5294535,34.0678587 11.5294535,33.9083312 C11.535269,33.6660235 11.6106694,33.4710895 11.7615707,33.3292653 C11.9181871,33.1874411 12.1213272,33.0869576 12.3824213,33.0279137 C12.6435155,32.9687708 12.9395025,32.9451334 13.2701817,32.9510675 L13.2701817,33.6069796 Z M16.1830262,28.5725181 L16.1830262,29.7248148 L15.3881127,29.7248148 L15.3881127,31.1251554 L16.1830262,31.1251554 L16.1830262,33.6246829 C16.1830262,34.0560895 16.2236341,34.4224192 16.3106655,34.7178367 C16.3976969,35.0191884 16.5253363,35.255562 16.6993991,35.4387268 C16.8503003,35.5982543 17.0418095,35.7283093 17.2854573,35.8228587 C17.5233899,35.9232433 17.796115,35.9705181 18.0978171,35.9764521 C18.3647268,35.9764521 18.6026594,35.9587488 18.8115147,35.9291774 C19.0204702,35.8937708 19.1887175,35.8523312 19.3105414,35.8050565 L19.2989105,34.3692104 C19.2409564,34.3810785 19.1829021,34.3928477 19.1306632,34.3987818 C19.0784243,34.4047159 19.0204702,34.410551 18.9624159,34.4164851 C18.9043615,34.4164851 18.828961,34.4224192 18.7477451,34.4224192 C18.5620514,34.4224192 18.4169656,34.3869137 18.3067727,34.3101664 C18.1964794,34.2333203 18.121079,34.1151334 18.080471,33.955606 C18.0340476,33.7960785 18.0107857,33.5951115 18.0166012,33.3469686 L18.0166012,31.1370235 L19.3511494,31.1370235 L19.3511494,29.7248148 L18.0166012,29.7248148 L18.0166012,28.0643642 L16.1830262,28.5725181 Z M25.1362305,33.3823752 C25.1477611,33.311562 25.1652075,33.2110785 25.1768384,33.0810235 C25.1884693,32.9451334 25.2,32.7974741 25.2,32.6378477 C25.2,32.3364961 25.171023,32.0351444 25.1071531,31.7397268 C25.0433836,31.4443093 24.9505367,31.166595 24.8170819,30.9125181 C24.6836271,30.6525071 24.5153798,30.4279027 24.3064242,30.2270345 C24.0975689,30.0320016 23.8422902,29.8724741 23.5521187,29.7602214 C23.256232,29.6479686 22.9196371,29.5888257 22.5309036,29.5888257 C22.1130927,29.5888257 21.7418055,29.6539027 21.4168415,29.7779246 C21.0918776,29.9020455 20.8076218,30.0734411 20.5638737,30.2920126 C20.3201257,30.5106829 20.1229013,30.7588257 19.9661846,31.0307049 C19.8095682,31.3084192 19.6934595,31.6038367 19.6122436,31.9111224 C19.5368431,32.2183093 19.4962351,32.531529 19.4962351,32.8447488 C19.4962351,33.4828587 19.6238745,34.0382873 19.8733378,34.5051005 C20.1229013,34.9719137 20.4826578,35.3324082 20.9642382,35.5864851 C21.4400031,35.840562 22.0202458,35.9646829 22.6991509,35.9705181 C23.1053308,35.9705181 23.4941646,35.9351115 23.8596363,35.8701334 C24.2252083,35.8050565 24.5618032,35.7046719 24.8693208,35.580551 L24.6255727,34.2923642 C24.3761095,34.3751444 24.1150153,34.4341884 23.8481057,34.475529 C23.581196,34.5169686 23.2852091,34.540606 22.9660605,34.540606 C22.7455743,34.540606 22.536719,34.5169686 22.3452098,34.4696939 C22.1479855,34.4224192 21.9738224,34.3515071 21.817206,34.2569576 C21.6605896,34.1624082 21.5386654,34.0382873 21.4400031,33.8964631 C21.3472565,33.7488038 21.2892022,33.5774082 21.2717558,33.3823752 L25.1362305,33.3823752 Z M21.2601249,32.0824192 C21.2717558,31.9524631 21.3008331,31.816573 21.3529717,31.6747488 C21.3993952,31.5329246 21.4690804,31.3970345 21.5619273,31.2729137 C21.6547742,31.1487928 21.7707826,31.0484082 21.9100529,30.9656279 C22.0493232,30.8888807 22.2175705,30.8474411 22.4148951,30.8474411 C22.6295659,30.8474411 22.8036287,30.8947159 22.9428989,30.971562 C23.0821692,31.0543422 23.1865467,31.1606609 23.2678629,31.290617 C23.3432634,31.4206719 23.3955023,31.5506279 23.4302948,31.6924521 C23.4592718,31.8342763 23.4767182,31.9642323 23.4709028,32.0824192 L21.2601249,32.0824192 Z" id="Shape" fill="#6F6F6F" fill-rule="nonzero"></path>
                    <path d="M29.8637515,34.2687268 C29.7231222,34.3338038 29.5649774,34.3810785 29.3833438,34.4164851 C29.2075824,34.4519906 29.0083322,34.4696939 28.7856943,34.4696939 C28.5571843,34.4696939 28.3404187,34.4341884 28.1411684,34.3632763 C27.9420194,34.2923642 27.766258,34.1801115 27.6138843,34.0382873 C27.4615105,33.8906279 27.34437,33.7132983 27.2564893,33.500562 C27.1744808,33.2879246 27.1276043,33.0396829 27.1276043,32.7619686 C27.1276043,32.4252104 27.1919962,32.1296939 27.3209824,31.875617 C27.4557395,31.62154 27.6431441,31.4206719 27.8892708,31.2729137 C28.1353975,31.1310895 28.4224271,31.0543422 28.7505623,31.0543422 C28.9965878,31.0543422 29.2075824,31.0779796 29.3774716,31.1133862 C29.553233,31.1487928 29.6938624,31.1902323 29.8052319,31.2433422 L30.104006,29.8311334 C29.9692489,29.7838587 29.8286195,29.736584 29.6646025,29.7011774 C29.5004843,29.6656719 29.3423396,29.6361005 29.1665782,29.6243312 C28.9965878,29.6066279 28.8325708,29.5947598 28.6626816,29.5947598 C28.1001642,29.5947598 27.6021398,29.6833752 27.1686086,29.8488367 C26.7350773,30.0202323 26.3718101,30.2506719 26.0846792,30.5460895 C25.791676,30.841606 25.5690382,31.1902323 25.4226378,31.5801994 C25.2761363,31.9701664 25.2,32.3897049 25.2,32.8447488 C25.205771,33.4887928 25.3347571,34.0442214 25.5983992,34.5110345 C25.8620413,34.9778477 26.2311807,35.3382433 26.7115885,35.5924192 C27.1919962,35.8464961 27.7545136,35.9705181 28.4106827,35.9764521 C28.6509372,35.9764521 28.8794473,35.9646829 29.0903407,35.9351115 C29.3072076,35.90554 29.4946121,35.8759686 29.6704748,35.8286939 C29.8403639,35.7873532 29.9809933,35.7400785 30.0922616,35.6868697 L29.8637515,34.2687268 Z M35.6935422,32.2242433 C35.6935422,31.8638477 35.652538,31.5210565 35.5587851,31.2079356 C35.4709044,30.8888807 35.3185306,30.6111664 35.1193816,30.3688587 C34.9142591,30.126551 34.6389739,29.937551 34.2990943,29.801562 C33.9534437,29.6656719 33.5374278,29.5947598 33.0335313,29.5888257 C32.6643918,29.5888257 32.3304857,29.6183972 32.0257381,29.67754 C31.726964,29.7306499 31.4633219,29.801562 31.2348119,29.8843422 C31.0063018,29.9670235 30.8246682,30.0498038 30.6840389,30.126551 L31.0296894,31.3497598 C31.1644466,31.2669796 31.3226926,31.1902323 31.5043262,31.1193203 C31.6859598,31.0484082 31.8793378,30.9951994 32.084359,30.9538587 C32.2894815,30.9125181 32.5003749,30.8888807 32.7053961,30.8888807 C32.9397784,30.8888807 33.1272842,30.9183532 33.2679135,30.9656279 C33.4144151,31.0129027 33.5256834,31.0779796 33.6018197,31.1606609 C33.6780572,31.2433422 33.7366781,31.3261224 33.7659379,31.4147378 C33.7951977,31.5033532 33.8069421,31.5919686 33.8069421,31.6747488 L33.8069421,31.7633642 C33.2679135,31.7574301 32.7816336,31.8047049 32.3480011,31.8992543 C31.9144698,31.9938038 31.5394582,32.1356279 31.2289397,32.3306609 C30.9184211,32.525595 30.6781666,32.7679027 30.5082775,33.0633203 C30.3383883,33.3587378 30.2563798,33.701529 30.2563798,34.0974301 C30.2563798,34.3396389 30.3032563,34.5760126 30.391137,34.800617 C30.4790176,35.0251224 30.6079026,35.2201554 30.7777918,35.3973862 C30.9476809,35.574617 31.1528034,35.7105071 31.3929566,35.8169246 C31.6332111,35.9174082 31.9085976,35.9705181 32.2191162,35.9705181 C32.5823834,35.9705181 32.9105185,35.90554 33.2092927,35.775584 C33.5022958,35.6514631 33.7541935,35.4623642 33.9534437,35.2201554 L33.9885757,35.2201554 L34.099844,35.8346279 L35.7990395,35.8346279 C35.7814229,35.7223752 35.7639075,35.5864851 35.7521631,35.4269576 C35.7404187,35.2732653 35.7286742,35.1019686 35.722802,34.9187049 C35.7170311,34.73554 35.7170311,34.5464411 35.7170311,34.3515071 L35.7170311,32.2242433 L35.6935422,32.2242433 Z M33.8596908,33.6069796 C33.8596908,33.6601884 33.8596908,33.7192323 33.8538186,33.7724411 C33.8479464,33.8314851 33.8362019,33.8787598 33.8245588,33.9319686 C33.7834533,34.0619246 33.7131892,34.1801115 33.6194363,34.286529 C33.5256834,34.3928477 33.4144151,34.475529 33.279658,34.5346719 C33.1449008,34.5996499 33.0042714,34.6292214 32.8460254,34.6292214 C32.7053961,34.6292214 32.5765112,34.5996499 32.4652429,34.5523752 C32.3538733,34.4991664 32.2659926,34.4164851 32.2016008,34.3101664 C32.1371077,34.2037488 32.1019756,34.0678587 32.1019756,33.9083312 C32.1078479,33.6660235 32.1839841,33.4710895 32.3363579,33.3292653 C32.4886305,33.1874411 32.6995239,33.0869576 32.9632672,33.0279137 C33.2269093,32.9687708 33.5256834,32.9451334 33.8596908,32.9510675 L33.8596908,33.6069796 Z M36.8067314,28.5725181 L36.8067314,29.7248148 L36.0040607,29.7248148 L36.0040607,31.1251554 L36.8067314,31.1251554 L36.8067314,33.6246829 C36.8067314,34.0560895 36.8478369,34.4224192 36.9357176,34.7178367 C37.0235983,35.0191884 37.1524832,35.255562 37.3282446,35.4387268 C37.4806184,35.5982543 37.6738952,35.7283093 37.9200219,35.8228587 C38.1601751,35.9232433 38.4355616,35.9705181 38.7403092,35.9764521 C39.0098235,35.9764521 39.2499767,35.9587488 39.4609714,35.9232433 C39.6718648,35.8878367 39.841754,35.8464961 39.964868,35.7992214 L39.9531235,34.3632763 C39.8945027,34.3751444 39.8358818,34.3869137 39.7832344,34.3928477 C39.7304857,34.3987818 39.6718648,34.4047159 39.6132439,34.410551 C39.5547243,34.410551 39.4784868,34.4164851 39.3964783,34.4164851 C39.2089725,34.4164851 39.0625722,34.3810785 38.9512026,34.3042323 C38.8398331,34.2273862 38.7636968,34.1091994 38.7168204,33.9496719 C38.6699439,33.7901444 38.6465563,33.5892763 38.6524285,33.3469686 L38.6524285,31.1370235 L40,31.1370235 L40,29.7248148 L38.6524285,29.7248148 L38.6524285,28.0643642 L36.8067314,28.5725181 Z" id="Shape" fill="#0099CC"></path>
                    <path d="M11.9209813,0.372056515 C15.0328744,0.372056515 17.881472,1.57130651 19.9999499,3.51860617 C22.1424549,1.57130651 24.979039,0.372056515 28.0790187,0.372056515 C31.3583998,0.372056515 34.3506586,1.70192258 36.5050769,3.85107269 C38.6594953,5.9883504 40,8.95680425 40,12.2101956 L40,25.2714083 L31.8611642,25.2714083 L31.8611642,17.6246391 C32.8067255,17.5652771 33.812054,16.8884717 34.3028049,15.8911312 C34.9131901,14.6562443 34.5182467,13.3857205 33.4050972,13.065087 C33.1297882,12.9819999 32.8306524,12.9700882 32.5433299,13.0176368 C32.6869911,12.7682771 32.7947121,12.4951923 32.8664926,12.1983823 C33.2135822,10.7141357 32.3758419,9.36050516 31.0113102,9.1586547 C29.9820549,9.00429384 28.9406859,9.55049305 28.3303008,10.464776 C27.7079021,9.1705271 26.2118228,8.5649659 24.9551121,9.11115527 C23.7103148,9.64548208 23.13587,11.0940327 23.6146074,12.4239185 C23.2914446,12.3527432 22.9562684,12.3527432 22.6331057,12.4121052 C21.2926009,12.68519 20.6582889,14.0981629 21.1968935,15.5585859 C21.6995578,16.9003834 23.0281491,17.8265486 24.2848598,17.7552748 L24.2848598,25.2951334 L15.7031268,25.2951334 L15.7031268,15.0955033 C16.86413,15.024328 18.0370466,14.1456131 18.4918571,12.9107262 C19.0424752,11.4503031 18.3961497,10.0373106 17.055645,9.7642159 C16.7324822,9.69297167 16.397306,9.70484407 16.0742433,9.7760883 C16.5529807,8.45810448 15.9784358,6.99762235 14.7336385,6.46330538 C13.4769279,5.91711602 11.9808485,6.53454961 11.3584499,7.81691624 C10.7480647,6.91450572 9.71871926,6.36831636 8.67743042,6.51080482 C7.30101539,6.71265527 6.47515837,8.06626613 6.82225798,9.55049305 C6.89406859,9.84733253 7.00178951,10.1204272 7.14542073,10.3697771 C6.84619485,10.3223269 6.55894241,10.346052 6.2836534,10.4172273 C5.18251738,10.7378608 4.77558059,12.0083846 5.38599578,13.2432715 C5.93656379,14.3475226 7.09753699,15.0599649 8.11489897,14.9767794 L8.11489897,25.2832217 L0,25.2832217 L0,12.2221074 C0,8.98054905 1.34051473,6.02397744 3.49491304,3.87481749 L3.50687647,3.86294509 L3.51884991,3.85107269 C5.68521165,1.70192258 8.65349355,0.372056515 11.9209813,0.372056515 Z" id="Path" fill="#0099CC"></path>
                </g>
            </g>
        </g>
    </g>
</svg>