<?xml version="1.0" encoding="utf-8"?>
<!-- Generator: Adobe Illustrator 26.2.1, SVG Export Plug-In . SVG Version: 6.00 Build 0)  -->
<svg version="1.1" id="Livello_1" xmlns="http://www.w3.org/2000/svg" xmlns:xlink="http://www.w3.org/1999/xlink" x="0px" y="0px"
	 viewBox="0 0 45.7 40" style="enable-background:new 0 0 45.7 40;" xml:space="preserve">
<style type="text/css">
	.st0{fill:#020203;}
	.st1{fill:#0099CD;}
	.st2{fill:#FFFFFF;}
</style>
<g>
	<g>
		<path class="st2" d="M22.46,3.2c9.3,0,16.8,7.54,16.8,16.8S31.73,36.8,22.46,36.8S5.67,29.27,5.67,20
			C5.7,10.71,13.23,3.2,22.46,3.2 M22.46,0.44C11.66,0.44,2.9,9.2,2.9,20s8.77,19.56,19.56,19.56S42.03,30.8,42.03,20
			S33.27,0.44,22.46,0.44"/>
		<g>
			<path class="st2" d="M30.94,18.21c0,4.08-1.6,6.84-4.83,9.77l-1.92-2.13c2.04-1.79,3.2-4.02,3.2-6.25v-0.44h-3.05V13.4h6.59
				V18.21L30.94,18.21z"/>
			<path class="st2" d="M14.02,22.32c0-4.11,1.6-6.84,4.83-9.83l1.92,2.17c-2.04,1.79-3.2,3.95-3.2,6.22v0.44h3.07v5.75h-6.59v-4.74
				L14.02,22.32L14.02,22.32z"/>
		</g>
	</g>
</g>
</svg>
