<svg version="1.1" id="Livello_1" xmlns="http://www.w3.org/2000/svg" x="0" y="0" viewBox="0 0 45.7 40" style="enable-background:new 0 0 45.7 40" xml:space="preserve"><style>.st0{fill:#020203}</style><path class="st0" d="M22.46 3.2c9.3 0 16.8 7.54 16.8 16.8s-7.53 16.8-16.8 16.8S5.67 29.27 5.67 20c.03-9.29 7.56-16.8 16.79-16.8m0-2.76C11.66.44 2.9 9.2 2.9 20s8.77 19.56 19.56 19.56S42.03 30.8 42.03 20 33.27.44 22.46.44"/><path d="M30.94 18.21c0 4.08-1.6 6.84-4.83 9.77l-1.92-2.13c2.04-1.79 3.2-4.02 3.2-6.25v-.44h-3.05V13.4h6.59v4.81h.01z" style="fill:#0099cd"/><path class="st0" d="M14.02 22.32c0-4.11 1.6-6.84 4.83-9.83l1.92 2.17c-2.04 1.79-3.2 3.95-3.2 6.22v.44h3.07v5.75h-6.59v-4.74l-.03-.01z"/></svg>