<svg version="1.1" id="Livello_1" xmlns="http://www.w3.org/2000/svg" x="0" y="0" viewBox="0 0 200 40" style="enable-background:new 0 0 200 40" xml:space="preserve"><style>.st0{fill:#020203}</style><path class="st0" d="M71.9 24.01V9.54h3.02v2.07c1.15-1.54 2.65-2.4 4.53-2.4 2.12 0 3.58 1.01 4.22 2.77 1.26-1.79 3.02-2.77 5.03-2.77 3.16 0 4.86 2.1 4.86 5.28v9.5h-3.02v-8.8c0-1.59-.45-3.21-2.74-3.21-2.01 0-3.55 1.48-3.55 3.86V24h-3.02v-8.8c0-1.59-.45-3.21-2.74-3.21-2.04 0-3.55 1.48-3.55 3.86v8.16H71.9zm36.72.2c-1.34 0-2.6-.64-2.91-2.15-1.17 1.7-3.1 2.26-4.83 2.26-2.99 0-4.97-1.62-4.97-4.47 0-3.58 3.16-4.14 5.65-4.42 2.1-.22 3.66-.42 3.66-1.82 0-1.43-1.59-1.84-2.96-1.84-1.48 0-3.16.5-4.53 1.45l-1.2-2.29c1.79-1.15 3.69-1.76 5.95-1.76 3.41 0 5.81 1.37 5.81 4.86v6.6c0 .95.31 1.31 1.03 1.31.28 0 .61-.06.81-.2l.34 2.1c-.45.26-1.29.37-1.85.37m-3.33-7.91c-.84 1.03-2.07 1.03-3.61 1.29-1.54.25-2.68.7-2.68 2.21s1.15 2.15 2.65 2.15c1.9 0 3.63-1.01 3.63-3.44V16.3zm15.93 6.96c-.92.7-2.04 1.06-3.44 1.06-1.76 0-3.1-.59-3.91-1.84-.5-.75-.7-1.62-.7-3.02v-7.57h-2.43V9.54h2.43V5.65h3.05v3.88h4.47v2.35h-4.47v7.6c0 1.45.7 2.15 1.96 2.15.81 0 1.4-.31 1.82-.64l1.22 2.27zm14.82-5.73H125c.14 2.65 1.87 4.11 4.44 4.11 1.7 0 3.1-.67 4.19-1.82l1.98 1.9c-1.51 1.59-3.52 2.63-6.29 2.63-4.89 0-7.57-3.21-7.57-7.49 0-4.3 2.74-7.63 7.27-7.63 4.39 0 7.04 3.1 7.04 7.27.03.42 0 .78-.02 1.03m-3.02-2.21c-.22-2.43-1.9-3.66-3.97-3.66-2.29 0-3.83 1.51-4 3.66h7.97z"/><path d="M150.99 21.14c-1.2 1.82-3.19 3.19-6.04 3.19-4.42 0-7.18-3.24-7.18-7.55 0-4.33 2.82-7.57 7.15-7.57 2.77 0 4.75 1.31 5.98 3.21l-2.29 1.62c-.75-1.31-1.96-2.18-3.55-2.18-2.54 0-4.08 2.1-4.08 4.89 0 2.85 1.57 4.92 4.11 4.92 1.68 0 2.82-.89 3.61-2.1l2.29 1.57zm14 3.07c-1.34 0-2.6-.64-2.91-2.15-1.17 1.7-3.1 2.26-4.83 2.26-2.99 0-4.97-1.62-4.97-4.47 0-3.58 3.16-4.14 5.65-4.42 2.1-.22 3.66-.42 3.66-1.82 0-1.43-1.59-1.84-2.96-1.84-1.48 0-3.16.5-4.53 1.45l-1.2-2.29c1.79-1.15 3.69-1.76 5.95-1.76 3.41 0 5.81 1.37 5.81 4.86v6.6c0 .95.31 1.31 1.03 1.31.28 0 .61-.06.81-.2l.34 2.1c-.48.26-1.29.37-1.85.37m-3.33-7.91c-.84 1.03-2.07 1.03-3.61 1.29-1.54.25-2.68.7-2.68 2.21s1.15 2.15 2.65 2.15c1.9 0 3.63-1.01 3.63-3.44V16.3zm15.93 6.96c-.92.7-2.04 1.06-3.44 1.06-1.76 0-3.1-.59-3.91-1.84-.5-.75-.7-1.62-.7-3.02v-7.57h-2.43V9.54h2.43V5.65h3.05v3.88h4.47v2.35h-4.47v7.6c0 1.45.7 2.15 1.96 2.15.81 0 1.4-.31 1.82-.64l1.22 2.27z" style="fill:#0099cd"/><path class="st0" d="M41.97 3.2c9.3 0 16.8 7.54 16.8 16.8s-7.53 16.8-16.8 16.8S25.18 29.27 25.18 20c.03-9.29 7.56-16.8 16.79-16.8m0-2.76C31.17.44 22.41 9.2 22.41 20s8.77 19.56 19.56 19.56S61.54 30.8 61.54 20 52.78.44 41.97.44"/><path class="st0" d="M50.45 18.21c0 4.08-1.6 6.84-4.83 9.77l-1.92-2.13c2.04-1.79 3.2-4.02 3.2-6.25v-.44h-3.05V13.4h6.59v4.81h.01zm-16.92 4.11c0-4.11 1.6-6.84 4.83-9.83l1.92 2.17c-2.04 1.79-3.2 3.95-3.2 6.22v.44h3.07v5.75h-6.59v-4.74l-.03-.01zm39.77 5.51v2.66c.48-.63 1.09-.89 1.78-.89 1.49 0 2.4 1.19 2.4 2.74 0 1.56-.92 2.75-2.4 2.75-.69 0-1.3-.26-1.78-.89v.77h-1.1v-7.14h1.1zm1.53 6.26c1 0 1.48-.78 1.48-1.75 0-.96-.48-1.76-1.48-1.76s-1.53.8-1.53 1.76c0 .98.53 1.75 1.53 1.75zm6.28 1.08c-.41 1.08-.87 1.63-1.87 1.63-.46 0-.85-.12-1.19-.36l.45-.78c.18.13.39.21.62.21.43 0 .64-.3.83-.69l.14-.29-2.2-5.18h1.27l1.5 3.79L82 29.72h1.19l-2.08 5.45zm8.86-.48c-.33.25-.74.39-1.25.39-.64 0-1.13-.21-1.42-.67-.18-.27-.25-.59-.25-1.1v-2.75h-.88v-.85h.88V28.3h1.11v1.41h1.62v.85h-1.62v2.76c0 .53.25.78.71.78.29 0 .51-.11.66-.23l.44.82zm3.83-3.81a1.24 1.24 0 0 0-.6-.16c-.67 0-1.26.58-1.26 1.58v2.67h-1.1v-5.25h1.1v.85c.35-.55.87-.95 1.48-.95.29 0 .55.08.7.18l-.32 1.08zm5.32 4.16c-.49 0-.94-.23-1.05-.78-.43.62-1.13.82-1.75.82-1.08 0-1.8-.59-1.8-1.62 0-1.3 1.15-1.5 2.05-1.6.76-.08 1.33-.15 1.33-.66 0-.52-.58-.67-1.07-.67-.54 0-1.15.18-1.64.53l-.44-.83c.65-.42 1.34-.64 2.16-.64 1.24 0 2.11.5 2.11 1.76v2.39c0 .34.11.48.37.48.1 0 .22-.02.29-.07l.12.76c-.18.09-.48.13-.68.13zm-1.21-2.86c-.3.38-.75.38-1.31.47s-.97.25-.97.8.42.78.96.78c.69 0 1.32-.37 1.32-1.25v-.8zm2.74 2.78v-5.25h1.1v.77c.43-.57 1.01-.89 1.72-.89 1.15 0 1.81.77 1.81 1.95v3.42h-1.1V31.8c0-.56-.18-1.19-1.04-1.19-.78 0-1.39.55-1.39 1.42v2.94h-1.1zm8.01.12c-1.07 0-1.94-.41-2.44-1.18l.78-.55c.4.56 1.04.83 1.72.83.65 0 1.09-.24 1.09-.7 0-.48-.48-.58-1.33-.72-1.1-.19-1.98-.5-1.98-1.58 0-1.09.97-1.59 2.06-1.59 1.06 0 1.83.46 2.26.92l-.7.64c-.35-.4-.91-.66-1.57-.66-.5 0-.98.18-.98.59 0 .46.56.56 1.25.68 1.12.2 2.08.49 2.08 1.6 0 1.03-.84 1.72-2.24 1.72zm3.37-.12v-7.14h1.1v7.14h-1.1zm6.79.08c-.49 0-.94-.23-1.05-.78-.43.62-1.13.82-1.75.82-1.08 0-1.8-.59-1.8-1.62 0-1.3 1.15-1.5 2.05-1.6.76-.08 1.33-.15 1.33-.66 0-.52-.58-.67-1.07-.67-.54 0-1.15.18-1.64.53l-.44-.83c.65-.42 1.34-.64 2.16-.64 1.24 0 2.11.5 2.11 1.76v2.39c0 .34.11.48.37.48.1 0 .22-.02.29-.07l.12.76c-.18.09-.48.13-.68.13zm-1.21-2.86c-.3.38-.75.38-1.31.47s-.97.25-.97.8.42.78.96.78c.69 0 1.32-.37 1.32-1.25v-.8zm5.93 2.51c-.33.25-.74.39-1.25.39-.64 0-1.13-.21-1.42-.67-.18-.27-.25-.59-.25-1.1v-2.75h-.88v-.85h.88V28.3h1.11v1.41h1.62v.85h-1.62v2.76c0 .53.25.78.71.78.29 0 .51-.11.66-.23l.44.82zm5.72-2.08h-4c.05.96.68 1.49 1.61 1.49.62 0 1.13-.24 1.52-.66l.72.69c-.55.58-1.28.95-2.28.95-1.77 0-2.75-1.17-2.75-2.72 0-1.56.99-2.77 2.64-2.77 1.59 0 2.56 1.13 2.56 2.64 0 .17-.01.3-.02.38zm-1.09-.79c-.08-.88-.69-1.33-1.44-1.33-.83 0-1.39.55-1.45 1.33h2.89zm6.06 3.14v-.77c-.47.63-1.09.89-1.77.89-1.49 0-2.41-1.19-2.41-2.74 0-1.56.92-2.75 2.41-2.75.69 0 1.3.26 1.77.89v-2.66h1.11v7.14h-1.11zm-1.53-4.37c-1 0-1.48.79-1.48 1.76s.48 1.75 1.48 1.75c1.01 0 1.53-.78 1.53-1.75 0-.98-.53-1.76-1.53-1.76z"/></svg>