<?xml version="1.0" encoding="UTF-8"?>
<svg width="57px" height="36px" viewBox="0 0 57 36" version="1.1" xmlns="http://www.w3.org/2000/svg" xmlns:xlink="http://www.w3.org/1999/xlink">
   <g id="Logo/Only-cat" stroke="none" stroke-width="1" fill="none" fill-rule="evenodd">
        <g id="Group" transform="translate(0.000000, 1.000000)" fill="#FFFFFF">
            <path d="M16.9873984,0 C21.421846,0 25.4810975,1.68413194 28.4999287,4.41876573 C31.5529982,1.68413194 35.5951305,0 40.0126016,0 C44.6857197,0 48.9496885,1.86755882 52.0197347,4.88565543 C55.0897808,7.88707938 57,12.0557414 57,16.6245472 L57,34.9666823 L45.4021589,34.9666823 L45.4021589,24.2281638 C46.7495839,24.1448005 48.182177,23.1943484 48.881497,21.7937623 C49.7512958,20.0595847 49.1885016,18.2753615 47.6022635,17.8250892 C47.2099482,17.7084082 46.7836797,17.6916803 46.3742451,17.7584538 C46.5789624,17.4082727 46.7324647,17.024774 46.834752,16.6079575 C47.3293547,14.5235989 46.1355747,12.6226671 44.191117,12.3392042 C42.7244282,12.1224321 41.2404774,12.8894711 40.3706786,14.1734178 C39.4837605,12.3558769 37.3518474,11.5054746 35.5610348,12.2724998 C33.7871986,13.0228661 32.9686148,15.0570962 33.6508155,16.9246827 C33.1903086,16.8247297 32.7126825,16.8247297 32.2521756,16.908093 C30.3419563,17.2915918 29.4380617,19.2758592 30.2055733,21.326762 C30.9218698,23.2110764 32.8151125,24.5117096 34.6059252,24.4116183 L34.6059252,35 L22.3769556,35 L22.3769556,20.6764454 C24.0313852,20.5764924 25.7027914,19.3424945 26.3508964,17.608317 C27.1355271,15.5574142 26.2145133,13.5731191 24.3042941,13.1896065 C23.8437872,13.0895568 23.366161,13.1062294 22.9057968,13.2062792 C23.5879975,11.3554069 22.769271,9.30442116 20.9954349,8.55406863 C19.2046222,7.78704344 17.0727091,8.6541184 16.1857911,10.4549728 C15.3159922,9.18769873 13.8491749,8.42067354 12.3653383,8.62077308 C10.4039469,8.90423591 9.22710067,10.80514 9.72171763,12.8894711 C9.82404774,13.306329 9.97755005,13.6898416 10.1822245,14.0400088 C9.75582767,13.9733735 9.34649294,14.0066912 8.9542061,14.1066442 C7.38508726,14.5569165 6.80520234,16.3411397 7.67504399,18.0753173 C8.4596034,19.6260403 10.1139902,20.626538 11.563731,20.5097188 L11.563731,34.983272 L0,34.983272 L0,16.6412752 C0,12.0890867 1.91023349,7.93711118 4.98025108,4.91900075 L4.99729897,4.90232809 L5.01436112,4.88565543 C8.1014266,1.86755882 12.3312283,0 16.9873984,0 Z" id="Path"></path>
        </g>
    </g>
</svg>