<svg id="Livello_2" data-name="Livello 2" xmlns="http://www.w3.org/2000/svg" viewBox="0 0 841.89 595.28"><defs><style>.cls-1{fill:none}.cls-2{fill:#333}.cls-3{fill:#00c0f7}.cls-4{fill:#fff}.cls-5{fill:#0070a7}</style></defs><path class="cls-1" d="M313.75 257.07c.11-1.3.21-2.6.3-3.89q.81-11.3 1-22.62.14-8.31.09-16.61M559.43 86.72c.67 1.41 1.34 2.81 2 4.22a1.9 1.9 0 0 0 2 1.27q43.53-.06 87.07 0a2.1 2.1 0 0 0 2.25-1.41l2.77-5.8a78.71 78.71 0 0 0-96.09 1.72Zm121.69 34.72v.15a.65.65 0 0 0 0-.15ZM315 205.94c0-1.38 0-2.77-.09-4.15"/><path class="cls-2" d="M680.9 113.46c.06 2.66.15 5.32.22 8a.65.65 0 0 1 0 .13c-5.84 2.36-10 7.28-10.64 13.26l-6.06 59.44a14.76 14.76 0 0 0 3.51 11 19.33 19.33 0 0 0 13.39 6.58l9.39.71c.53 0 1.07.06 1.6.06a21.45 21.45 0 0 0 3.88-.36c7.85-1.44 13.87-7.16 14.61-14.43v-.41c9.18-1.52 17-13.14 18.48-28.07s-3.78-27.52-12.51-30.47v-.48a14.76 14.76 0 0 0-3.5-11 19.34 19.34 0 0 0-13.27-6.58l-8.84-.67a100 100 0 0 0-12-35.8c.51 4.1 1 8.19 1.18 12.31.25 5.59.43 11.18.56 16.78Zm-72.33-43.98A77.87 77.87 0 0 1 655.52 85q4.47-9.45 9-18.9c-14.41-13.12-33.58-20-55.93-20-24.81 0-44.54 6.88-58.73 20.46q4.81 10.09 9.59 20.19a77.73 77.73 0 0 1 49.12-17.27Z"/><path class="cls-3" d="M769.7 280.47c-6.55-15.3-16.52-28-29.11-38.77a112.59 112.59 0 0 0-28-17.45 48.82 48.82 0 0 1-16.39-11.95 21.34 21.34 0 0 1-3.87.36c-.53 0-1.07 0-1.61-.06l-9.38-.71a19.33 19.33 0 0 1-13.4-6.58 14.76 14.76 0 0 1-3.5-11l6.06-59.44c.61-6 4.8-10.91 10.63-13.27v-.15c-.08-2.66-.17-5.32-.23-8q-.18-8.39-.59-16.77c-.2-4.12-.67-8.22-1.17-12.31-.1-.78-.2-1.55-.29-2.33-.64-5-1.54-10-2.61-15a30.27 30.27 0 0 0-1.86-6 8.25 8.25 0 0 0-1.1-1.91 2.33 2.33 0 0 0-3.06-.83 6.66 6.66 0 0 0-2.86 2.42 20.1 20.1 0 0 0-1.94 3.44l-.92 1.92-9 18.9-2.73 5.77a2.11 2.11 0 0 1-2.26 1.41h-87.06a1.9 1.9 0 0 1-2-1.26c-.66-1.41-1.33-2.82-2-4.22q-4.79-10.11-9.59-20.19l-1-2.18a21.41 21.41 0 0 0-2-3.59 6.72 6.72 0 0 0-2.86-2.39 2.31 2.31 0 0 0-3.06.8 11 11 0 0 0-1.75 3.52 69.1 69.1 0 0 0-2.49 10.62c-.89 5-1.62 10.12-2.24 15.2-.24 2-.47 4.07-.69 6.1-.43 4.15-.58 8.32-1 12.46-.44 4.41-.67 8.83-1.05 13.24-.07.89-.13 1.79-.19 2.68a17.24 17.24 0 0 1 3.31 3.24 15 15 0 0 1 3.11 7.66l6.05 59.44a14.72 14.72 0 0 1-3.5 11 17.77 17.77 0 0 1-4.8 4 3.65 3.65 0 0 1-2.1 5.44 6.36 6.36 0 0 1-1.77.25h-1.17c-1.23-.1-2.5-.2-3.77-.36q-.17 11.5 0 23 .18 11.31 1 22.62c.5 7.1 1.17 14.19 2.15 21.24 2 14 4.81 27.85 9.78 41.16a72.46 72.46 0 0 0 3.08 7.45 50.35 50.35 0 0 1 3.89 12.17 57.6 57.6 0 0 1 1.33 13c0 7-.37 14-.43 21.06 0 1-.71 5.79-.83 6.79-19.06 5.8-9.86 19.88-2.41 16.24-2.15 7.62 5.06 14.08 13 6.79 9 7.46 13.51-2.73 11.85-6.71 12.92-3.81 4.15-15.74-2.4-16 .06-3.54 0-16 0-19.58a2.67 2.67 0 0 1 1.75.64c9 5.93 22.73 11.87 33.24 13.93 1.14.22 2.3.29 3.46.41l2.42.14v4.3c-19.32 5.88-10 20.17-2.44 16.47-2.18 7.73 5.13 14.28 13.19 6.89 9.07 7.56 13.69-2.77 12-6.81 13.11-3.86 4.12-16-2.52-16.21V379l1.74.06h1.69c3.69.16 7.37.36 11.06.5s7.38.24 11.07.38a60.58 60.58 0 0 1 12.21 1.64 17.32 17.32 0 0 1 6.07 2.6 8 8 0 0 1 2.34 2.54c1.08 1.9 1.16 3.35-.57 5.52a8.45 8.45 0 0 1-3.28 2.41 66.54 66.54 0 0 1-10.85 3.39 116.21 116.21 0 0 0-18.86 6.36 43.52 43.52 0 0 0-20.23 17.79 26.75 26.75 0 0 0-4 15.86 25.65 25.65 0 0 0 2.36 8.66 32.28 32.28 0 0 0 6.46 9.51A57 57 0 0 0 649.43 471a58.05 58.05 0 0 0 20.82 2 43.81 43.81 0 0 0 8.14-1.12 22.46 22.46 0 0 0 7.6-3.41 12.61 12.61 0 0 0 4.31-5.17 7.33 7.33 0 0 0-.3-6.84 12.79 12.79 0 0 0-4.29-4.57 25.63 25.63 0 0 0-14-4.4 105.24 105.24 0 0 0-11.36.8 41.61 41.61 0 0 1-10.4-.09c-5-.79-7.73-3.93-9.15-8.52a7.27 7.27 0 0 1 0-4.21 17.24 17.24 0 0 1 7.93-10.63 53 53 0 0 1 10.57-4.6 145.29 145.29 0 0 1 17.79-4.4c5.12-1 10.25-2 15.36-3a49.33 49.33 0 0 0 6.81-2c4.71-1.72 9.46-3.3 14-5.37a117.35 117.35 0 0 0 31-20.32A105.11 105.11 0 0 0 766.87 356a87.76 87.76 0 0 0 9.48-30.67 86.42 86.42 0 0 0-6.65-44.86Zm-202-154.57q.59-4.14 1.2-8.27a5.51 5.51 0 0 1 .62-1.94c.24-.42.64-.42.83 0a5 5 0 0 1 .44 1.83c.16 2.67.32 5.35.48 8.2a4.27 4.27 0 0 1-.12 1.54 1.73 1.73 0 0 1-1.75 1.3 1.77 1.77 0 0 1-1.67-1.42 3.69 3.69 0 0 1 .02-1.24Zm-10-17.69a2.14 2.14 0 0 1 .94 1.26c.4 1.25.81 2.5 1.16 3.77.85 3.1 1.67 6.21 2.51 9.31.3 1.12.64 2.23.91 3.36a2.24 2.24 0 0 1-1.64 2.93c-1.31.24-2.33-.56-2.63-2.1-.1-.56-.14-1.15-.2-1.72q-.43-4.33-.89-8.65c-.21-2.1-.5-4.19-.58-6.3a2.89 2.89 0 0 1 .48-1.86Zm16.69 51.13a19.32 19.32 0 0 1-24 .82c-4.22-3.24-6.53-7.5-6.6-11.18 0-5.73 1.51-9.49 4.28-12.46a19.3 19.3 0 0 1 26.24-1.34 15.73 15.73 0 0 1 .14 24.16ZM624.2 179a8.71 8.71 0 0 1-1.9 2.3 12.29 12.29 0 0 1-7.6 2.66 61.89 61.89 0 0 1-8.82-.33 1.82 1.82 0 0 1-1.79-1.81V167.9c0-1.33-.1-1.44-1.35-1.63a4.19 4.19 0 0 0-.79 0 20.65 20.65 0 0 1-6.19-1.09 9.94 9.94 0 0 1-3-1.33 2.35 2.35 0 0 1-.5-3.79 2.43 2.43 0 0 1 3.06-.38 15.28 15.28 0 0 0 5.25 1.58 24.71 24.71 0 0 0 11.52-.89 9.61 9.61 0 0 1 1.35-.43 2.44 2.44 0 0 1 1.2 4.68 26.14 26.14 0 0 1-6.07 1.6c-1.24.23-1.26.22-1.27 1.5v10.44a11.2 11.2 0 0 0 .13 1.41 1 1 0 0 0 1 1 25.79 25.79 0 0 0 5.82.25c2.95-.08 5.59-.89 7.33-3.57a1.44 1.44 0 0 1 2.18-.53 1.55 1.55 0 0 1 .44 2.28Zm25.71-53.72c1-3.5 2-7 2.87-10.52.44-1.68.88-3.36 1.46-5a2.32 2.32 0 0 1 1-1.51c.5.36.43.87.44 1.32a26.67 26.67 0 0 1-.1 2.68q-.74 7.08-1.52 14.16a3.87 3.87 0 0 1-.24 1.07 2.15 2.15 0 0 1-4.16-.79 4.44 4.44 0 0 1 .25-1.39Zm-8.17-3h.37v-3.94a6.89 6.89 0 0 1 .51-2.61c.19-.44.59-.46.84 0a4.71 4.71 0 0 1 .58 1.79c.43 2.91.85 5.82 1.24 8.73a2.86 2.86 0 0 1-.07 1.09 1.67 1.67 0 0 1-1.59 1.29 1.71 1.71 0 0 1-1.77-1.28 3.92 3.92 0 0 1-.11-1.09c-.01-1.38 0-2.69 0-4ZM633.8 159a15.56 15.56 0 0 1-.94-22.51 18.26 18.26 0 0 1 13.86-5.85 18.69 18.69 0 0 1 11.28 3.67 15.74 15.74 0 0 1 1.5 24.69 19.36 19.36 0 0 1-25.7 0Z"/><path class="cls-4" d="M658 134.31a18.69 18.69 0 0 0-11.25-3.63 18.26 18.26 0 0 0-13.86 5.85 15.56 15.56 0 0 0 .91 22.47 19.36 19.36 0 0 0 25.7 0 15.74 15.74 0 0 0-1.5-24.69Zm-6.21 17a7.32 7.32 0 0 1-8.73 1.25 6.13 6.13 0 0 1 .11-11.05 7.08 7.08 0 0 1 7 .06 6.05 6.05 0 0 1 3.42 5.47 5.79 5.79 0 0 1-1.83 4.29Zm-77.41-16.13a19.3 19.3 0 0 0-26.24 1.34c-2.77 3-4.27 6.73-4.28 12.46.07 3.68 2.38 7.94 6.6 11.18a19.32 19.32 0 0 0 24-.82 15.73 15.73 0 0 0-.08-24.16Zm-8.68 17.22a7.08 7.08 0 0 1-8-.25 5.86 5.86 0 0 1-2.73-5.06 5.92 5.92 0 0 1 1.65-4.16 7.39 7.39 0 0 1 9.13-1.19 6.1 6.1 0 0 1-.05 10.66Z"/><path class="cls-5" d="M623.72 176.7a1.44 1.44 0 0 0-2.18.53c-1.74 2.68-4.38 3.48-7.34 3.56a25.81 25.81 0 0 1-5.82-.25 1 1 0 0 1-1-1 11 11 0 0 1-.12-1.41v-10.44c0-1.27 0-1.27 1.26-1.5a26.08 26.08 0 0 0 6.08-1.6 2.43 2.43 0 0 0-1.2-4.67 8.25 8.25 0 0 0-1.36.43 24.67 24.67 0 0 1-11.51.88 15.12 15.12 0 0 1-5.26-1.58 2.41 2.41 0 0 0-3 .39 2.35 2.35 0 0 0 .49 3.78 10 10 0 0 0 3 1.33 20.59 20.59 0 0 0 6.18 1.09 4.19 4.19 0 0 1 .79 0c1.25.19 1.35.31 1.36 1.63v13.92a1.81 1.81 0 0 0 1.79 1.81 61.84 61.84 0 0 0 8.82.33 12.23 12.23 0 0 0 7.6-2.66 8.9 8.9 0 0 0 1.9-2.3 1.55 1.55 0 0 0-.48-2.27Z"/><path class="cls-4" d="M651.4 128.84a2.13 2.13 0 0 0 2.41-1.35 3.88 3.88 0 0 0 .25-1.07c.51-4.72 1-9.43 1.51-14.15a24.1 24.1 0 0 0 .1-2.69c0-.45.06-1-.44-1.31-.62.31-.78.92-1 1.51-.58 1.64-1 3.32-1.46 5-.93 3.52-1.91 7-2.88 10.53a4.43 4.43 0 0 0-.25 1.39 2.16 2.16 0 0 0 1.76 2.14Zm-93.64-20.63a2.92 2.92 0 0 0-.43 1.86c.08 2.11.38 4.2.59 6.3.29 2.88.59 5.77.89 8.65.06.58.09 1.16.2 1.73.29 1.54 1.31 2.33 2.63 2.09a2.24 2.24 0 0 0 1.63-2.93c-.26-1.13-.6-2.24-.9-3.36-.84-3.1-1.66-6.21-2.52-9.31-.35-1.27-.75-2.52-1.16-3.77a2.16 2.16 0 0 0-.93-1.26Zm11.68 20.36a1.75 1.75 0 0 0 1.76-1.31 4.49 4.49 0 0 0 .12-1.54l-.49-8.2a5 5 0 0 0-.43-1.83c-.2-.42-.6-.41-.84 0a5.51 5.51 0 0 0-.62 1.94c-.41 2.76-.81 5.51-1.19 8.27a3.5 3.5 0 0 0 0 1.25 1.79 1.79 0 0 0 1.69 1.42Zm72.3-2.37a4 4 0 0 0 .1 1.09 1.75 1.75 0 0 0 1.77 1.28 1.71 1.71 0 0 0 1.6-1.3 2.85 2.85 0 0 0 .07-1.09c-.4-2.91-.82-5.82-1.24-8.73a4.73 4.73 0 0 0-.59-1.79c-.24-.4-.65-.39-.84 0a6.88 6.88 0 0 0-.5 2.61v3.94h-.37c-.01 1.36-.02 2.67 0 3.99Z"/><path class="cls-5" d="M650.1 141.59a7.1 7.1 0 0 0-7-.06 6.13 6.13 0 0 0-.12 11.05 7.32 7.32 0 0 0 8.74-1.25 5.78 5.78 0 0 0 1.75-4.27 6 6 0 0 0-3.37-5.47Zm-84.4.15a7.4 7.4 0 0 0-9.13 1.2 6.06 6.06 0 0 0 1.09 9.21 7.06 7.06 0 0 0 8 .25 6.1 6.1 0 0 0 .04-10.66Z"/><path class="cls-2" d="M540.46 204.31a17.77 17.77 0 0 1-4.8 4 3.82 3.82 0 0 0-.94-1.07A7.54 7.54 0 0 0 532 206h-.11q-2.36-.65-4.82-1.26c-2.37-.58-4.8-1.11-7.29-1.5 2.24-.37 4.41-.69 6.62-.85h1.36a21.94 21.94 0 0 0 4.31-.48h.14a4.05 4.05 0 0 0 3.83-3.05 3.44 3.44 0 0 0-.51-2.87 5.33 5.33 0 0 0-3.93-1.89c-1.43-.14-2.8-.25-4.14-.33-2.12-.14-4.14-.22-6.08-.22s-3.6.06-5.32.18c-.06-1-.11-2.05-.17-3.08-.19-3.42-.39-6.94-.61-10.42l-.3-4.54c0-.71-.09-1.42-.14-2.13-.16-2.4-.32-4.8-.49-7.15l-.06-1c0-.67-.1-1.34-.14-2-.08-1.1-.15-2.2-.23-3.31l-.24-3.83c-.18-2.76-.36-5.61-.6-8.43-.18-2.06-.33-4.18-.47-6.22-.21-2.9-.43-5.91-.72-8.88-.22-2.23-.38-4.52-.54-6.75-.13-2-.29-4.1-.48-6.18l7-.52c.53 0 1.07-.06 1.61-.06a21.27 21.27 0 0 1 6.4 1 106.27 106.27 0 0 1 8.58-31.59c-.24 2-.47 4.07-.69 6.1-.43 4.15-.58 8.32-1 12.46-.44 4.41-.67 8.83-1.05 13.24-.07.89-.13 1.79-.19 2.68a17.24 17.24 0 0 1 3.31 3.24 15 15 0 0 1 3.11 7.66l6.05 59.27a14.72 14.72 0 0 1-3.54 11.02Z"/><path class="cls-3" d="M187.06 113.24c-.25-2.32-.5-4.65-.74-7a24.1 24.1 0 0 1-.1-2.69c0-.45-.06-1 .44-1.31.62.31.78.92 1 1.51.58 1.64 1 3.32 1.46 5 .4 1.51.81 3 1.22 4.52 2.44.07 4.86.2 7.2.38.11-.74.21-1.49.32-2.23a4.73 4.73 0 0 1 .59-1.79c.24-.4.65-.39.84 0a6.88 6.88 0 0 1 .5 2.61v1.55c9.64.9 18 2.69 22.62 5a31.77 31.77 0 0 0 14.33 3.21h.07a31.78 31.78 0 0 0 14.32-3.13c4.17-2.09 11.35-3.75 19.77-4.71.05-.89.1-1.77.16-2.65a4.81 4.81 0 0 1 .43-1.83c.2-.42.6-.41.83 0a5.33 5.33 0 0 1 .63 1.94l.33 2.29c2.3-.23 4.67-.4 7.09-.51.55-2.06 1.1-4.11 1.67-6.17.35-1.27.75-2.52 1.16-3.77a2.16 2.16 0 0 1 .93-1.26 2.92 2.92 0 0 1 .43 1.86c-.08 2.11-.38 4.2-.59 6.3l-.3 2.92c1.29 0 2.59-.06 3.89-.06h22.57c-.33-4.06-.56-8.13-1-12.2s-.57-8.31-1-12.46c-.74-7.13-1.68-14.24-2.93-21.3a67.8 67.8 0 0 0-2.48-10.61 11.32 11.32 0 0 0-1.72-3.52 2.31 2.31 0 0 0-3.06-.79 6.66 6.66 0 0 0-2.86 2.42 22.51 22.51 0 0 0-2 3.59c-4.22 8.86-8.46 17.71-12.63 26.59a1.9 1.9 0 0 1-2 1.27q-43.53-.06-87.07 0a2.12 2.12 0 0 1-2.26-1.41c-4.17-8.88-8.41-17.72-12.62-26.58a21.21 21.21 0 0 0-1.94-3.45 6.61 6.61 0 0 0-2.87-2.41 2.3 2.3 0 0 0-3 .82 8.28 8.28 0 0 0-1.11 1.91 31.15 31.15 0 0 0-1.86 6c-1.07 5-2 9.92-2.6 15-.62 4.87-1.22 9.73-1.47 14.63-.28 5.59-.46 11.18-.59 16.78 0 1.92-.11 3.85-.16 5.77h26.23Zm34.61 17.19c-1.13-2.06-3.64-3.49-8.64-4.91-5.89-1.69-14.27-2.57-21.89-2.91l-2.23-.09c-1.88-.06-3.69-.09-5.39-.09a96.07 96.07 0 0 0-12.1.63c-9.11 1.28-9.77 2.18-9.77 7.22 0 12.85 3.73 34.49 28.54 35.2 23.16 0 28.91-15.52 29.83-18.63 2.68-9.1 3.15-13.7 1.65-16.42Zm-12.63.1a18.26 18.26 0 0 0-13.86-5.85 18.69 18.69 0 0 0-11.25 3.63A15.74 15.74 0 0 0 182.4 153a19.35 19.35 0 0 0 25.69 0 15.55 15.55 0 0 0 .91-22.47Zm84.72-.01a19.3 19.3 0 0 0-26.24-1.34 15.72 15.72 0 0 0-.07 24.16 19.32 19.32 0 0 0 24 .82c4.22-3.24 6.53-7.5 6.6-11.18-.05-5.73-1.52-9.49-4.29-12.46Zm0 0a19.3 19.3 0 0 0-26.24-1.34 15.72 15.72 0 0 0-.07 24.16 19.32 19.32 0 0 0 24 .82c4.22-3.24 6.53-7.5 6.6-11.18-.05-5.73-1.52-9.49-4.29-12.46Z"/><path class="cls-3" d="M330.12 169.6a3.06 3.06 0 0 1-1.09.09c-1.37-.11-2.74-.2-4.09-.39a78.69 78.69 0 0 0-10.74-.53 2.28 2.28 0 0 0-.5.11q.27 6.24.52 12.44t.49 12.67h-.21a3.93 3.93 0 0 0-3.71 3.88 3.84 3.84 0 0 0 3.54 3.78l.57.1c0 1.38.07 2.77.09 4.15-.58.18-1.16.37-1.74.6a3.79 3.79 0 0 0 1.23 7.39h.6q0 8.3-.09 16.61-.18 11.31-1 22.62c-.09 1.29-.19 2.59-.3 3.89a51 51 0 0 1-10.62 6.34 131.85 131.85 0 0 0-32.54 20.3c-15.22 13-26.63 28.19-33.91 45.18a102 102 0 0 0-3.1 73.17c-2.56 1.47-6.25 1.13-10.12-2.41-9.07 7.56-13.69-2.77-12-6.81-13.11-3.86-4.12-16 2.52-16.21V373l-1.74.06h-1.69c-3.69.16-7.38.36-11.06.5s-7.39.24-11.08.38a60.58 60.58 0 0 0-12.2 1.64 17.32 17.32 0 0 0-6.07 2.6 8 8 0 0 0-2.34 2.54c-1.08 1.9-1.16 3.35.57 5.52a8.45 8.45 0 0 0 3.28 2.41 66.54 66.54 0 0 0 10.85 3.39 115.77 115.77 0 0 1 18.85 6.36 43.5 43.5 0 0 1 20.24 17.79 26.75 26.75 0 0 1 4 15.86 25.88 25.88 0 0 1-2.36 8.66 32.48 32.48 0 0 1-6.46 9.51A57 57 0 0 1 192.47 465a58.05 58.05 0 0 1-20.82 2 43.81 43.81 0 0 1-8.14-1.12 22.46 22.46 0 0 1-7.6-3.41 12.61 12.61 0 0 1-4.31-5.17 7.33 7.33 0 0 1 .3-6.84 12.79 12.79 0 0 1 4.29-4.57 25.63 25.63 0 0 1 14-4.4 105.24 105.24 0 0 1 11.36.8 41.61 41.61 0 0 0 10.4-.09c5-.79 7.73-3.93 9.15-8.52a7.27 7.27 0 0 0 0-4.21 17.28 17.28 0 0 0-7.93-10.63 53 53 0 0 0-10.57-4.6 145.29 145.29 0 0 0-17.79-4.4c-5.12-1-10.25-2-15.36-3a49.33 49.33 0 0 1-6.81-2c-4.71-1.72-9.46-3.3-14-5.37a117.35 117.35 0 0 1-31-20.32A105.11 105.11 0 0 1 75 350a87.55 87.55 0 0 1-9.48-30.67 86.51 86.51 0 0 1 6.64-44.87c6.55-15.3 16.53-28 29.12-38.77a112.59 112.59 0 0 1 28-17.45A50.16 50.16 0 0 0 148.54 203a57.42 57.42 0 0 0 6.51-11.14 21.87 21.87 0 0 0 2-7.78c.34-4.57.67-9.15 1-13.73 0-.46.1-.92.15-1.43a3.15 3.15 0 0 0-.63-.12 103.19 103.19 0 0 0-16.58.77 13.48 13.48 0 0 1-2.69.13c-.39 0-.74-.15-.81-.59s.27-.68.61-.82a43 43 0 0 1 4.71-1.37 74.17 74.17 0 0 1 14.52-2.2c1.26-.08 1.26-.09 1.28-1.39v-.63c.09-.61-.19-.82-.76-.92-2.7-.49-5.39-1-8.09-1.52a79.83 79.83 0 0 0-9.27-1 17.75 17.75 0 0 1-2-.3c-.43-.07-.9-.23-.9-.72s.51-.74 1-.81c.73-.1 1.46-.23 2.2-.27a76.74 76.74 0 0 1 16.73.47h.14c.57.85 1.19 1.71 1.87 2.55 6.72 8.37 16.51 12.84 29.1 13.27h2c28.61 0 37-21.45 38.85-28 .92-3.22 5.15-5 7.27-5.23 2.12.25 6.35 2 7.28 5.23a40.31 40.31 0 0 0 3.25 7.93 3.28 3.28 0 0 0-.69.27 15.28 15.28 0 0 1-5.25 1.58 24.71 24.71 0 0 1-11.52-.89 9.61 9.61 0 0 0-1.35-.43 2.44 2.44 0 0 0-1.2 4.68 26.14 26.14 0 0 0 6.07 1.6c1.24.23 1.26.22 1.27 1.5v10.44a11.2 11.2 0 0 1-.13 1.41 1 1 0 0 1-1 1 25.79 25.79 0 0 1-5.82.25c-2.95-.08-5.59-.89-7.33-3.57a1.44 1.44 0 0 0-2.18-.53 1.55 1.55 0 0 0-.48 2.33 8.71 8.71 0 0 0 1.9 2.3 12.26 12.26 0 0 0 7.59 2.66 62 62 0 0 0 8.83-.33 1.82 1.82 0 0 0 1.79-1.81v-13.92c0-1.33.1-1.44 1.35-1.63a4.19 4.19 0 0 1 .79 0 20.65 20.65 0 0 0 6.19-1.09 9.94 9.94 0 0 0 3-1.33 3.62 3.62 0 0 0 .54-.48c5.45 7.85 15.4 16.14 33.19 16.14h2c12.58-.43 22.38-4.9 29.1-13.26a34.85 34.85 0 0 0 2.27-3.19 80.24 80.24 0 0 1 12.59.35c1.17.12 1.72.45 1.61.89-.21.81-1 .66-1.56.81a27.92 27.92 0 0 1-4.56.42c-3.38.25-6.69.91-10 1.45-1.06.18-1.09.25-1.11 1.34a4.41 4.41 0 0 0 .05 1.26c.42 1.58-.06 1.37 1.62 1.52a77.22 77.22 0 0 1 13.78 2.79 4.47 4.47 0 0 1 1.6.65.61.61 0 0 1-.11 1.04Z"/><path class="cls-4" d="M209 130.53a18.26 18.26 0 0 0-13.86-5.85 18.69 18.69 0 0 0-11.25 3.63A15.74 15.74 0 0 0 182.4 153a19.35 19.35 0 0 0 25.69 0 15.55 15.55 0 0 0 .91-22.47Zm-10.17 16.05a7.32 7.32 0 0 1-8.73-1.25 5.79 5.79 0 0 1-1.76-4.27 6.06 6.06 0 0 1 3.41-5.47 7.09 7.09 0 0 1 7-.06 6.13 6.13 0 0 1 .11 11.05Zm94.93-16.06a19.3 19.3 0 0 0-26.24-1.34 15.72 15.72 0 0 0-.07 24.16 19.32 19.32 0 0 0 24 .82c4.22-3.24 6.53-7.5 6.6-11.18-.05-5.73-1.52-9.49-4.29-12.46Zm-9.52 15.63a7.08 7.08 0 0 1-8 .25 6.1 6.1 0 0 1 0-10.66 7.39 7.39 0 0 1 9.13 1.19 6.08 6.08 0 0 1-1.08 9.22Z"/><path class="cls-5" d="M246.6 153.66a15.07 15.07 0 0 1-5.25 1.58 24.72 24.72 0 0 1-11.52-.88 7.86 7.86 0 0 0-1.35-.43 2.43 2.43 0 0 0-1.2 4.67 26.08 26.08 0 0 0 6.08 1.6c1.23.23 1.25.23 1.26 1.5v10.44a11 11 0 0 1-.12 1.41 1 1 0 0 1-1 1 25.81 25.81 0 0 1-5.82.25c-3-.08-5.6-.88-7.34-3.56a1.44 1.44 0 0 0-2.18-.53 1.55 1.55 0 0 0-.48 2.32 8.9 8.9 0 0 0 1.9 2.3 12.23 12.23 0 0 0 7.6 2.66 61.84 61.84 0 0 0 8.82-.33 1.81 1.81 0 0 0 1.79-1.81v-13.93c0-1.32.11-1.44 1.36-1.63a4.14 4.14 0 0 1 .79 0 20.59 20.59 0 0 0 6.18-1.09 10 10 0 0 0 3-1.33 4.2 4.2 0 0 0 .54-.48 43.91 43.91 0 0 1-2.42-3.95 3.69 3.69 0 0 0-.64.22Z"/><path class="cls-4" d="M187.65 103.78c-.21-.59-.37-1.2-1-1.51-.5.35-.44.86-.44 1.31a24.1 24.1 0 0 0 .1 2.69c.24 2.32.49 4.65.74 7q1.65 0 3.27.06c-.41-1.5-.82-3-1.22-4.52-.43-1.71-.87-3.39-1.45-5.03Z"/><path class="cls-1" d="m191.14 122.61-2.23-.09"/><path class="cls-4" d="M281.66 122.65a2.12 2.12 0 0 1-1.4.19 1.91 1.91 0 0 1-.34-.1c.58-.03 1.16-.07 1.74-.09Zm2.9-18.58a2.92 2.92 0 0 0-.43-1.86 2.16 2.16 0 0 0-.93 1.26c-.41 1.25-.81 2.5-1.16 3.77-.57 2.06-1.12 4.11-1.67 6.17q1.63-.07 3.3-.12l.3-2.92c.21-2.1.51-4.19.59-6.3Zm-12.24 5.62c-.23-.41-.63-.42-.83 0a4.81 4.81 0 0 0-.43 1.83c-.06.88-.11 1.76-.16 2.65.78-.09 1.58-.18 2.38-.25l-.33-2.29a5.33 5.33 0 0 0-.63-1.94Zm-73.04.02c-.19-.44-.6-.45-.84 0a4.73 4.73 0 0 0-.59 1.79c-.11.74-.21 1.49-.32 2.23l2.26.19v-1.55a6.88 6.88 0 0 0-.51-2.66Z"/><path class="cls-5" d="M198.87 146.58a6.13 6.13 0 0 0-.12-11.05 7.1 7.1 0 0 0-7 .06 6 6 0 0 0-3.41 5.47 5.78 5.78 0 0 0 1.75 4.27 7.32 7.32 0 0 0 8.78 1.25Zm77.32-.18a7.06 7.06 0 0 0 8-.25 6.06 6.06 0 0 0 1.09-9.21 7.4 7.4 0 0 0-9.13-1.2 6.1 6.1 0 0 0 .04 10.66Z"/><path class="cls-3" d="M532.9 209.6a5.2 5.2 0 0 0-1.82-.75c-1.36-.37-2.73-.74-4.1-1.08a74.12 74.12 0 0 0-11.56-2.09c-1.92-.17-1.37.07-1.85-1.73a5.23 5.23 0 0 1 0-1.43c0-1.23.06-1.31 1.27-1.51 3.78-.63 7.54-1.37 11.38-1.66h1.06a22.1 22.1 0 0 0 4.13-.43c.66-.16 1.53 0 1.77-.91.13-.51-.5-.88-1.83-1s-2.64-.23-4-.32c-2-.13-4-.21-6-.21-2.2 0-4.39.09-6.59.3-.32 0-.64.15-1 .15a1.15 1.15 0 0 1-.44-.09c-.3-.37-.19-.8-.21-1.21-.3-5.09-.56-10.19-.88-15.28-.1-1.54-.21-3.08-.31-4.62l-.09-1.3c-.31-4.73-.64-9.46-1-14.19-.28-4.07-.49-8.14-.84-12.2-.43-5-.69-10-1.19-15.06-.43-4.31-.62-8.65-1-13 0-.4-.07-.8-.11-1.19-.84-8.11-1.91-16.2-3.33-24.22a77.76 77.76 0 0 0-2.82-12.07 12.76 12.76 0 0 0-2-4 2.68 2.68 0 0 0-2.11-1.21 3.78 3.78 0 0 0-1.37.3 7.71 7.71 0 0 0-3.25 2.76 25.47 25.47 0 0 0-2.28 4.08c-4.79 10.07-9.61 20.14-14.35 30.23a2.15 2.15 0 0 1-2.3 1.44h-98.95a2.39 2.39 0 0 1-2.56-1.59c-4.74-10.1-9.56-20.16-14.36-30.24a23.88 23.88 0 0 0-2.2-3.91 7.64 7.64 0 0 0-3.26-2.75 3.82 3.82 0 0 0-1.34-.29 2.7 2.7 0 0 0-2.13 1.23 9.24 9.24 0 0 0-1.26 2.17 35.14 35.14 0 0 0-2.12 6.86c-1.21 5.63-2.24 11.28-3 17-.69 5.54-1.38 11.07-1.66 16.64-.32 6.35-.53 12.71-.67 19.07-.25 10.74-.6 21.48-1.12 32.21q-.45 9.35-.86 18.7c-.08 1.67-.17 3.34-.24 5-.05 1-.06 1.21-.67 1.21-.18 0-.41 0-.71-.05h-.36a67.24 67.24 0 0 0-10.87-.8c-2.71 0-5.43.12-8.15.27-.84 0-1.67.19-2.5.31h-.12c-.51.09-1 .28-1 .89s.53.74 1 .82a19.42 19.42 0 0 0 2.27.34 86.82 86.82 0 0 1 10.54 1.13c3.07.55 6.12 1.18 9.19 1.73.65.11 1 .35.87 1a4.33 4.33 0 0 0 0 .72c0 1.48 0 1.49-1.46 1.58a84.46 84.46 0 0 0-16.51 2.5c-1.57.41-3.15.78-4.68 1.32-.22.08-.45.15-.67.24-.39.16-.77.41-.69.93s.47.66.92.68h.74a15 15 0 0 0 2.31-.17 97.57 97.57 0 0 1 14.69-.9h4.16a4.07 4.07 0 0 1 .72.13c-.06.58-.14 1.11-.18 1.63q-.57 7.82-1.16 15.62a24.57 24.57 0 0 1-2.27 8.83 64.9 64.9 0 0 1-7.39 12.67 60.78 60.78 0 0 1-12.84 12.26 54.17 54.17 0 0 1-9.07 5.1A128.26 128.26 0 0 0 272.54 286c-14.31 12.22-25.65 26.69-33.1 44.08a98.31 98.31 0 0 0-7.55 51 99.63 99.63 0 0 0 4 18.57 100.75 100.75 0 0 0 6.78 16.3 119.79 119.79 0 0 0 25.7 33.1 133.3 133.3 0 0 0 35.21 23.1c5.2 2.35 10.6 4.15 15.95 6.1a57.05 57.05 0 0 0 7.75 2.33c5.8 1.2 11.64 2.25 17.46 3.42a167.84 167.84 0 0 1 20.26 5 60.68 60.68 0 0 1 12 5.23 19.58 19.58 0 0 1 9 12.09 8.28 8.28 0 0 1 0 4.78c-1.62 5.22-4.72 8.79-10.41 9.68a36.65 36.65 0 0 1-5.81.43c-2 0-4-.13-6-.32-4.14-.4-8.27-.91-12.44-.91h-.47a29.1 29.1 0 0 0-15.9 5 14.72 14.72 0 0 0-4.88 5.19 8.34 8.34 0 0 0-.34 7.78 14.34 14.34 0 0 0 4.9 5.87 25.59 25.59 0 0 0 8.65 3.89 49.62 49.62 0 0 0 9.24 1.26c2 .13 3.9.21 5.84.21a61.48 61.48 0 0 0 17.84-2.47A64.8 64.8 0 0 0 403.7 530a36.56 36.56 0 0 0 7.35-10.82 29 29 0 0 0 2.68-9.84 30.37 30.37 0 0 0-4.52-18c-5.44-9.29-13.28-15.82-23-20.22a130.63 130.63 0 0 0-21.44-7.24 75.68 75.68 0 0 1-12.34-3.88 9.63 9.63 0 0 1-3.72-2.74c-2-2.47-1.88-4.12-.65-6.28a9.2 9.2 0 0 1 2.66-2.89 19.63 19.63 0 0 1 6.91-2.95 68.26 68.26 0 0 1 13.87-1.86c4.19-.16 8.39-.26 12.59-.43s8.38-.39 12.58-.57h1.92l2-.07v4.05c-7.54.29-17.76 14-2.86 18.43-1.43 3.42 1.12 10.8 6.78 10.8 1.94 0 4.24-.87 6.87-3.06 2.83 2.59 5.58 3.68 8 3.68 5.32 0 8.76-5.44 7-11.51a6.59 6.59 0 0 0 2.91.68c7.65 0 13.83-13.47-5.68-19.4v-4.9l2.75-.16c1.31-.13 2.64-.21 3.93-.46 11.95-2.34 27.6-9.1 37.8-15.84a3.15 3.15 0 0 1 1.79-.73h.12c0 4.07-.06 18.24 0 22.25-7.44.29-17.42 13.85-2.72 18.18-1.4 3.37 1.11 10.66 6.69 10.66 1.91 0 4.18-.86 6.78-3 2.79 2.56 5.5 3.63 7.84 3.63 5.25 0 8.64-5.36 6.95-11.35a6.56 6.56 0 0 0 2.87.68c7.55 0 13.64-13.29-5.6-19.14-.15-1.13-.95-6.58-1-7.72-.06-8-.46-15.95-.48-23.94a65.82 65.82 0 0 1 1.51-14.82c1.06-4.74 2.19-9.45 4.42-13.83a81.67 81.67 0 0 0 3.5-8.48c5.74-15.23 9-30.91 11.24-46.91 1.12-8 1.88-16.08 2.45-24.16q.92-12.84 1.12-25.71c.2-13.27.17-26.53-.3-39.79-.18-5.4-.4-10.79-.62-16.19q-.25-6.3-.53-12.61c0-.51 0-1-.07-1.54a3.08 3.08 0 0 1 .57-.12 90 90 0 0 1 12.17.6h.08c.58.08 1.15.14 1.73.19.95.09 1.89.17 2.84.24h.34a3.32 3.32 0 0 0 .9-.12.69.69 0 0 0 .22-1.19Zm-152-54.95q.69-5 1.41-9.93a5.59 5.59 0 0 1 .67-2c.28-.46.74-.44.95.06a7.74 7.74 0 0 1 .58 3v4.47h.42v4.48a4.66 4.66 0 0 1-.12 1.24 2 2 0 0 1-2 1.45 1.94 1.94 0 0 1-1.82-1.47 3.44 3.44 0 0 1-.09-1.3Zm-11.31-20.37a2.65 2.65 0 0 1 1.13 1.72c.66 1.87 1.16 3.78 1.66 5.69 1.05 4 2.17 8 3.27 12a5.3 5.3 0 0 1 .28 1.58 2.46 2.46 0 0 1-2 2.44 2.42 2.42 0 0 1-2.74-1.54 4.52 4.52 0 0 1-.28-1.22c-.58-5.36-1.17-10.72-1.72-16.09a25.84 25.84 0 0 1-.11-3.05c.01-.55-.08-1.12.51-1.53ZM394 192c-7.93 7.39-21.29 7.39-29.21 0a17.91 17.91 0 0 1 1.74-28.11 21.22 21.22 0 0 1 12.79-4.13c6.17 0 11.54 2.08 15.75 6.65 6.98 7.65 6.48 18.53-1.07 25.59Zm80.19-37.67c.3-1.28.69-2.54 1-3.81.95-3.53 1.89-7.07 2.86-10.59.4-1.44.86-2.87 1.32-4.29a2.44 2.44 0 0 1 1.06-1.43 3.38 3.38 0 0 1 .49 2.12c-.1 2.4-.43 4.77-.67 7.16-.33 3.27-.68 6.55-1 9.83-.06.66-.1 1.32-.22 2-.33 1.75-1.49 2.66-3 2.39a2.56 2.56 0 0 1-1.89-3.37Zm-9.15-.21c.19-3.25.37-6.29.56-9.33a5.56 5.56 0 0 1 .49-2.08c.22-.47.68-.47.95 0a6.42 6.42 0 0 1 .7 2.21c.47 3.13.93 6.26 1.36 9.4a4 4 0 0 1 0 1.42 2 2 0 0 1-1.91 1.61 2 2 0 0 1-2-1.48 5 5 0 0 1-.19-1.74Zm-24.33 43.32a11.13 11.13 0 0 1-3.44 1.52 23.35 23.35 0 0 1-7 1.24 5.38 5.38 0 0 0-.9 0c-1.42.22-1.54.35-1.54 1.86v15.82a2.07 2.07 0 0 1-2 2.06 70 70 0 0 1-10 .38 13.94 13.94 0 0 1-8.64-3 10.08 10.08 0 0 1-2.16-2.62 1.77 1.77 0 0 1 .55-2.64 1.63 1.63 0 0 1 2.47.61c2 3 5 4 8.34 4.05a28.91 28.91 0 0 0 6.63-.29 1.18 1.18 0 0 0 1.12-1.12 12.34 12.34 0 0 0 .14-1.6v-11.87c0-1.45 0-1.45-1.44-1.71a29.6 29.6 0 0 1-6.91-1.82 2.77 2.77 0 0 1 1.37-5.31 9.5 9.5 0 0 1 1.54.49 27.92 27.92 0 0 0 13.09 1 17.43 17.43 0 0 0 6-1.79 2.76 2.76 0 0 1 3.48.43c1.22 1.46.79 3.24-.75 4.32Zm52.62-8.85a21.7 21.7 0 0 1-31.85 3.75 17.88 17.88 0 0 1 .08-27.46 22 22 0 0 1 25-2.29 20.81 20.81 0 0 1 4.85 3.81c3.15 3.37 4.86 7.65 4.87 14.17a14.65 14.65 0 0 1-3 8.03Z"/><path class="cls-4" d="M395 166.42c-4.21-4.57-9.58-6.6-15.75-6.65a21.22 21.22 0 0 0-12.79 4.13 17.91 17.91 0 0 0-1.72 28.1c7.92 7.39 21.28 7.39 29.21 0 7.6-7.06 8.1-17.94 1.05-25.58Zm-11.55 18.25a8.33 8.33 0 0 1-9.93-1.42 6.61 6.61 0 0 1-2-4.86 6.91 6.91 0 0 1 3.88-6.22 8 8 0 0 1 7.92-.06 7 7 0 0 1 .13 12.56Zm107.9-18.26a20.81 20.81 0 0 0-4.85-3.81 22 22 0 0 0-25 2.29 17.88 17.88 0 0 0-.08 27.46 21.7 21.7 0 0 0 31.85-3.75 14.65 14.65 0 0 0 2.94-8c0-6.54-1.71-10.82-4.86-14.19Zm-10.83 17.77a8.06 8.06 0 0 1-9.14.29 6.93 6.93 0 0 1 0-12.12 8.4 8.4 0 0 1 10.38 1.35 6.89 6.89 0 0 1-1.24 10.48Z"/><path class="cls-5" d="M437.74 192.72a17.36 17.36 0 0 1-6 1.8 28.1 28.1 0 0 1-13.1-1 9.39 9.39 0 0 0-1.53-.49 2.77 2.77 0 0 0-1.37 5.32 30 30 0 0 0 6.91 1.82c1.4.25 1.42.25 1.44 1.7v11.87a12.2 12.2 0 0 1-.15 1.6 1.18 1.18 0 0 1-1.12 1.13 29.39 29.39 0 0 1-6.62.28c-3.36-.09-6.36-1-8.34-4.05a1.64 1.64 0 0 0-2.48-.6 1.77 1.77 0 0 0-.54 2.64 9.8 9.8 0 0 0 2.16 2.61 13.86 13.86 0 0 0 8.64 3 70 70 0 0 0 10-.38 2.05 2.05 0 0 0 2-2.05v-15.81c0-1.51.12-1.63 1.55-1.85a4.39 4.39 0 0 1 .89 0 23.3 23.3 0 0 0 7-1.24 11.14 11.14 0 0 0 3.44-1.51c1.54-1.09 2-2.87.56-4.3a2.74 2.74 0 0 0-3.34-.49Z"/><path class="cls-4" d="M369.19 138.83q.84 8.05 1.73 16.1a4.18 4.18 0 0 0 .28 1.21 2.42 2.42 0 0 0 2.74 1.54 2.46 2.46 0 0 0 2-2.44 4.74 4.74 0 0 0-.28-1.58c-1.1-4-2.22-8-3.27-12-.5-1.91-1-3.82-1.66-5.69a2.61 2.61 0 0 0-1.13-1.72c-.57.41-.49 1-.5 1.5-.02 1.05-.01 2.07.09 3.08ZM476 157.68c1.5.27 2.66-.63 3-2.38.12-.65.16-1.31.23-2 .34-3.28.68-6.55 1-9.83.24-2.39.58-4.76.67-7.16a3.3 3.3 0 0 0-.48-2.12 2.44 2.44 0 0 0-1.07 1.43c-.46 1.43-.92 2.85-1.32 4.29-1 3.53-1.9 7.06-2.85 10.59-.35 1.27-.74 2.53-1 3.81a2.55 2.55 0 0 0 1.82 3.37Zm-8.88-.31a2 2 0 0 0 1.9-1.62 4.22 4.22 0 0 0 0-1.42c-.44-3.13-.9-6.27-1.36-9.4a6.31 6.31 0 0 0-.71-2.2c-.27-.48-.72-.48-1 0a5.66 5.66 0 0 0-.49 2.08c-.18 3-.36 6.08-.55 9.32a4.8 4.8 0 0 0 .14 1.75 2 2 0 0 0 2.07 1.49Zm-84.33-.01a1.94 1.94 0 0 0 2-1.45 4.63 4.63 0 0 0 .13-1.24v-4.48h-.42v-4.47a7.73 7.73 0 0 0-.57-3c-.21-.5-.67-.52-.95-.06a5.29 5.29 0 0 0-.67 2q-.74 5-1.41 9.94a3.19 3.19 0 0 0 .08 1.23 1.9 1.9 0 0 0 1.81 1.53Z"/><path class="cls-5" d="M383.33 172.11a8 8 0 0 0-7.91.06 6.87 6.87 0 0 0-3.88 6.22 6.64 6.64 0 0 0 2 4.86 8.33 8.33 0 0 0 9.93 1.42 7 7 0 0 0-.13-12.56Zm88.05.24a6.93 6.93 0 0 0 0 12.12 8.06 8.06 0 0 0 9.14-.29 6.9 6.9 0 0 0 1.23-10.48 8.39 8.39 0 0 0-10.37-1.35Z"/><path class="cls-2" d="M329.93 119.35v-1.2c0-4.34-2.6-4.92-5.14-4.92H283.7c-1.1 0-2.2.07-3.29.13-2.42.11-4.8.28-7.1.5l-2.38.25c-8.41 1-15.59 2.63-19.76 4.72a31.82 31.82 0 0 1-14.36 3.17h-.06a31.78 31.78 0 0 1-14.34-3.13c-4.63-2.32-13-4.12-22.61-5-.75-.06-1.5-.13-2.26-.18-2.35-.19-4.76-.31-7.2-.38q-1.64 0-3.27-.06h-38.29a5.53 5.53 0 0 0-3.72 1 4.86 4.86 0 0 0-1.41 3.93v1.23c-.2 6.86.07 13.62 3.42 16.57s3.89 4.62 4.63 7.2c0 .15.1.38.17.67a42.17 42.17 0 0 0 5.82 13.8c.57.85 1.19 1.71 1.87 2.55 6.72 8.37 16.51 12.84 29.1 13.27h2c28.61 0 37-21.45 38.85-28 .92-3.22 5.15-5 7.27-5.23 2.12.25 6.35 2 7.28 5.23a41.91 41.91 0 0 0 5.66 11.89c5.45 7.85 15.4 16.14 33.19 16.14h2c12.58-.43 22.38-4.9 29.1-13.26a34.85 34.85 0 0 0 2.27-3.19 42.79 42.79 0 0 0 5.42-13.17c.07-.29.12-.52.17-.67.74-2.59 1.37-4.32 4.62-7.2s3.64-10.11 3.44-16.66ZM220 146.85c-.92 3.11-6.67 18.62-29.83 18.63-24.81-.71-28.53-22.35-28.54-35.2 0-5 .66-5.94 9.77-7.22a96.07 96.07 0 0 1 12.1-.63c1.7 0 3.51 0 5.39.09l2.23.09c7.62.34 16 1.22 21.89 2.91 5 1.42 7.51 2.85 8.64 4.91 1.52 2.72 1.05 7.32-1.65 16.42Zm91.66-11.24c-1.09 12.74-6.68 29.25-28.33 29.87-23.16 0-28.9-15.52-29.82-18.63-2.68-9.1-3.14-13.7-1.65-16.42 1.13-2.06 3.64-3.48 8.65-4.91 5.25-1.51 12.48-2.37 19.39-2.78.58 0 1.16-.07 1.74-.09 2.94-.15 5.78-.22 8.35-.22s4.75.06 6.8.17 3.86.26 5.32.46c5.36.75 7.79 1.38 8.88 2.8.76 1 .89 2.35.89 4.42.02 1.65-.05 3.45-.2 5.33Z"/><path class="cls-3" d="M311 125.86c-1.09-1.42-3.52-2-8.88-2.8-1.46-.2-3.27-.36-5.32-.46s-4.35-.17-6.8-.17-5.41.07-8.35.22a2.12 2.12 0 0 1-1.4.19 1.91 1.91 0 0 1-.34-.1c-6.91.41-14.14 1.27-19.39 2.78-5 1.43-7.52 2.85-8.65 4.91-1.49 2.72-1 7.32 1.65 16.42.92 3.11 6.66 18.61 29.82 18.63 21.65-.62 27.24-17.13 28.33-29.87.15-1.88.22-3.68.22-5.33.01-2.07-.12-3.44-.89-4.42Zm-19.57 28.3a19.32 19.32 0 0 1-24-.82 15.72 15.72 0 0 1 .07-24.16 19.3 19.3 0 0 1 26.24 1.34c2.77 3 4.27 6.73 4.28 12.46-.02 3.68-2.36 7.94-6.58 11.18Z"/></svg>