<svg width="275" height="57" viewBox="0 0 275 57" fill="none" xmlns="http://www.w3.org/2000/svg">
<path d="M86.5436 40.3003C85.1041 41.3644 83.3498 41.9139 81.5617 41.8605C79.0123 41.8605 77.0599 41.0198 75.9142 39.1846C75.1962 38.1054 74.9179 36.828 74.9179 34.7908V23.8083H71.4003V20.4169H74.9058V14.7862H79.3431V20.4169H85.7973V23.8083H79.3431V34.8312C79.3431 36.9453 80.3395 37.9437 82.1668 37.9437C83.123 37.9518 84.0525 37.6275 84.7969 37.0261L86.5436 40.3003Z" fill="black"/>
<path d="M101.784 25.0613C101.055 24.6487 100.233 24.4289 99.3956 24.4227C96.7252 24.4227 94.3734 26.7388 94.3734 30.7284V41.3916H89.9885V20.4169H94.3936V23.8083C95.7893 21.6134 97.8587 20.0167 100.291 20.0167C101.269 19.9937 102.234 20.2428 103.079 20.7362L101.784 25.0613Z" fill="black"/>
<path d="M122.385 41.6988C120.433 41.6988 118.637 40.7813 118.202 38.5823C116.487 41.0602 113.7 41.8605 111.227 41.8605C106.923 41.8605 104.055 39.504 104.055 35.3931C104.055 30.203 108.637 29.4026 112.224 29.0065C115.253 28.6872 117.524 28.4082 117.524 26.371C117.524 24.3338 115.213 23.6951 113.26 23.6951C110.919 23.7221 108.64 24.4591 106.725 25.8091L104.971 22.4986C107.52 20.8013 110.519 19.91 113.579 19.9399C118.52 19.9399 121.986 21.9368 121.986 26.9692V36.5128C121.986 37.8709 122.425 38.4287 123.462 38.4287C123.865 38.4452 124.265 38.3486 124.616 38.1498L125.096 41.1855C124.235 41.534 123.313 41.7085 122.385 41.6988V41.6988ZM117.564 30.2393C116.354 31.7551 114.575 31.7551 112.345 32.1149C110.114 32.4747 108.476 33.1133 108.476 35.3082C108.476 37.5031 110.15 38.4247 112.304 38.4247C115.051 38.4247 117.548 36.9453 117.548 33.4326L117.564 30.2393Z" fill="black"/>
<path d="M127.875 41.3795V20.4169H132.26V23.4889C133.97 21.2132 136.294 19.9359 139.118 19.9359C143.7 19.9359 146.33 23.012 146.33 27.7251V41.3795H141.949V28.7235C141.949 26.4842 141.231 23.97 137.807 23.97C134.696 23.97 132.268 26.1648 132.268 29.629V41.3512L127.875 41.3795Z" fill="black"/>
<path d="M159.202 41.8605C154.939 41.8605 151.469 40.2194 149.481 37.1474L152.587 34.9525C154.18 37.1878 156.73 38.263 159.445 38.263C162.034 38.263 163.789 37.305 163.789 35.4699C163.789 33.5539 161.877 33.1537 158.488 32.5959C154.096 31.836 150.594 30.5991 150.594 26.274C150.594 21.9489 154.459 19.9238 158.803 19.9238C163.027 19.9238 166.096 21.7629 167.811 23.5981L165.019 26.1527C164.224 25.2927 163.254 24.6127 162.175 24.1582C161.096 23.7037 159.933 23.4852 158.763 23.5172C156.77 23.5172 154.858 24.2367 154.858 25.8738C154.858 27.713 157.089 28.1091 159.84 28.5901C164.301 29.3986 168.13 30.5465 168.13 34.9767C168.13 39.1038 164.781 41.8605 159.202 41.8605Z" fill="black"/>
<path d="M172.03 12.8702H176.415V35.9105C176.415 37.6243 177.133 38.1054 178.247 38.1054C178.873 38.1161 179.491 37.9643 180.042 37.6648L180.877 41.0198C179.832 41.5595 178.667 41.8212 177.492 41.7797C175.54 41.7797 173.862 41.1814 172.91 39.8637C172.232 38.8653 172.03 37.7052 172.03 35.8701V12.8702Z" fill="black"/>
<path d="M201.607 41.6989C199.655 41.6989 197.859 40.7813 197.424 38.5823C195.709 41.0602 192.922 41.8605 190.449 41.8605C186.145 41.8605 183.277 39.504 183.277 35.3931C183.277 30.203 187.859 29.4026 191.446 29.0065C194.475 28.6872 196.746 28.4083 196.746 26.371C196.746 24.3338 194.435 23.6951 192.482 23.6951C190.141 23.7221 187.862 24.4591 185.947 25.8091L184.193 22.4986C186.747 20.796 189.753 19.9031 192.821 19.9359C197.763 19.9359 201.228 21.9327 201.228 26.9652V36.5087C201.228 37.8669 201.667 38.4247 202.704 38.4247C203.107 38.4412 203.507 38.3446 203.858 38.1458L204.338 41.1815C203.471 41.534 202.543 41.7099 201.607 41.6989V41.6989ZM196.786 30.2393C195.576 31.7552 193.797 31.7552 191.567 32.1149C189.336 32.4747 187.702 33.1133 187.702 35.3082C187.702 37.5031 189.372 38.4247 191.526 38.4247C194.273 38.4247 196.77 36.9453 196.77 33.4326L196.786 30.2393Z" fill="black"/>
<path d="M219.816 40.3003C218.377 41.3644 216.622 41.9139 214.834 41.8605C212.285 41.8605 210.332 41.0198 209.187 39.1846C208.469 38.1054 208.19 36.828 208.19 34.7908V23.8083H204.681V20.4169H208.19V14.7862H212.628V20.4169H219.082V23.8083H212.587V34.8312C212.587 36.9453 213.584 37.9437 215.411 37.9437C216.367 37.9518 217.297 37.6275 218.041 37.0261L219.816 40.3003Z" fill="black"/>
<path d="M242.011 31.9977H226.073C226.27 35.8296 228.779 37.9437 232.487 37.9437C233.624 37.9603 234.752 37.7339 235.796 37.2794C236.839 36.825 237.774 36.153 238.537 35.3082L241.406 38.0649C239.215 40.3811 236.303 41.8605 232.321 41.8605C225.266 41.8605 221.361 37.1878 221.361 30.9993C221.361 24.8107 225.306 19.9359 231.882 19.9359C238.219 19.9359 242.083 24.451 242.083 30.4778C242.087 30.9854 242.063 31.4928 242.011 31.9977ZM237.666 28.8003C237.347 25.2877 234.919 23.4889 231.93 23.4889C228.622 23.4889 226.391 25.6879 226.149 28.8003H237.666Z" fill="black"/>
<path d="M261.216 41.3795V38.3034C260.421 39.4298 259.361 40.3432 258.131 40.9634C256.901 41.5836 255.538 41.8917 254.161 41.8605C248.227 41.8605 244.56 37.107 244.56 30.9184C244.56 24.7299 248.227 19.9359 254.161 19.9359C255.538 19.9007 256.902 20.2066 258.133 20.8264C259.364 21.4462 260.423 22.3607 261.216 23.4889V12.8702H265.653V41.3795H261.216ZM255.121 23.8891C251.135 23.8891 249.223 27.046 249.223 30.9184C249.223 34.7908 251.135 37.9073 255.121 37.9073C259.106 37.9073 261.216 34.7908 261.216 30.9184C261.216 27.046 259.102 23.8891 255.121 23.8891Z" fill="black"/>
<path d="M28.2374 3.99365C33.034 3.99365 37.7228 5.4189 41.711 8.08917C45.6992 10.7594 48.8077 14.5548 50.6432 18.9953C52.4788 23.4358 52.9591 28.322 52.0233 33.036C51.0875 37.75 48.7778 42.0801 45.3861 45.4788C41.9944 48.8774 37.6731 51.1919 32.9687 52.1295C28.2643 53.0672 23.3881 52.586 18.9566 50.7466C14.5252 48.9073 10.7375 45.7925 8.0727 41.7962C5.40787 37.7999 3.98552 33.1014 3.98552 28.2951C3.99299 21.8522 6.55049 15.6754 11.097 11.1196C15.6435 6.56386 21.8077 4.00113 28.2374 3.99365V3.99365ZM28.2374 0C22.6526 0 17.1932 1.65948 12.5496 4.76858C7.90594 7.87768 4.28668 12.2968 2.14946 17.467C0.0122347 22.6373 -0.54696 28.3265 0.542586 33.8152C1.63213 39.3039 4.32148 44.3456 8.27055 48.3027C12.2196 52.2598 17.251 54.9547 22.7286 56.0464C28.2061 57.1382 33.8837 56.5779 39.0434 54.4363C44.2031 52.2947 48.6132 48.6681 51.7159 44.015C54.8187 39.3619 56.4748 33.8913 56.4748 28.2951C56.4748 20.7907 53.4998 13.5938 48.2043 8.28743C42.9087 2.98108 35.7264 0 28.2374 0V0Z" fill="black"/>
<path d="M35.0588 40.175C33.6301 41.2321 31.8883 41.7774 30.1132 41.7231C27.5799 41.7231 25.6396 40.8904 24.4899 39.0674C23.7799 37.9962 23.5016 36.727 23.5016 34.7019V23.7881H18.4229V20.425H23.5016V14.8307H27.8945V34.7625C27.8945 36.8644 28.8828 37.8548 30.7183 37.8548C31.6665 37.8602 32.5879 37.5391 33.3282 36.9453L35.0588 40.175Z" fill="black"/>
<path d="M33.0297 22.0661C33.0271 21.728 33.0909 21.3926 33.2176 21.0792C33.3443 20.7658 33.5313 20.4804 33.768 20.2395C34.0048 19.9985 34.2866 19.8066 34.5973 19.6748C34.9081 19.5429 35.2417 19.4737 35.5791 19.471H35.6598C35.9973 19.4737 36.3309 19.5429 36.6416 19.6748C36.9524 19.8066 37.2342 19.9985 37.4709 20.2395C37.7077 20.4804 37.8947 20.7658 38.0214 21.0792C38.1481 21.3926 38.2119 21.728 38.2093 22.0661C38.2136 22.7483 37.9475 23.4043 37.4695 23.8901C36.9915 24.3759 36.3406 24.6518 35.6598 24.6571H35.5791C34.8983 24.6518 34.2475 24.3759 33.7695 23.8901C33.2915 23.4043 33.0254 22.7483 33.0297 22.0661V22.0661Z" fill="black"/>
<path d="M272.41 41.3431C273.841 41.3431 275 40.1813 275 38.7481C275 37.3149 273.841 36.153 272.41 36.153C270.98 36.153 269.82 37.3149 269.82 38.7481C269.82 40.1813 270.98 41.3431 272.41 41.3431Z" fill="black"/>
</svg>
