<svg width="275" height="57" fill="none" xmlns="http://www.w3.org/2000/svg"><path d="M86.544 40.3a7.98 7.98 0 0 1-4.982 1.56c-2.55 0-4.502-.84-5.648-2.675-.718-1.08-.996-2.357-.996-4.394V23.808H71.4v-3.391h3.506v-5.63h4.437v5.63h6.454v3.391h-6.454v11.023c0 2.114.996 3.113 2.824 3.113a4.13 4.13 0 0 0 2.63-.918l1.747 3.274Zm15.24-15.239a4.923 4.923 0 0 0-2.388-.638c-2.67 0-5.023 2.316-5.023 6.305v10.664h-4.385V20.417h4.406v3.391c1.395-2.195 3.465-3.791 5.897-3.791a5.282 5.282 0 0 1 2.788.72l-1.295 4.324Zm20.601 16.638c-1.952 0-3.748-.918-4.183-3.117-1.715 2.478-4.502 3.279-6.975 3.279-4.304 0-7.172-2.357-7.172-6.468 0-5.19 4.582-5.99 8.169-6.387 3.029-.319 5.3-.598 5.3-2.635s-2.311-2.676-4.264-2.676c-2.341.027-4.62.764-6.535 2.114l-1.754-3.31a15.262 15.262 0 0 1 8.608-2.56c4.941 0 8.407 1.998 8.407 7.03v9.544c0 1.358.439 1.916 1.476 1.916.403.016.803-.08 1.154-.28l.48 3.036a7.032 7.032 0 0 1-2.711.514Zm-4.821-11.46c-1.21 1.516-2.989 1.516-5.219 1.876-2.231.36-3.869.998-3.869 3.193 0 2.195 1.674 3.117 3.828 3.117 2.747 0 5.244-1.48 5.244-4.992l.016-3.194Zm10.311 11.141V20.416h4.385v3.072c1.71-2.276 4.034-3.553 6.858-3.553 4.582 0 7.212 3.076 7.212 7.79V41.38h-4.381V28.723c0-2.239-.718-4.753-4.142-4.753-3.111 0-5.539 2.195-5.539 5.659v11.722l-4.393.029Zm31.327.48c-4.263 0-7.733-1.64-9.721-4.713l3.106-2.194c1.593 2.235 4.143 3.31 6.858 3.31 2.589 0 4.344-.958 4.344-2.793 0-1.916-1.912-2.316-5.301-2.874-4.392-.76-7.894-1.997-7.894-6.322s3.865-6.35 8.209-6.35c4.224 0 7.293 1.839 9.008 3.674l-2.792 2.555a8.217 8.217 0 0 0-6.256-2.636c-1.993 0-3.905.72-3.905 2.357 0 1.839 2.231 2.235 4.982 2.716 4.461.809 8.29 1.957 8.29 6.387 0 4.127-3.349 6.884-8.928 6.884Zm12.828-28.99h4.385v23.04c0 1.714.718 2.195 1.832 2.195a3.628 3.628 0 0 0 1.795-.44l.835 3.355a6.848 6.848 0 0 1-3.385.76c-1.952 0-3.63-.599-4.582-1.916-.678-.999-.88-2.159-.88-3.994v-23Zm29.577 28.829c-1.952 0-3.748-.918-4.183-3.117-1.715 2.478-4.502 3.279-6.975 3.279-4.304 0-7.172-2.357-7.172-6.468 0-5.19 4.582-5.99 8.169-6.387 3.029-.319 5.3-.598 5.3-2.635s-2.311-2.676-4.264-2.676c-2.341.027-4.62.764-6.535 2.114l-1.754-3.31a15.259 15.259 0 0 1 8.628-2.563c4.942 0 8.407 1.997 8.407 7.03v9.543c0 1.358.439 1.916 1.476 1.916.403.016.803-.08 1.154-.28l.48 3.036a7.03 7.03 0 0 1-2.731.518Zm-4.821-11.46c-1.21 1.516-2.989 1.516-5.219 1.876-2.231.36-3.865.998-3.865 3.193 0 2.195 1.67 3.117 3.824 3.117 2.747 0 5.244-1.48 5.244-4.992l.016-3.194Zm23.03 10.061a7.98 7.98 0 0 1-4.982 1.56c-2.549 0-4.502-.84-5.647-2.675-.718-1.08-.997-2.357-.997-4.394V23.808h-3.509v-3.391h3.509v-5.63h4.438v5.63h6.454v3.391h-6.495v11.023c0 2.114.997 3.113 2.824 3.113a4.129 4.129 0 0 0 2.63-.918l1.775 3.274Zm22.195-8.302h-15.938c.197 3.832 2.706 5.946 6.414 5.946a7.997 7.997 0 0 0 6.05-2.636l2.869 2.757c-2.191 2.316-5.103 3.796-9.085 3.796-7.055 0-10.96-4.673-10.96-10.862 0-6.188 3.945-11.063 10.521-11.063 6.337 0 10.201 4.515 10.201 10.542.004.507-.02 1.015-.072 1.52Zm-4.345-3.198c-.319-3.512-2.747-5.311-5.736-5.311-3.308 0-5.539 2.199-5.781 5.311h11.517Zm23.55 12.58v-3.077a8.412 8.412 0 0 1-7.055 3.558c-5.934 0-9.601-4.754-9.601-10.943 0-6.188 3.667-10.982 9.601-10.982a8.356 8.356 0 0 1 7.055 3.553V12.87h4.437v28.51h-4.437Zm-6.095-17.49c-3.986 0-5.898 3.156-5.898 7.028 0 3.873 1.912 6.99 5.898 6.99 3.985 0 6.095-3.117 6.095-6.99 0-3.872-2.114-7.029-6.095-7.029ZM28.237 3.994c4.797 0 9.486 1.425 13.474 4.095a24.29 24.29 0 0 1 8.932 10.906 24.347 24.347 0 0 1 1.38 14.041 24.318 24.318 0 0 1-6.637 12.443 24.236 24.236 0 0 1-12.417 6.65c-4.705.938-9.58.457-14.012-1.382a24.263 24.263 0 0 1-10.884-8.95 24.337 24.337 0 0 1-4.087-13.502 24.355 24.355 0 0 1 7.111-17.175 24.255 24.255 0 0 1 17.14-7.126Zm0-3.994A28.196 28.196 0 0 0 12.55 4.769a28.283 28.283 0 0 0-10.4 12.698A28.349 28.349 0 0 0 .542 33.815 28.313 28.313 0 0 0 8.27 48.303a28.219 28.219 0 0 0 14.458 7.743 28.183 28.183 0 0 0 16.314-1.61 28.25 28.25 0 0 0 12.673-10.421 28.336 28.336 0 0 0-3.512-35.728A28.209 28.209 0 0 0 28.237 0Z" fill="#000"/><path d="M35.059 40.175a7.908 7.908 0 0 1-4.946 1.548c-2.533 0-4.473-.833-5.623-2.656-.71-1.07-.988-2.34-.988-4.365V23.788h-5.08v-3.363h5.08v-5.594h4.393v19.932c0 2.101.988 3.092 2.823 3.092a4.134 4.134 0 0 0 2.61-.91l1.73 3.23ZM33.03 22.066a2.58 2.58 0 0 1 1.567-2.391c.311-.132.645-.201.982-.204h.08a2.565 2.565 0 0 1 2.362 1.608c.127.314.19.649.188.987a2.578 2.578 0 0 1-.74 1.824 2.567 2.567 0 0 1-1.81.767h-.08a2.567 2.567 0 0 1-1.81-.767 2.578 2.578 0 0 1-.74-1.824Zm239.38 19.277a2.592 2.592 0 0 0 2.59-2.595 2.592 2.592 0 0 0-2.59-2.595 2.593 2.593 0 0 0-2.59 2.595 2.593 2.593 0 0 0 2.59 2.595Z" fill="#000"/></svg>