<svg width="160" height="40" viewBox="0 0 160 40" fill="none" xmlns="http://www.w3.org/2000/svg">
<g clip-path="url(#clip0_1608_6321)">
<path d="M50.7568 21.1966V6.39517H53.8525V8.50929C55.0281 6.93757 56.5756 6.05177 58.4957 6.05177C60.6738 6.05177 62.1647 7.08021 62.8235 8.88086C64.1131 7.05204 65.9193 6.05177 67.9825 6.05177C71.2213 6.05177 72.9701 8.19494 72.9701 11.452V21.1676H69.8744V12.1669C69.8744 10.538 69.416 8.88086 67.0657 8.88086C65.0016 8.88086 63.4259 10.3953 63.4259 12.8238V21.1676H60.3302V12.1669C60.3302 10.538 59.8718 8.88086 57.5215 8.88086C55.4291 8.88086 53.8817 10.3953 53.8817 12.8238V21.1676H50.7577V21.1957L50.7568 21.1966Z" fill="white"/>
<path d="M88.4188 21.3965C87.0427 21.3965 85.7532 20.7396 85.4379 19.1961C84.234 20.9395 82.2565 21.511 80.4794 21.511C77.4128 21.511 75.3778 19.8538 75.3778 16.9393C75.3778 13.2817 78.6167 12.7102 81.1674 12.4249C83.3172 12.196 84.9221 11.9961 84.9221 10.5679C84.9221 9.13973 83.2881 8.68187 81.8837 8.68187C80.3646 8.68187 78.6449 9.19609 77.2406 10.1673L76.0085 7.82425C77.8429 6.65228 79.7922 6.02448 82.1134 6.02448C85.6101 6.02448 88.0752 7.42449 88.0752 10.9967V17.7406C88.0752 18.7118 88.3905 19.0834 89.136 19.0834C89.423 19.0834 89.7666 19.0261 89.9671 18.8835L90.3107 21.0267C89.8523 21.2838 88.992 21.3983 88.4188 21.3983M85.0077 13.3116C84.1475 14.3691 82.8871 14.3691 81.3105 14.6262C79.7339 14.8833 78.5592 15.3403 78.5592 16.8839C78.5592 18.4274 79.7348 19.0843 81.2823 19.0843C83.2316 19.0843 85.0086 18.0558 85.0086 15.5692V13.3116H85.0077Z" fill="white"/>
<path d="M101.346 20.4253C100.4 21.1394 99.2534 21.511 97.8199 21.511C96.0146 21.511 94.6385 20.9113 93.8074 19.6249C93.2916 18.8536 93.0911 17.9678 93.0911 16.5387V8.79545H90.5977V6.39517H93.0911V2.42317H96.2151V6.39517H100.801V8.79545H96.2151V16.5678C96.2151 18.0532 96.9314 18.7682 98.2218 18.7682C99.0529 18.7682 99.6553 18.4538 100.085 18.1113L101.346 20.4262V20.4253Z" fill="white"/>
<path d="M116.537 14.5672H105.215C105.358 17.2818 107.135 18.7673 109.773 18.7673C111.522 18.7673 112.954 18.0814 114.072 16.9103L116.107 18.8536C114.56 20.4825 112.496 21.5391 109.658 21.5391C104.642 21.5391 101.891 18.2531 101.891 13.8813C101.891 9.50955 104.699 6.08083 109.343 6.08083C113.986 6.08083 116.566 9.25244 116.566 13.5097C116.594 13.9385 116.566 14.3101 116.537 14.5672M113.442 12.3096C113.212 9.82389 111.492 8.56652 109.372 8.56652C107.021 8.56652 105.445 10.1092 105.273 12.3096H113.442Z" fill="white"/>
<path d="M131.871 18.2539C130.639 20.1109 128.604 21.511 125.68 21.511C121.151 21.511 118.314 18.1967 118.314 13.7959C118.314 9.39509 121.209 6.05266 125.652 6.05266C128.489 6.05266 130.524 7.39544 131.786 9.33874L129.435 10.9959C128.662 9.65308 127.429 8.76728 125.796 8.76728C123.187 8.76728 121.611 10.9105 121.611 13.7677C121.611 16.625 123.216 18.7963 125.824 18.7963C127.543 18.7963 128.719 17.8824 129.521 16.6532L131.871 18.2531V18.2539Z" fill="#0099CC"/>
<path d="M146.231 21.3965C144.855 21.3965 143.565 20.7396 143.25 19.1961C142.046 20.9395 140.069 21.511 138.292 21.511C135.225 21.511 133.19 19.8538 133.19 16.9393C133.19 13.2817 136.429 12.7102 138.98 12.4249C141.129 12.196 142.734 11.9961 142.734 10.5679C142.734 9.13973 141.1 8.68187 139.696 8.68187C138.177 8.68187 136.457 9.19609 135.053 10.1673L133.821 7.82425C135.655 6.65228 137.604 6.02448 139.925 6.02448C143.422 6.02448 145.887 7.42449 145.887 10.9967V17.7406C145.887 18.7118 146.203 19.0834 146.948 19.0834C147.235 19.0834 147.579 19.0261 147.779 18.8835L148.123 21.0267C147.635 21.2838 146.804 21.3983 146.231 21.3983M142.82 13.3116C141.96 14.3691 140.699 14.3691 139.123 14.6262C137.546 14.8833 136.371 15.3403 136.371 16.8839C136.371 18.4274 137.547 19.0843 139.094 19.0843C141.044 19.0843 142.821 18.0558 142.821 15.5692V13.3116H142.82Z" fill="#0099CC"/>
<path d="M159.158 20.4253C158.212 21.1394 157.066 21.511 155.632 21.511C153.827 21.511 152.451 20.9113 151.619 19.6249C151.104 18.8536 150.903 17.9678 150.903 16.5387V8.79545H148.41V6.39517H150.903V2.42317H154.027V6.39517H158.613V8.79545H154.027V16.5678C154.027 18.0532 154.743 18.7682 156.034 18.7682C156.865 18.7682 157.467 18.4538 157.897 18.1113L159.158 20.4262V20.4253Z" fill="#0099CC"/>
<path d="M20.0653 2.82645C29.6007 2.82645 37.2954 10.5327 37.2954 20.0035C37.2954 29.4743 29.5654 37.1735 20.0653 37.1735C10.5652 37.1735 2.84225 29.4743 2.84225 20.0035C2.87051 10.4975 10.6006 2.82645 20.0653 2.82645ZM20.0653 0C8.98514 0 0 8.95747 0 20.0035C0 31.0496 8.99221 40 20.0653 40C31.1384 40 40.1306 31.0425 40.1306 19.9965C40.1306 8.95043 31.1455 0 20.0653 0" fill="white"/>
<path d="M28.7616 18.1685C28.7616 22.3448 27.1179 25.1642 23.8032 28.1527L21.8353 25.9734C23.9303 24.1455 25.1218 21.8676 25.1218 19.5818V19.1318H21.9978V13.2535H28.7616V18.1685Z" fill="white"/>
<path d="M11.4043 22.373C11.4043 18.1685 13.048 15.3773 16.3628 12.3254L18.3306 14.5399C16.2356 16.3679 15.0441 18.5833 15.0441 20.8964V21.3463H18.1964V27.2246H11.4326V22.38H11.4043V22.373Z" fill="white"/>
<path d="M52.1806 25.4777V28.1712C52.6681 27.5328 53.2882 27.2695 53.9886 27.2695C55.5024 27.2695 56.4263 28.4749 56.4263 30.044C56.4263 31.6131 55.4918 32.8291 53.9886 32.8291C53.2882 32.8291 52.6681 32.5658 52.1806 31.9274V32.7076H51.0633V25.4777H52.1806ZM53.7351 31.8271C54.7508 31.8271 55.2383 31.0372 55.2383 30.0546C55.2383 29.0719 54.7508 28.2724 53.7351 28.2724C52.7194 28.2724 52.1806 29.0825 52.1806 30.0546C52.1806 31.0267 52.7194 31.8271 53.7351 31.8271Z" fill="white"/>
<path d="M60.1138 32.9207C59.6969 34.0143 59.2297 34.5716 58.2139 34.5716C57.7467 34.5716 57.3501 34.4501 57.0048 34.2071L57.4623 33.4173C57.6451 33.5494 57.8589 33.6304 58.0921 33.6304C58.5293 33.6304 58.7421 33.3266 58.9356 32.9312L59.0778 32.6371L56.8432 27.3919H58.1336L59.6572 31.2301L61.0182 27.3919H62.2274L60.1147 32.9207H60.1138Z" fill="white"/>
<path d="M69.1131 32.4346C68.7774 32.6882 68.3614 32.8291 67.843 32.8291C67.1929 32.8291 66.6948 32.616 66.4006 32.1502C66.2178 31.8764 66.1463 31.5523 66.1463 31.0364V28.2513H65.2524V27.3902H66.1463V25.962H67.2742V27.3902H68.9196V28.2513H67.2742V31.046C67.2742 31.5832 67.5285 31.8359 67.9958 31.8359C68.2908 31.8359 68.5142 31.724 68.6661 31.6025L69.1131 32.4329V32.4346Z" fill="white"/>
<path d="M73.0028 28.5656C72.8297 28.4741 72.6372 28.4036 72.3934 28.4036C71.7124 28.4036 71.1136 28.9909 71.1136 30.0035V32.7076H69.9963V27.391H71.1136V28.2522C71.4695 27.6948 71.9977 27.2898 72.6169 27.2898C72.9119 27.2898 73.1759 27.3708 73.3279 27.472L73.0028 28.5656Z" fill="white"/>
<path d="M78.4065 32.7886C77.9083 32.7886 77.4517 32.5553 77.3395 31.9988C76.9023 32.6266 76.1913 32.8291 75.5616 32.8291C74.4646 32.8291 73.7333 32.2312 73.7333 31.1887C73.7333 29.8723 74.9018 29.6698 75.8159 29.5686C76.5879 29.4875 77.1673 29.4162 77.1673 28.9002C77.1673 28.3843 76.5782 28.2214 76.08 28.2214C75.5315 28.2214 74.9115 28.4036 74.4143 28.7585L73.9673 27.9176C74.628 27.4923 75.3284 27.2695 76.1613 27.2695C77.4208 27.2695 78.3049 27.7758 78.3049 29.0517V31.4722C78.3049 31.8165 78.4171 31.9583 78.6812 31.9583C78.7827 31.9583 78.9046 31.938 78.9753 31.8869L79.0972 32.6565C78.9143 32.7481 78.6096 32.7886 78.4065 32.7886ZM77.177 29.882C76.8723 30.2668 76.4157 30.2668 75.846 30.3584C75.2763 30.4499 74.8603 30.612 74.8603 31.1684C74.8603 31.7249 75.2869 31.9583 75.8354 31.9583C76.5367 31.9583 77.1761 31.5832 77.1761 30.6921V29.882H77.177Z" fill="white"/>
<path d="M79.9601 32.7076V27.391H81.0773V28.1712C81.5145 27.5936 82.1037 27.2695 82.8244 27.2695C83.9929 27.2695 84.6633 28.0497 84.6633 29.2445V32.7076H83.546V29.4972C83.546 28.9302 83.3632 28.2918 82.4896 28.2918C81.6974 28.2918 81.0773 28.8492 81.0773 29.7297V32.7067H79.9601V32.7076Z" fill="white"/>
<path d="M88.0964 32.8291C87.01 32.8291 86.1259 32.4144 85.6181 31.6342L86.4103 31.0769C86.8166 31.6439 87.4667 31.9178 88.1574 31.9178C88.8481 31.9178 89.2649 31.6747 89.2649 31.209C89.2649 30.7432 88.7774 30.6216 87.9136 30.4799C86.7963 30.2871 85.9025 29.9736 85.9025 28.88C85.9025 27.7864 86.8882 27.2695 87.9949 27.2695C89.1016 27.2695 89.8541 27.7353 90.2904 28.2011L89.5794 28.8492C89.2234 28.4441 88.6555 28.1809 87.9843 28.1809C87.4764 28.1809 86.9889 28.3631 86.9889 28.7787C86.9889 29.2445 87.5577 29.3458 88.2589 29.4673C89.3966 29.6698 90.3716 29.9639 90.3716 31.0874C90.3716 32.1308 89.5184 32.8291 88.0964 32.8291Z" fill="white"/>
<path d="M91.519 32.7076V25.4777H92.6362V32.7076H91.519Z" fill="white"/>
<path d="M98.4161 32.7886C97.918 32.7886 97.4613 32.5553 97.3492 31.9988C96.912 32.6266 96.201 32.8291 95.5712 32.8291C94.4742 32.8291 93.7429 32.2312 93.7429 31.1887C93.7429 29.8723 94.9114 29.6698 95.8256 29.5686C96.5975 29.4875 97.1769 29.4162 97.1769 28.9002C97.1769 28.3843 96.5878 28.2214 96.0897 28.2214C95.5412 28.2214 94.9212 28.4036 94.4239 28.7585L93.977 27.9176C94.6376 27.4923 95.338 27.2695 96.1709 27.2695C97.4304 27.2695 98.3145 27.7758 98.3145 29.0517V31.4722C98.3145 31.8165 98.4267 31.9583 98.6908 31.9583C98.7924 31.9583 98.9143 31.938 98.9849 31.8869L99.1068 32.6565C98.924 32.7481 98.6193 32.7886 98.4161 32.7886ZM97.1866 29.882C96.8819 30.2668 96.4253 30.2668 95.8556 30.3584C95.2859 30.4499 94.8699 30.612 94.8699 31.1684C94.8699 31.7249 95.2965 31.9583 95.845 31.9583C96.5463 31.9583 97.1858 31.5832 97.1858 30.6921V29.882H97.1866Z" fill="white"/>
<path d="M103.21 32.4346C102.875 32.6882 102.459 32.8291 101.94 32.8291C101.29 32.8291 100.792 32.616 100.498 32.1502C100.315 31.8764 100.244 31.5523 100.244 31.0364V28.2513H99.3497V27.3902H100.244V25.962H101.371V27.3902H103.017V28.2513H101.371V31.046C101.371 31.5832 101.626 31.8359 102.092 31.8359C102.387 31.8359 102.611 31.724 102.763 31.6025L103.209 32.4329L103.21 32.4346Z" fill="white"/>
<path d="M109.02 30.3284H104.957C105.008 31.3005 105.648 31.8376 106.593 31.8376C107.223 31.8376 107.741 31.5946 108.137 31.1693L108.868 31.8685C108.309 32.4558 107.568 32.8309 106.552 32.8309C104.754 32.8309 103.76 31.6457 103.76 30.0766C103.76 28.5075 104.765 27.2713 106.441 27.2713C108.118 27.2713 109.041 28.416 109.041 29.9445C109.041 30.1065 109.031 30.2377 109.021 30.3293L109.02 30.3284ZM107.913 29.5184C107.831 28.6273 107.211 28.1712 106.45 28.1712C105.607 28.1712 105.038 28.7285 104.977 29.5184H107.913Z" fill="white"/>
<path d="M114.068 32.7076V31.9274C113.591 32.5658 112.96 32.8291 112.27 32.8291C110.756 32.8291 109.821 31.6237 109.821 30.0546C109.821 28.4855 110.756 27.2695 112.27 27.2695C112.971 27.2695 113.59 27.5328 114.068 28.1712V25.4777H115.196V32.7076H114.068ZM112.513 28.2724C111.498 28.2724 111.01 29.0719 111.01 30.0546C111.01 31.0372 111.498 31.8271 112.513 31.8271C113.529 31.8271 114.068 31.0372 114.068 30.0546C114.068 29.0719 113.529 28.2724 112.513 28.2724Z" fill="white"/>
</g>
<defs>
<clipPath id="clip0_1608_6321">
<rect width="159.158" height="40" fill="white"/>
</clipPath>
</defs>
</svg>
